<svg width="900" height="260" viewBox="0 0 900 260" fill="none" xmlns="http://www.w3.org/2000/svg">
  <defs>
    <linearGradient id="bg" x1="0" y1="0" x2="900" y2="260" gradientUnits="userSpaceOnUse">
      <stop stop-color="#031027"/>
      <stop offset="1" stop-color="#02091A"/>
    </linearGradient>
    <filter id="shadow" x="250" y="40" width="400" height="90" filterUnits="userSpaceOnUse" color-interpolation-filters="sRGB">
      <feDropShadow dx="0" dy="8" stdDeviation="9" flood-color="#0F172A" flood-opacity="0.08"/>
    </filter>
  </defs>

  <rect width="900" height="260" fill="url(#bg)"/>
  <rect x="270" y="24" width="360" height="212" rx="34" fill="url(#bg)" stroke="rgba(255,255,255,0.10)"/>
  <rect x="270.5" y="24.5" width="359" height="211" rx="33.5" stroke="rgba(255,255,255,0.06)"/>

  <g filter="url(#shadow)">
    <rect x="300" y="64" width="300" height="52" rx="16" fill="white" stroke="#DADCE0"/>
  </g>

  <g transform="translate(316 80)">
    <path d="M34.64 20.55c0-1.36-.12-2.66-.35-3.91H18v7.4h9.31c-.4 2.15-1.62 3.98-3.45 5.21v4.32h5.59c3.27-3.01 5.19-7.45 5.19-13.02Z" fill="#4285F4"/>
    <path d="M18 37.5c4.68 0 8.61-1.55 11.48-4.2l-5.59-4.32c-1.55 1.04-3.53 1.65-5.89 1.65-4.53 0-8.37-3.06-9.74-7.18H2.48v4.46C5.33 33.58 11.17 37.5 18 37.5Z" fill="#34A853"/>
    <path d="M8.26 23.45c-.35-1.04-.55-2.15-.55-3.31s.2-2.27.55-3.31v-4.46H2.48A19.48 19.48 0 0 0 0 20.14c0 3.14.75 6.11 2.48 8.77l5.78-5.46Z" fill="#FBBC05"/>
    <path d="M18 7.65c2.54 0 4.82.87 6.61 2.57l4.96-4.96C26.61 2.48 22.68.75 18 .75 11.17.75 5.33 4.67 2.48 10.37l5.78 4.46C9.63 10.71 13.47 7.65 18 7.65Z" fill="#EA4335"/>
  </g>
  <text x="354" y="96" fill="#111827" font-family="Arial, Helvetica, sans-serif" font-size="15" font-weight="500">Continue with Google</text>

  <rect x="300" y="132" width="300" height="52" rx="16" fill="black"/>
  <g transform="translate(317 147)">
    <path d="M18.87 12.93c.02 2.3 2.02 3.07 2.04 3.08-.02.05-.32 1.11-1.06 2.21-.64.95-1.3 1.9-2.35 1.92-1.03.02-1.36-.61-2.54-.61-1.17 0-1.54.6-2.51.63-1 .04-1.77-1-2.42-1.94-1.33-1.92-2.34-5.42-.98-7.78.67-1.17 1.88-1.91 3.19-1.93.99-.02 1.93.67 2.54.67.61 0 1.76-.83 2.97-.71.51.02 1.95.21 2.87 1.56-.07.04-1.72 1-1.71 2.9ZM17.81 4.79c.54-.65.91-1.55.81-2.45-.78.03-1.72.52-2.28 1.18-.5.58-.94 1.5-.82 2.38.87.07 1.75-.44 2.29-1.11Z" fill="white"/>
  </g>
  <text x="354" y="164" fill="white" font-family="Arial, Helvetica, sans-serif" font-size="15" font-weight="500">Continue with Apple</text>
</svg>
