<?xml version="1.0" encoding="UTF-8" standalone="no"?>
<svg
   version="1.2"
   viewBox="0 0 195.76991 293.42733"
   width="195.76991"
   height="293.42734"
   id="svg350"
   xmlns="http://www.w3.org/2000/svg"
   xmlns:svg="http://www.w3.org/2000/svg">
  <defs
     id="defs350" />
  <style
     id="style1">
		.s0 { fill: none;stroke: currentColor;stroke-miterlimit:10;stroke-width: 12 } 
		.s1 { fill: none;stroke: currentColor;stroke-linecap: round;stroke-miterlimit:10;stroke-width: 6 } 
		.s2 { fill: none;stroke: currentColor;stroke-miterlimit:10;stroke-width: 6 } 
		.s3 { fill: none;stroke: currentColor;stroke-linecap: round;stroke-linejoin: round;stroke-width: 12 } 
		.s4 { fill: none;stroke: currentColor;stroke-linecap: round;stroke-linejoin: round;stroke-width: 6 } 
		.s5 { fill: none;stroke: currentColor;stroke-linecap: round;stroke-miterlimit:10;stroke-width: 12 } 
		.s6 { fill: none;stroke: currentColor;stroke-linejoin: round;stroke-width: 12 } 
		.s7 { fill: none;stroke: currentColor;stroke-linejoin: round;stroke-width: 6 } 
		.s8 { fill: none;stroke: currentColor;stroke-linecap: round;stroke-linejoin: round;stroke-width: 6;stroke-dasharray: 1.02815,12.3379 } 
		.s9 { fill: none;stroke: currentColor;stroke-linecap: round;stroke-linejoin: round;stroke-width: 6;stroke-dasharray: 1,12 } 
		.s10 { fill: none;stroke: currentColor;stroke-linecap: round;stroke-linejoin: round;stroke-width: 6;stroke-dasharray: 2.94418,11.7767 } 
		.s11 { fill: none;stroke: currentColor;stroke-linecap: round;stroke-linejoin: round;stroke-width: 6;stroke-dasharray: 1.0141,12.1692 } 
	</style>
  <path
     id="&lt;Path&gt;"
     class="s0"
     d="m -1969.47,-1036.0701 c 25.87,25.87 115.56,18.47 175.44,-41.41 59.89,-59.88 66.29,-150.57 41.42,-175.44 -24.87,-24.87 -115.56,-18.47 -175.44,41.41 -59.88,59.89 -67.28,149.58 -41.42,175.44 z" />
  <path
     id="path1"
     class="s1"
     d="m -1864.79,-1140.3001 -89.98,89.97" />
  <path
     id="path2"
     class="s1"
     d="m -1766.26,-1238.8301 -89.97,89.97" />
  <path
     id="path3"
     class="s1"
     d="m -1838.07,-1191.5901 24.57,24.57" />
  <path
     id="path4"
     class="s1"
     d="m -1850.58,-1179.0801 24.57,24.57" />
  <path
     id="path5"
     class="s1"
     d="m -1863.1,-1166.5601 24.57,24.57" />
  <path
     id="path6"
     class="s1"
     d="m -1882.23,-1147.4301 24.57,24.57" />
  <path
     id="path7"
     class="s1"
     d="m -1907.27,-1122.3901 24.57,24.57" />
  <path
     id="path8"
     class="s1"
     d="m -1894.75,-1134.9101 24.57,24.57" />
  <path
     id="path9"
     class="s1"
     d="m -1856.67,-1140.9401 c -2.26,2.26 -5.92,2.26 -8.17,0 -2.26,-2.26 -2.26,-5.91 0,-8.17 2.25,-2.26 5.91,-2.26 8.17,0 2.25,2.26 2.25,5.91 0,8.17 z" />
  <path
     id="path10"
     class="s2"
     d="m -392.21,-1120.0601 v 28.31" />
  <path
     id="path11"
     class="s2"
     d="m -392.21,-1138.3301 v 9.46" />
  <path
     id="path12"
     class="s2"
     d="m -392.21,-1082.6401 v 28.31" />
  <path
     id="path13"
     class="s2"
     d="m -392.21,-1046.0701 v 28.31" />
  <path
     id="path14"
     class="s2"
     d="m -392.21,-1167.8201 v -28.3" />
  <path
     id="path15"
     class="s2"
     d="m -392.21,-1149.5401 v -9.47" />
  <path
     id="path16"
     class="s2"
     d="m -392.21,-1205.9801 v -28.31" />
  <path
     id="path17"
     class="s2"
     d="m -392.21,-1241.8101 v -28.31" />
  <path
     id="path18"
     class="s1"
     d="m -385.67,-1144.2801 c 0,3.6 -2.92,6.52 -6.52,6.52 -3.6,0 -6.51,-2.92 -6.51,-6.52 0,-3.6 2.91,-6.52 6.51,-6.52 3.6,0 6.52,2.92 6.52,6.52 z" />
  <path
     id="path19"
     class="s0"
     d="m -1514.28,-1144.4701 c 0,42 64.01,88.36 142.96,88.36 78.95,0 142.96,-55.57 142.96,-88.36 0,-39.4 -64.01,-86.43 -142.96,-86.43 -78.95,0 -142.96,44.31 -142.96,86.43 z" />
  <path
     id="path20"
     class="s2"
     d="m -1513.83,-1145.5001 c 0,18.49 64,38.88 142.96,38.88 78.95,0 142.96,-24.45 142.96,-38.88" />
  <path
     id="path21"
     class="s1"
     d="m -1365.97,-1236.5101 v 13.51" />
  <path
     id="path22"
     class="s1"
     d="m -1374.23,-1238.2101 v 4.45" />
  <path
     id="path23"
     class="s1"
     d="m -1383.17,-1236.5101 v 13.51" />
  <path
     id="path24"
     class="s1"
     d="m -1395.91,-1235.7601 v 13.51" />
  <path
     id="path25"
     class="s1"
     d="m -1408.81,-1233.5701 v 13.5" />
  <path
     id="path26"
     class="s1"
     d="m -1352.28,-1235.5801 v 13.51" />
  <path
     id="path27"
     class="s1"
     d="m -1338.58,-1233.8201 v 13.51" />
  <path
     id="path28"
     class="s0"
     d="m -950.9,-1210.4201 c 59.29,-59.29 137.42,-77.29 174.51,-40.19 37.09,37.09 19.1,115.22 -40.19,174.51 -59.29,59.29 -137.42,77.29003 -174.52,40.19 -37.09,-37.09 -19.09,-115.22 40.2,-174.51 z" />
  <path
     id="path29"
     class="s2"
     d="m -991.1,-1035.9101 c -19.58,-19.58 12.6,-83.53 71.89,-142.82 59.29,-59.29 123.23,-91.47 142.82,-71.88" />
  <path
     id="path30"
     class="s3"
     d="m 562.61999,71.479919 h 42.94 l -40.31,100.760001" />
  <path
     id="path37"
     class="s0"
     d="m -272.45,-477.02008 c -21.47,29.69 -54.35,42.57 -73.45,28.77 -7.74,-5.59 -12.02,-14.71 -12.95,-25.56 -1.37,-15.91 4.48,-35.54 17.25,-53.2 21.47,-29.7 54.35,-42.58 73.45,-28.77 19.09,13.8 17.16,49.06 -4.3,78.76 z" />
  <path
     id="path38"
     class="s0"
     d="M -457.33001,-404.29008 -341.6,-527.01008" />
  <path
     id="path39"
     class="s6"
     d="m -357.9,-472.91008 -89.51001,94.91 -81.35,-56.23 -0.5,-18.68 c 0,0 115.09001,-125.5 123.02001,-132.94 7.94,-7.44 30.26,-20.34 46.63,-12.9 16.37,7.44 91.46,42.97 91.46,42.97" />
  <path
     id="path40"
     class="s0"
     d="m -457.33001,-404.29008 -71.93,-48.62" />
  <path
     id="path41"
     class="s0"
     d="m -457.33001,-404.29008 9.92,26.29" />
  <path
     id="path42"
     class="s7"
     d="m -420.93,-540.48008 25.93,-27.82 41.5,19.33 -26.4,29.24 z" />
  <path
     id="path43"
     class="s2"
     d="m -403.2,-559.81008 41.5,19.34" />
  <path
     id="path44"
     class="s0"
     d="m -345.9,-448.25008 -22.69,-12.06" />
  <path
     id="path45"
     class="s2"
     d="m -334.16,-587.64008 c 0,0 7.54,-8.01 13.2,-11.31 5.66,-3.3 13.08,-1.64 17.45,0.47 6.94,3.34 11.7,7.58 9.43,14.62 -1.94,6.04 -8.45,13.08 -8.45,13.08" />
  <path
     id="path46"
     class="s4"
     d="m -1423.39,-439.27008 c 10.51,-8.51 29.53,-19.02 43.55,-24.52 14.01,-5.51 30.03,-13.52 37.03,-21.03" />
  <path
     id="path47"
     class="s4"
     d="m -1369.33,-534.36008 c 0,0 -4.01,5.5 -25.03,31.03 12.52,-15.52 40.04,-15.02 52.06,-8.51 -5.01,2.5 -14.52,15.51 -20.02,27.53 24.52,-18.02 39.53,-12.02 51.55,-7.01 -17.52,0 -28.53,11.01 -33.54,19.02 2.01,-15.02 6.01,-21.02 16.52,-29.53 -22.52,-10.51 -45.05,2.5 -51.05,9.01 8.51,-14.52 17.52,-30.03 22.52,-31.53 -18.52,-4.51 -48.55,0 -53.55,11.01" />
  <path
     id="path48"
     class="s3"
     d="m -1373.84,-530.36008 c 0,0 -16.01,-13.01 -22.52,-18.02 -6.51,-5 -35.53,-16.52 -35.03,12.51 0.28,16.64 -14.52,-8.5 -33.54,-20.52 -19.02,-12.01 -23.52,7.01 -26.02,14.52 -2.51,7.51 -8.01,34.53 -12.02,56.05 -4,21.53 15.02,32.04 30.54,33.54 15.51,1.5 43.54,7.5 62.06,21.52 18.52,14.01 59.06,15.51 88.59,14.51 29.53,-1 62.56,-7 77.07,-17.51 14.52,-10.51 -1.5,-27.53 -11.01,-33.04 -9.51,-5.5 -37.54,-15.01 -51.05,-21.02" />
  <path
     id="path49"
     class="s4"
     d="m -1487.45,-544.88008 c -3.5,22.53 3,34.54 23.52,27.53 20.52,-7 36.54,-15.01 52.56,-9.51 16.01,5.51 71.07,45.05 81.08,47.55 10.01,2.5 15.01,3 23.52,-8.51" />
  <path
     id="path50"
     class="s4"
     d="m -1287.75,-417.25008 c 1,7.01 -4.5,10.51 -9.51,11.01 -5,0.5 -12.51,-1 -13.01,-10.01" />
  <path
     id="path51"
     class="s4"
     d="m -1243.85,-430.94008 c 2.64,6.57 -1.87,11.28 -6.61,12.96 -4.74,1.68 -12.39,2.01 -15.02,-6.62" />
  <path
     id="path52"
     class="s4"
     d="m -1331.79,-414.75008 c 1,7.01 -4.51,10.52 -9.51,11.02 -5.01,0.5 -12.52,-1.01 -13.02,-10.01" />
  <path
     id="path53"
     class="s4"
     d="m -1369.33,-418.25008 c 1,7.01 -4.51,10.51 -9.51,11.01 -5.01,0.5 -12.51,-1 -13.01,-10.01" />
  <path
     id="path54"
     class="s4"
     d="m -1450.74,-446.13008 c 0.8,5.56 -3.57,8.33 -7.53,8.73 -3.97,0.4 -9.92,-0.79 -10.31,-7.93" />
  <path
     id="path55"
     class="s4"
     d="m -1479.03,-450.06008 c -1.47,5.42 -6.57,6.25 -10.37,5.05 -3.8,-1.2 -8.8,-4.64 -6.34,-11.36" />
  <path
     id="path56"
     class="s4"
     d="m -1416.22,-429.10008 c -2.45,6.71 2.55,10.15 6.35,11.35 3.8,1.2 8.9,0.37 10.36,-5.04" />
  <path
     id="path57"
     class="s4"
     d="m -1403.37,-428.76008 q 0.22,-0.13 0.43,-0.26" />
  <path
     id="path58"
     class="s8"
     d="m -1392.3,-435.26008 c 18.34,-10.49 37.01,-19.78 48.49,-24.03 13.52,-5 26.53,-8.51 44.05,-5.51 16.51,2.84 38.82,12.87 43.61,29.46" />
  <path
     id="path59"
     class="s4"
     d="m -1255.22,-429.26008 q 0,0.25 0,0.5" />
  <path
     id="path61"
     class="s9"
     d="m -1495.96,-512.84008 c 7.51,7 17.02,15.01 33.54,12.51 16.51,-2.5 20.02,-11.01 38.53,-3 18.52,8 50.78,16.66 44.55,20.02 -13.01,7 -44.55,29.53 -59.06,38.03" />
  <path
     id="path62"
     class="s4"
     d="m -837.03,-507.48008 c -10.51,-8.51 -29.53,-19.02 -43.55,-24.52 -14.01,-5.51 -30.03,-13.52 -37.03,-21.02" />
  <path
     id="path63"
     class="s4"
     d="m -891.09,-602.57008 c 0,0 4.01,5.5 25.03,31.03 -12.52,-15.52 -40.04,-15.02 -52.05,-8.51 5,2.5 14.51,15.51 20.02,27.53 -24.53,-18.02 -39.54,-12.02 -51.56,-7.01 17.52,0 28.53,11.01 33.54,19.02 -2,-15.02 -6.01,-21.02 -16.52,-29.53 22.52,-10.51 45.05,2.5 51.05,9.01 -8.51,-14.52 -17.52,-30.03 -22.52,-31.53 18.52,-4.51 48.55,0 53.55,11.01" />
  <path
     id="path64"
     class="s3"
     d="m -886.58,-598.57008 c 0,0 16.01,-13.01 22.52,-18.02 6.51,-5 35.53,-16.51 35.03,12.51 -0.28,16.64 14.52,-8.5 33.54,-20.52 19.02,-12.01 23.52,7.01 26.02,14.52 2.51,7.51 8.01,34.53 12.02,56.05 4,21.53 -15.02,32.04 -30.53,33.54 -15.52,1.5 -43.55,7.51 -62.07,21.52 -18.52,14.01 -59.06,15.52 -88.59,14.51 -29.52,-1 -62.56,-7 -77.07,-17.51 -14.52,-10.51 1.5,-27.53 11.01,-33.04 9.51,-5.5 37.54,-15.01 51.05,-21.02" />
  <path
     id="path65"
     class="s4"
     d="m -772.97,-613.08008 c 3.5,22.52 -3,34.53 -23.52,27.52 -20.52,-7 -36.54,-15.01 -52.56,-9.51 -16.01,5.51 -71.07,45.05 -81.08,47.55 -10.01,2.5 -15.01,3 -23.52,-8.51" />
  <path
     id="path66"
     class="s4"
     d="m -972.67,-485.46008 c -1,7.01 4.51,10.51 9.51,11.01 5.01,0.5 12.51,-1 13.01,-10.01" />
  <path
     id="path67"
     class="s4"
     d="m -1016.57,-499.15008 c -2.64,6.57 1.87,11.28 6.61,12.96 4.74,1.68 12.39,2.01 15.03,-6.61" />
  <path
     id="path68"
     class="s4"
     d="m -928.63,-482.95008 c -1,7 4.51,10.51 9.51,11.01 5.01,0.5 12.52,-1 13.02,-10.01" />
  <path
     id="path69"
     class="s4"
     d="m -891.09,-486.46008 c -1,7.01 4.51,10.51 9.51,11.01 5.01,0.5 12.51,-1 13.01,-10.01" />
  <path
     id="path70"
     class="s4"
     d="m -809.68,-514.34008 c -0.8,5.56 3.57,8.33 7.53,8.73 3.97,0.4 9.92,-0.79 10.31,-7.93" />
  <path
     id="path71"
     class="s4"
     d="m -781.39,-518.27008 c 1.47,5.42 6.57,6.25 10.37,5.05 3.8,-1.2 8.8,-4.64 6.35,-11.36" />
  <path
     id="path72"
     class="s4"
     d="m -844.2,-497.31008 c 2.45,6.71 -2.55,10.15 -6.35,11.35 -3.8,1.2 -8.9,0.37 -10.36,-5.04" />
  <path
     id="path73"
     class="s4"
     d="m -857.05,-496.97008 q -0.22,-0.13 -0.43,-0.26" />
  <path
     id="path74"
     class="s8"
     d="m -868.12,-503.47008 c -18.34,-10.49 -37.01,-19.78 -48.49,-24.03 -13.52,-5 -26.53,-8.51 -44.05,-5.5 -16.51,2.83 -38.82,12.86 -43.61,29.45" />
  <path
     id="path75"
     class="s4"
     d="m -1005.2,-497.47008 q 0,0.25 0,0.5" />
  <path
     id="path76"
     class="s9"
     d="m -764.46,-581.05008 c -7.51,7 -17.02,15.01 -33.53,12.51 -16.52,-2.5 -20.02,-11.01 -38.54,-3 -18.52,8.01 -50.78,16.66 -44.55,20.02 13.02,7 44.55,29.53 59.06,38.03" />
  <path
     id="path77"
     class="s3"
     d="m -1022.11,-424.49008 c 0,14.79 4.69,41.47 50.86,41.11 46.16,-0.36 62.03,-3.24 83.31,-1.8 21.28,1.44 50.85,10.46 74.66,8.66 23.8,-1.81 64.1,-16.06 63.47,-47.25 -0.71,-35.75 -36.43,-44 -66,-40.76 -29.57,3.25 -77.54,29.22 -105.67,25.97 -28.13,-3.24 -50.4,-17.56 -73.84,-16.84 -23.44,0.72 -26.07,22.97 -26.79,30.91 z" />
  <path
     id="path78"
     class="s4"
     d="m -984.96,-435.31008 c 0,3.58 -2.91,6.49 -6.49,6.49 -3.59,0 -6.49,-2.91 -6.49,-6.49 0,-3.59 2.9,-6.49 6.49,-6.49 3.58,0 6.49,2.9 6.49,6.49 z" />
  <path
     id="path79"
     class="s4"
     d="m -954.67,-428.24008 c 0,3.58 -2.91,6.49 -6.49,6.49 -3.59,0 -6.49,-2.91 -6.49,-6.49 0,-3.59 2.9,-6.5 6.49,-6.5 3.58,0 6.49,2.91 6.49,6.5 z" />
  <path
     id="path80"
     class="s4"
     d="m -957.45,-404.77008 c 0,3.58 -2.9,6.49 -6.49,6.49 -3.58,0 -6.49,-2.91 -6.49,-6.49 0,-3.59 2.91,-6.49 6.49,-6.49 3.59,0 6.49,2.9 6.49,6.49 z" />
  <path
     id="path81"
     class="s4"
     d="m -986.27,-408.76008 c 0,3.59 -2.91,6.49 -6.49,6.49 -3.59,0 -6.49,-2.9 -6.49,-6.49 0,-3.58 2.9,-6.49 6.49,-6.49 3.58,0 6.49,2.91 6.49,6.49 z" />
  <path
     id="path82"
     class="s4"
     d="m -846.18,-401.69008 c 0,3.59 -2.91,6.49 -6.5,6.49 -3.58,0 -6.49,-2.9 -6.49,-6.49 0,-3.59 2.91,-6.49 6.49,-6.49 3.59,0 6.5,2.9 6.5,6.49 z" />
  <path
     id="path83"
     class="s4"
     d="m -845.43,-432.74008 c 0,3.59 -2.9,6.5 -6.49,6.5 -3.58,0 -6.49,-2.91 -6.49,-6.5 0,-3.58 2.91,-6.49 6.49,-6.49 3.59,0 6.49,2.91 6.49,6.49 z" />
  <path
     id="path84"
     class="s4"
     d="m -815.64,-442.07008 c 0,3.58 -2.91,6.49 -6.49,6.49 -3.59,0 -6.5,-2.91 -6.5,-6.49 0,-3.59 2.91,-6.5 6.5,-6.5 3.58,0 6.49,2.91 6.49,6.5 z" />
  <path
     id="path85"
     class="s4"
     d="m -780.8,-440.26008 c 0,3.58 -2.9,6.49 -6.49,6.49 -3.58,0 -6.49,-2.91 -6.49,-6.49 0,-3.59 2.91,-6.49 6.49,-6.49 3.59,0 6.49,2.9 6.49,6.49 z" />
  <path
     id="path86"
     class="s4"
     d="m -781.31,-407.49008 c 0,3.58 -2.91,6.49 -6.5,6.49 -3.58,0 -6.49,-2.91 -6.49,-6.49 0,-3.59 2.91,-6.5 6.49,-6.5 3.59,0 6.5,2.91 6.5,6.5 z" />
  <path
     id="path87"
     class="s4"
     d="m -812.36,-397.65008 c 0,3.58 -2.91,6.49 -6.49,6.49 -3.59,0 -6.49,-2.91 -6.49,-6.49 0,-3.59 2.9,-6.49 6.49,-6.49 3.58,0 6.49,2.9 6.49,6.49 z" />
  <path
     id="path88"
     class="s4"
     d="m -973.69,-453.85008 c 0,0 70.54,5.66 118.43,-1.55" />
  <path
     id="path89"
     class="s4"
     d="m -425.22,-549.61008 -64.42001,-21.08" />
  <path
     id="path90"
     class="s4"
     d="m -416.87,-564.72008 -47.72001,-52.89" />
  <path
     id="path91"
     class="s4"
     d="m -398.58,-576.26008 -20.28,-55.27" />
  <path
     id="path92"
     class="s1"
     d="m -947.75,-1120.2601 -24.57,-24.57" />
  <path
     id="path93"
     class="s1"
     d="m -936.65,-1133.7201 -24.57,-24.57" />
  <path
     id="path94"
     class="s1"
     d="m -925.55,-1147.9001 -24.57,-24.56" />
  <path
     id="path95"
     class="s1"
     d="m -906.42,-1167.0301 -24.56,-24.57" />
  <path
     id="path96"
     class="s1"
     d="m -880.44,-1191.1201 -24.57,-24.57" />
  <path
     id="path97"
     class="s1"
     d="m -893.9,-1179.5401 -24.57,-24.57" />
  <path
     id="path98"
     class="s1"
     d="m -931.98,-1173.5201 c 2.26,-2.25 5.92,-2.25 8.17,0 2.26,2.26 2.26,5.92 0,8.18 -2.25,2.25 -5.91,2.25 -8.17,0 -2.25,-2.26 -2.25,-5.92 0,-8.18 z" />
  <path
     id="path99"
     class="s0"
     d="m 1557.11,-1171.3701 c -55.98,29.13 -86.59,81.14 -68.36,116.16 18.23,35.03 78.38,39.8 134.36,10.67 55.98,-29.13 86.59,-81.14 68.36,-116.16 -18.22,-35.03 -78.38,-39.8 -134.36,-10.67 z" />
  <path
     id="path100"
     class="s2"
     d="m 1691.47,-1160.7001 c -9.62,-18.5 -62.8,-9.87 -118.78,19.26 -55.99,29.13 -93.57,67.74 -83.94,86.23" />
  <path
     id="path101"
     class="s1"
     d="m 1621.11,-1148.6901 -12.07,-23.2" />
  <path
     id="path102"
     class="s1"
     d="m 1608.93,-1143.7701 -12.07,-23.2" />
  <path
     id="path103"
     class="s1"
     d="m 1596.25,-1139.0101 -12.07,-23.2" />
  <path
     id="path104"
     class="s1"
     d="m 1578.19,-1129.6101 -12.08,-23.2" />
  <path
     id="path105"
     class="s1"
     d="m 1555.01,-1116.4201 -12.07,-23.2" />
  <path
     id="path106"
     class="s1"
     d="m 1566.37,-1123.4601 -12.08,-23.2" />
  <path
     id="path107"
     class="s1"
     d="m 1579.32,-1149.4301 c -2.13,1.11 -2.96,3.74 -1.85,5.87 1.1,2.13 3.73,2.96 5.86,1.85 2.13,-1.11 2.96,-3.74 1.85,-5.87 -1.11,-2.13 -3.73,-2.96 -5.86,-1.85 z" />
  <path
     id="path108"
     class="s0"
     d="m 1195.15,-1184.3001 c -19.9,-53.23 -63.03,-86.29 -96.33,-73.84 -33.3,12.45 -44.17,65.7 -24.27,118.93 19.9,53.23 63.03,86.29 96.33,73.84 33.3,-12.45 44.17,-65.7 24.27,-118.93 z" />
  <path
     id="path109"
     class="s2"
     d="m 1170.88,-1065.3701 c 17.59,-6.58 15.71,-55.06 -4.19,-108.29 -19.9,-53.23 -50.29,-91.05 -67.87,-84.48" />
  <path
     id="path110"
     class="s1"
     d="m 1167.86,-1129.5801 22.06,-8.25" />
  <path
     id="path111"
     class="s1"
     d="m 1164.8,-1141.0001 22.06,-8.25" />
  <path
     id="path112"
     class="s1"
     d="m 1161.94,-1152.8601 22.05,-8.25" />
  <path
     id="path113"
     class="s1"
     d="m 1155.51,-1170.0401 22.06,-8.25" />
  <path
     id="path114"
     class="s1"
     d="m 1146.26,-1192.2001 22.06,-8.25" />
  <path
     id="path115"
     class="s1"
     d="m 1151.31,-1181.2801 22.06,-8.24" />
  <path
     id="path116"
     class="s1"
     d="m 1173.1,-1166.8601 c -0.76,-2.02 -3.01,-3.05 -5.04,-2.29 -2.02,0.75 -3.05,3.01 -2.29,5.04 0.75,2.02 3.01,3.05 5.03,2.29 2.03,-0.76 3.06,-3.01 2.3,-5.04 z" />
  <path
     id="path125"
     class="s1"
     d="m -1422.65,-1223.1901 c 0,0 -0.12,10.96 7.52,12.55 7.65,1.59 29.94,-2.7 39.81,6.05 8.28,-7.32 29.3,-4.14 37.11,-6.53 7.8,-2.38 10.03,-4.93 10.67,-11.46" />
  <g
     id="g351"
     transform="translate(1424.95,-647.81979)">
    <path
       id="path126"
       class="s0"
       d="m -3425.3897,783.11862 v 59.56537" />
    <path
       id="path127"
       class="s1"
       d="m -3425.3897,706.87173 v 76.24689" />
    <path
       id="path128"
       class="s0"
       d="m -3352.349,783.11862 v 59.56537" />
    <path
       id="path129"
       class="s1"
       d="m -3352.349,672.32362 v 110.795" />
    <path
       id="path130"
       class="s0"
       d="m -3279.316,783.11862 v 59.56537" />
    <path
       id="path131"
       class="s1"
       d="m -3279.316,672.32362 v 110.795" />
    <path
       id="path132"
       class="s0"
       d="m -3206.2753,783.11862 v 59.56537" />
    <path
       id="path133"
       class="s1"
       d="m -3206.2753,706.87173 v 76.24689" />
    <path
       id="path134"
       class="s2"
       d="m -3425.3897,839.55056 h 219.1144" />
    <path
       id="path135"
       class="s1"
       d="m -3279.316,842.68399 26.8045,65.73181 h -126.1851 l 26.3476,-65.73181" />
  </g>
  <g
     id="g352"
     transform="translate(-2006.4397,21.503829)">
    <path
       id="path117"
       class="s0"
       d="m 556.7097,116.86609 c 16.73,-29.28 45.16,-44.53 63.48,-34.06 18.32,10.47 19.6,42.7 2.86,71.99 -16.74,29.28 -45.16,44.53 -63.48,34.06 -18.32,-10.47 -19.6,-42.7 -2.86,-71.99 z" />
    <path
       id="path118"
       class="s2"
       d="m 559.5697,188.85609 c -9.68,-5.53 -3.95,-33.75 12.79,-63.04 16.74,-29.28 38.15,-48.54 47.83,-43.01" />
    <path
       id="path119"
       class="s1"
       d="m 567.4697,151.52609 -12.14,-6.94" />
    <path
       id="path120"
       class="s1"
       d="m 570.3497,145.12609 -12.13,-6.93" />
    <path
       id="path121"
       class="s1"
       d="m 573.1597,138.45609 -12.13,-6.94" />
    <path
       id="path122"
       class="s1"
       d="m 578.5597,129.00609 -12.13,-6.94" />
    <path
       id="path123"
       class="s1"
       d="m 586.0997,116.90609 -12.14,-6.94" />
    <path
       id="path124"
       class="s1"
       d="m 582.0997,122.82609 -12.14,-6.94" />
    <path
       id="path136"
       class="s0"
       d="m 494.6797,138.19609 v 82.74" />
    <path
       id="path137"
       class="s1"
       d="m 494.6797,32.30609 v 105.89" />
    <path
       id="path138"
       class="s0"
       d="m 588.9897,187.94609 v 32.99" />
    <path
       id="path139"
       class="s1"
       d="m 588.9897,-15.68391 v 99.12" />
    <path
       id="path140"
       class="s0"
       d="m 683.2897,138.19609 v 82.74" />
    <path
       id="path141"
       class="s1"
       d="m 683.2897,-15.68391 v 153.88" />
    <path
       id="path142"
       class="s0"
       d="m 777.5997,138.19609 v 82.74" />
    <path
       id="path143"
       class="s1"
       d="m 777.5997,32.30609 v 105.89" />
    <path
       id="path144"
       class="s2"
       d="m 494.6797,217.71609 h 282.92" />
    <path
       id="path145"
       class="s1"
       d="m 683.2897,218.09609 34.62,45.29 h -162.94 l 34.02,-45.29" />
  </g>
  <g
     id="g353"
     transform="translate(-1517.76,2.8199191)">
    <path
       id="path146"
       class="s2"
       d="m 641.91,153.3 c -4.76,4.76 -12.48,4.76 -17.24,0 -4.76,-4.76 -4.76,-12.48 0,-17.24 4.76,-4.76 12.48,-4.76 17.24,0 4.76,4.76 4.76,12.48 0,17.24 z" />
    <path
       id="path147"
       class="s2"
       d="m 634.97,10.94 c -2.35,29.36 -18.01,62.31 -45.26,89.56 -27.64,27.63 -61.13,43.35 -90.79,45.35" />
    <path
       id="path148"
       class="s2"
       d="m 767.84,143.81 c -29.36,2.35 -62.31,18.01 -89.56,45.26 -27.64,27.64 -43.35,61.13 -45.35,90.79" />
    <path
       id="path149"
       class="s2"
       d="M 535.6,35.19 548.65,48.25 536.8,60.1 523.75,47.04" />
    <path
       id="path150"
       class="s2"
       d="m 742.78,242.37 -13.06,-13.05 -11.85,11.85 13.06,13.05" />
    <path
       id="path151"
       class="s0"
       d="m 548.09,229.88 c 50.97,50.98 122.57,64.48 171.25,35.83 l 34.68,-34.47 C 783.07,182.55 769.64,110.63 718.49,59.47 667.34,8.32 595.42,-5.1 546.73,23.95 l -34.47,34.67 c -28.65,48.69 -15.15,120.29 35.83,171.26 z" />
    <path
       id="path152"
       class="s2"
       d="m 633.29,201.23 -56.55,-56.55 56.55,-56.55 56.55,56.55 z" />
  </g>
  <path
     id="path153"
     class="s2"
     d="m -1726.01,-634.80008 c -4.66,58.36 -35.81,123.87 -89.99,178.06 -54.94,54.94 -121.52,86.19 -180.5,90.16" />
  <path
     id="path154"
     class="s2"
     d="m -1923.57,-586.59008 25.95,25.96 -23.56,23.56 -25.95,-25.96" />
  <path
     id="path155"
     class="s0"
     d="m -1712.83,-628.76008 c -67.13,-18.25 -134.96,-12.18 -188.6,19.82 l -68.54,68.94 c -31.29,53.17 -37.3,120.09 -19.55,186.41" />
  <path
     id="path156"
     class="s2"
     d="m -1825.47,-352.60008 -16.31,-16.31 112.43,-112.43 17.92,17.92" />
  <g
     id="g354"
     transform="translate(-1026.3518,5.6135971)">
    <path
       id="path157"
       class="s2"
       d="m 638.00184,148.72632 c -4.9,2.66 -12.83,2.66 -17.72,0 -4.89,-2.66 -4.89,-6.97 0,-9.63 4.89,-2.65 12.82,-2.65 17.72,0 4.89,2.66 4.89,6.97 0,9.63 z" />
    <path
       id="path158"
       class="s2"
       d="m 630.86184,69.236322 c -2.41,16.39 -18.5,34.789998 -46.5,50.009998 -28.4,15.43 -62.81,24.21 -93.29,25.32" />
    <path
       id="path159"
       class="s2"
       d="m 767.39184,143.42632 c -30.17,1.31 -64.02,10.06 -92.03,25.28 -28.39,15.43 -44.54,34.13 -46.59,50.69" />
    <path
       id="path160"
       class="s2"
       d="m 528.76184,82.776322 13.41,7.29 -12.17,6.62 -13.42,-7.29" />
    <path
       id="path161"
       class="s2"
       d="m 741.64184,198.46632 -13.42,-7.29 -12.17,6.61 13.41,7.29" />
    <path
       id="path162"
       class="s0"
       d="m 541.59184,191.48632 c 52.38,28.47 125.95,36.01 175.97,20.01 l 35.63,-19.25 c 29.84,-27.19 16.05,-67.35 -36.5,-95.909998 -52.56,-28.56 -126.46,-36.05 -176.49,-19.83 l -35.42,19.36 c -29.44,27.179998 -15.57,67.159998 36.81,95.619998 z" />
    <path
       id="path163"
       class="s2"
       d="m 629.14184,175.48632 -58.11,-31.57 58.11,-31.58 58.1,31.58 z" />
  </g>
  <path
     id="path164"
     class="s0"
     d="m 169.91996,-1122.1701 c 5.54,5.54 24.76,3.95 37.59,-8.88 12.83,-12.83 14.21,-32.26 8.88,-37.59 -5.33,-5.33 -24.77,-3.96 -37.6,8.87 -12.83,12.83 -14.41,32.05 -8.87,37.6 z" />
  <path
     id="path165"
     class="s4"
     d="m -295.02,-1143.9901 q 0.73,-0.07 1.49,-0.08 -0.76,-0.02 -1.49,-0.09" />
  <path
     id="path166"
     class="s10"
     d="m -305.36,-1149.2301 c -13.75,-14.65 -9.96,-57.39 -26.27,-87.38 -12.32,-22.65 -30.74,-28.82 -60.84,-28.82 -30.09,0 -48.51,6.17 -60.83001,28.82 -17.94,32.98 -11.57,81.38 -30.95,90.89" />
  <path
     id="path167"
     class="s4"
     d="m -489.91001,-1144.1601 q -0.73,0.07 -1.5,0.09 0.77,0.01 1.5,0.08" />
  <path
     id="path168"
     class="s10"
     d="m -479.58001,-1138.9201 c 13.76,14.65 9.97,57.39 26.28,87.38 12.32001,22.65 30.74001,28.82 60.83001,28.82 30.1,0 48.52,-6.17 60.84,-28.82 17.94,-32.98 11.56,-81.38 30.95,-90.89" />
  <path
     id="path170"
     class="s5"
     d="m -370.31,-1124.3201 h -45.15" />
  <path
     id="path171"
     class="s5"
     d="m -370.31,-1050.7001 h -45.15" />
  <path
     id="path172"
     class="s5"
     d="m -370.31,-1087.5101 h -45.15" />
  <path
     id="path173"
     class="s5"
     d="m -370.31,-1237.9001 h -45.15" />
  <path
     id="path174"
     class="s5"
     d="m -370.31,-1164.2901 h -45.15" />
  <path
     id="path175"
     class="s5"
     d="m -370.31,-1201.1001 h -45.15" />
  <path
     id="path176"
     class="s3"
     d="m 1068.23,287.40992 c 28.68,0.23 58.29,-1.82 82.99,-8.75 0,-55.93 0,-150.81 0,-156.81 0,-5.99 6.99,-20.97 8.99,-25.960001 -7.99,-20.98 -9.99,-47.95 -5,-68.92 -20.97,-10.99 -52.93,-20.9699999 -52.93,-20.9699999 0,0 -14.98,14.9799999 -33.96,14.9799999 -18.98,0 -33.96,-14.9799999 -33.96,-14.9799999 0,0 -31.96,9.9799999 -52.93001,20.9699999 4.99,20.97 2.99,47.94 -5,68.92 2,4.990001 8.99,19.970001 8.99,25.960001 0,6 0,100.88 0,156.81 24.70001,6.93 54.12001,8.98 82.81001,8.75 z" />
  <path
     id="path177"
     class="s4"
     d="m 1105.12,9.2399191 c -6.73,12.5599999 -19.72,32.5599999 -37.61,32.5599999 -18.04,0 -29.26,-20 -35.98,-32.5599999" />
  <path
     id="path178"
     class="s4"
     d="M 985.73999,155.65992 H 1151.32" />
  <path
     id="path179"
     class="s4"
     d="M 985.73999,183.81992 H 1151.32" />
  <path
     id="path180"
     class="s4"
     d="M 985.73999,194.30992 H 1151.32" />
  <path
     id="path181"
     class="s4"
     d="M 985.73999,222.46992 H 1151.32" />
  <path
     id="path182"
     class="s4"
     d="m 1040.14,69.379919 c 0,5 -8.12,9.06 -18.14,9.06 -10.01,0 -18.13,-4.06 -18.13,-9.06 0,-5.01 8.12,-9.07 18.13,-9.07 10.02,0 18.14,4.06 18.14,9.07 z" />
  <path
     id="path183"
     class="s4"
     d="m 1113.62,84.169919 c 0,0 -12.4,-10.4 -10.97,-20.42 6.2,-2.38 19.07,-0.83 22.41,0.6 -1.44,6.68 -4.44,14.99 -11.44,19.82 z" />
  <path
     id="path189"
     class="s3"
     d="m 584.46999,287.40992 c -28.69,0.23 -58.3,-1.82 -83,-8.75 0,-55.93 0,-150.81 0,-156.81 0,-5.99 -6.99,-20.97 -8.99,-25.960001 8,-20.98 9.99,-47.95 5,-68.92 20.97,-10.99 52.93,-20.9699999 52.93,-20.9699999 0,0 14.99,14.9799999 33.96,14.9799999 18.98,0 33.96,-14.9799999 33.96,-14.9799999 0,0 31.96,9.9799999 52.94,20.9699999 -5,20.97 -3,47.94 4.99,68.92 -2,4.990001 -8.99,19.970001 -8.99,25.960001 0,6 0,100.88 0,156.81 -24.7,6.93 -54.12,8.98 -82.8,8.75 z" />
  <path
     id="path190"
     class="s3"
     d="m 1546.15,287.40992 c 28.69,0.23 58.3,-1.82 82.99,-8.75 0,-55.93 0,-150.81 0,-156.81 0,-5.99 7,-20.97 8.99,-25.960001 -7.99,-20.98 -9.98,-47.95 -4.99,-68.92 -20.98,-10.99 -52.94,-20.9699999 -52.94,-20.9699999 0,0 -14.98,14.9799999 -33.95,14.9799999 -18.98,0 -33.96,-14.9799999 -33.96,-14.9799999 0,0 -31.96,9.9799999 -52.94,20.9699999 5,20.97 3,47.94 -4.99,68.92 2,4.990001 8.99,19.970001 8.99,25.960001 0,6 0,100.88 0,156.81 24.69,6.93 54.12,8.98 82.8,8.75 z" />
  <path
     id="path191"
     class="s4"
     d="m 1463.66,155.65992 h 165.59" />
  <path
     id="path192"
     class="s4"
     d="m 1463.66,183.81992 h 165.59" />
  <path
     id="path193"
     class="s4"
     d="m 1463.66,194.30992 h 165.59" />
  <path
     id="path194"
     class="s4"
     d="m 1463.66,222.46992 h 165.59" />
  <path
     id="path195"
     class="s3"
     d="M 1554.98,162.61992 V 61.589919 l -31.33,77.540001 h 44.64" />
  <path
     id="path196"
     class="s4"
     d="m 501.55999,63.469919 c 0,0 75.16,132.590001 166.63,180.100001" />
  <path
     id="path197"
     class="s4"
     d="m 538.42999,15.969919 c 0,0 46.09,102.100001 128.34,168.750001" />
  <g
     id="g355"
     transform="translate(-542.65071,67.574129)">
    <path
       id="path198"
       class="s3"
       d="m 640.44067,219.83579 c 28.69,0.23 58.3,-1.82 82.99,-8.75 0,-55.93 0,-150.810002 0,-156.810002 0,-5.99 7,-20.969998 8.99,-25.959998 -7.99,-20.98 -9.98,-47.95 -4.99,-68.92 -20.98,-10.99 -52.94,-20.97 -52.94,-20.97 0,0 -14.98,14.98 -33.95,14.98 -18.98,0 -33.96,-14.98 -33.96,-14.98 0,0 -31.96,9.98 -52.94,20.97 5,20.97 3,47.94 -4.99,68.92 2,4.99 8.99,19.969998 8.99,25.959998 0,6 0,100.880002 0,156.810002 24.69,6.93 54.12,8.98 82.8,8.75 z" />
    <path
       id="path199"
       class="s4"
       d="m 677.33067,-58.33421 c -6.72,12.56 -19.71,32.56 -37.61,32.56 -18.04,0 -29.26,-20 -35.98,-32.56" />
    <path
       id="path200"
       class="s4"
       d="m 612.35067,1.80579 c 0,5 -8.12,9.06 -18.13,9.06 -10.02,0 -18.13,-4.06 -18.13,-9.06 0,-5.01 8.11,-9.07 18.13,-9.07 10.01,0 18.13,4.06 18.13,9.07 z" />
    <path
       id="path201"
       class="s4"
       d="m 685.84067,16.59579 c 0,0 -12.41,-10.4 -10.98,-20.42 6.21,-2.38 19.07,-0.83 22.41,0.6 -1.43,6.68 -4.43,14.99 -11.43,19.82 z" />
    <path
       id="path202"
       class="s4"
       d="m 723.34067,-4.10421 c 0,0 -75.15,132.59 -166.62,180.1" />
    <path
       id="path203"
       class="s4"
       d="m 686.47067,-51.60421 c 0,0 -46.08,102.099998 -128.33,168.75" />
  </g>
  <path
     id="path204"
     class="s6"
     d="M 710.37999,-412.06008 H 447.35996 c -6.6,0 -12,-5.4 -12,-12 v -184.12 c 0,-6.6 5.4,-12 12,-12 h 263.02003 c 6.6,0 12,5.4 12,12 v 184.12 c 0,6.6 -5.4,12 -12,12 z" />
  <path
     id="path205"
     class="s6"
     d="m 686.26999,-411.04008 v 9.31 c 0,5.14 -4.21,9.35 -9.35,9.35 h -196.1 c -5.15,0 -9.35,-4.21 -9.35,-9.35 v -9.72" />
  <path
     id="path206"
     class="s6"
     d="m 495.23999,-363.83008 v -30.78" />
  <path
     id="path207"
     class="s6"
     d="m 519.21999,-394.61008 v 30.78" />
  <path
     id="path208"
     class="s6"
     d="m 636.23999,-363.83008 v -30.78" />
  <path
     id="path209"
     class="s6"
     d="m 660.20999,-394.61008 v 30.78" />
  <path
     id="path210"
     class="s2"
     d="m 1163.96,-497.50008 c -12.53,20.82 -50.6,35.95 -95.63,35.95 -45.04,0 -83.14001,-15.15 -95.64001,-35.98" />
  <path
     id="path211"
     class="s2"
     d="m 968.65999,-516.46008 c 4.05,-26.19 47.13001,-46.81 99.67001,-46.81 52.15,0 94.98,20.31 99.58,46.22" />
  <path
     id="path212"
     class="s2"
     d="m 977.10999,-516.87008 c 15.03,-18.42 50.73001,-31.37 92.38001,-31.37 41.51,0 77.11,12.86 92.23,31.18" />
  <path
     id="path213"
     class="s2"
     d="m 977.81999,-490.56008 c 15.43,-17.97 50.67001,-30.52 91.67001,-30.52 39.83,0 74.23,11.85 90.3,29" />
  <path
     id="path214"
     class="s0"
     d="m 1202.79,-512.41008 c 0,41.46 -60.2,75.08 -134.46,75.08 -74.25001,0 -134.45001,-33.62 -134.45001,-75.08 0,-41.46 60.2,-75.07 134.45001,-75.07 74.26,0 134.46,33.61 134.46,75.07 z" />
  <path
     id="path215"
     class="s0"
     d="m 1202.79,-512.41008 v 33.59 c 0,41.46 -60.2,75.07 -134.46,75.07 -74.25001,0 -134.45001,-33.61 -134.45001,-75.07 v -33.59" />
  <path
     id="path216"
     class="s0"
     d="m 1202.79,-478.82008 v 33.58 c 0,41.46 -60.2,75.08 -134.46,75.08 -74.25001,0 -134.45001,-33.62 -134.45001,-75.08 v -33.58" />
  <path
     id="path217"
     class="s2"
     d="m 1068.33,-461.55008 v 91.39" />
  <path
     id="path218"
     class="s2"
     d="m 1153.88,-386.35008 v -67.1 l -17.34,-22.55" />
  <path
     id="path219"
     class="s2"
     d="m 1170.99,-512.41008 h 31.8" />
  <path
     id="path220"
     class="s2"
     d="m 1144.38,-544.69008 -24.6,29.97" />
  <path
     id="path221"
     class="s2"
     d="m 1155.03,-573.67008 -19.65,22.54" />
  <path
     id="path222"
     class="s2"
     d="m 982.78999,-386.35008 v -67.1 l 17.34001,-22.55" />
  <path
     id="path223"
     class="s4"
     d="m 972.54999,-378.34008 v -119.83 h -4.88 l -0.35,-18.42 h 22.13 l -11.98,18.42 h -4.92" />
  <path
     id="path224"
     class="s4"
     d="m 1164.97,-378.34008 v -119.83 h -4.88 l -9.94,-18.9 h 22.13 l -2.39,18.9 h -4.92" />
  <path
     id="path225"
     class="s4"
     d="m 1123.96,-583.63008 v -15.69 h -4.87 l -9.94,-18.9 h 22.12 l -2.38,18.9 h -4.93" />
  <path
     id="path226"
     class="s4"
     d="m 1202.26,-522.56008 v -41.14 h -3.19 l -2.23,-18.89 h 10.2 l -2.39,18.89 h -2.39" />
  <path
     id="path227"
     class="s4"
     d="m 1011.76,-583.63008 v -15.69 h 4.87 l 9.94,-18.9 h -22.12 l 2.38,18.9 h 4.93" />
  <path
     id="path228"
     class="s4"
     d="m 934.76999,-522.56008 v -41.14 h 3.19 l 2.23,-18.89 h -10.2 l 2.38,18.89 h 2.4" />
  <path
     id="path229"
     class="s2"
     d="m 966.74999,-512.41008 h -32.87" />
  <path
     id="path230"
     class="s2"
     d="m 991.52999,-545.21008 25.36001,31.65" />
  <path
     id="path231"
     class="s2"
     d="m 981.63999,-573.67008 19.65001,22.54" />
  <path
     id="path232"
     class="s2"
     d="m 1068.33,-589.86008 v 68.84" />
  <path
     id="path233"
     class="s0"
     d="m 93.569956,-355.46008 c -16.42,0 -48.99,-3.16 -55.9,-4.02 0,-5.33 0.81,-9.77 0.81,-9.77 0,0 31.14,-17.52 31.14,-51.69 0,-22.39 -13.41,-42.79 -26.71,-46.78 -5.32,-16.85 -32.37,-139.67 -33.7000002,-146.32 -1.33,-6.65 0,-19.95 17.7400002,-22.17 17.73,-2.21 34,-3.99 67.26,-3.99 33.250004,0 45.670004,1.78 63.400004,3.99 17.74,2.22 19.07,15.52 17.74,22.17 -1.33,6.65 -28.38,129.47 -33.7,146.32 -13.3,3.99 -26.71,24.39 -26.71,46.78 0,34.17 31.14,51.69 31.14,51.69 0,0 0.81,4.44 0.81,9.77 -6.91,0.86 -36.9,4.02 -53.320004,4.02 z" />
  <path
     id="path234"
     class="s2"
     d="M 69.619956,-423.51008 H 114.93996" />
  <path
     id="path235"
     class="s2"
     d="M 41.519956,-471.81008 H 143.03996" />
  <path
     id="path236"
     class="s5"
     d="m 41.959956,-601.90008 c 25.18,-10.28 64.230004,-9.76 97.120004,-0.52" />
  <path
     id="path237"
     class="s5"
     d="m 49.299956,-585.51008 c 21.37,-8.73 54.520004,-8.29 82.440004,-0.44" />
  <path
     id="&lt;Compound Path&gt;"
     class="s7"
     d="m 153.70996,-532.84008 c -3.03,0.09 -5.42,2.53 -5.33,5.43 q 0.01,0.37 0.09,1.08 c -0.87,-0.04 -1.76,0.1 -2.61,0.49 h -0.01 c -1.28,0.59 -2.29,1.62 -2.83,2.89 -0.57,1.36 -0.56,2.88 0.04,4.19 0.15,0.32 0.47,0.9 0.88,1.6 q -0.39,0.11 -0.77,0.27 c -2.75,1.27 -4,4.44 -2.79,7.08 0.37,0.8 1.78,3.15 3.15,5.18 q -0.3,0.09 -0.58,0.21 c -2.75,1.26 -4.01,4.44 -2.8,7.08 0.4,0.86 1.99,3.5 3.44,5.61 q 0.12,0.18 0.24,0.36 c -2.57,1.34 -3.72,4.39 -2.54,6.95 0.24,0.53 0.94,1.74 1.78,3.08 -0.96,-0.08 -1.94,0.08 -2.84,0.49 l -3.36,-2.87 -5.67,-2.72 -5.18,5.91 c -0.32,-1.35 -1.15,-2.53 -2.31,-3.32 -0.85,-0.58 -1.79,-0.87 -2.74,-0.95 1.06,-1.19 1.95,-2.27 2.28,-2.75 0.81,-1.19 1.08,-2.7 0.74,-4.13 -0.3,-1.25 -1.05,-2.35 -2.1,-3.14 q 0.16,-0.16 0.31,-0.32 c 1.79,-1.85 3.79,-4.19 4.32,-4.97 0.81,-1.19 1.08,-2.69 0.73,-4.12 -0.32,-1.35 -1.14,-2.53 -2.31,-3.32 q -0.26,-0.17 -0.54,-0.3 c 1.69,-1.77 3.47,-3.86 3.97,-4.59 0.81,-1.19 1.07,-2.69 0.73,-4.12 -0.32,-1.35 -1.14,-2.53 -2.31,-3.32 q -0.35,-0.23 -0.71,-0.39 c 0.52,-0.63 0.93,-1.15 1.13,-1.44 1.64,-2.4 0.93,-5.74 -1.57,-7.45 h -0.01 c -0.91,-0.62 -1.97,-0.95 -3.05,-0.97 0.04,-0.64 0.06,-1.17 0.06,-1.47 -0.05,-1.44 -0.72,-2.81 -1.83,-3.77 -1.05,-0.89 -2.38,-1.37 -3.83,-1.32 -3.02,0.09 -5.42,2.53 -5.33,5.43 q 0.02,0.37 0.1,1.08 c -0.87,-0.04 -1.77,0.09 -2.62,0.49 -1.28,0.59 -2.29,1.61 -2.83,2.89 -0.58,1.35 -0.56,2.88 0.04,4.19 0.15,0.32 0.47,0.9 0.88,1.6 q -0.39,0.1 -0.77,0.27 c -2.75,1.26 -4,4.44 -2.79,7.08 0.37,0.8 1.77,3.15 3.14,5.18 q -0.29,0.09 -0.58,0.21 c -2.75,1.26 -4,4.44 -2.79,7.07 0.4,0.86 1.98,3.5 3.43,5.62 q 0.13,0.17 0.25,0.36 c -2.57,1.33 -3.72,4.39 -2.54,6.95 0.24,0.52 0.94,1.73 1.78,3.08 -0.96,-0.08 -1.94,0.07 -2.85,0.49 -1.28,0.59 -2.29,1.62 -2.83,2.89 l -8.690004,-4.17 -8.69,4.17 c -0.54,-1.27 -1.55,-2.3 -2.83,-2.89 -0.91,-0.42 -1.88,-0.57 -2.84,-0.49 0.84,-1.35 1.53,-2.56 1.78,-3.08 1.17,-2.56 0.03,-5.62 -2.55,-6.95 q 0.13,-0.19 0.25,-0.36 c 1.45,-2.12 3.04,-4.76 3.43,-5.62 1.21,-2.63 -0.04,-5.81 -2.79,-7.07 q -0.29,-0.12 -0.58,-0.21 c 1.37,-2.03 2.78,-4.38 3.14,-5.18 1.22,-2.64 -0.04,-5.82 -2.79,-7.08 q -0.38,-0.17 -0.77,-0.27 c 0.42,-0.7 0.74,-1.28 0.88,-1.6 0.61,-1.31 0.62,-2.84 0.04,-4.19 -0.54,-1.28 -1.54,-2.3 -2.83,-2.89 -0.85,-0.4 -1.74,-0.53 -2.61,-0.49 q 0.08,-0.71 0.09,-1.08 c 0.09,-2.9 -2.3,-5.34 -5.33,-5.43 -1.44,-0.05 -2.77,0.43 -3.82,1.32 -1.12,0.96 -1.79,2.33 -1.83,3.77 -0.01,0.3 0.01,0.83 0.05,1.47 -1.07,0.02 -2.13,0.35 -3.05,0.97 -2.5,1.71 -3.21,5.05 -1.58,7.45 0.2,0.29 0.61,0.81 1.14,1.44 q -0.37,0.16 -0.71,0.39 h -0.01 c -1.16,0.79 -1.99,1.97 -2.31,3.32 -0.34,1.43 -0.07,2.93 0.74,4.12 0.49,0.73 2.27,2.82 3.96,4.59 q -0.27,0.13 -0.54,0.3 c -1.17,0.79 -1.99,1.97 -2.31,3.32 -0.34,1.43 -0.07,2.93 0.74,4.12 0.53,0.78 2.53,3.12 4.31,4.97 q 0.16,0.16 0.31,0.32 c -1.04,0.79 -1.79,1.89 -2.09,3.14 -0.35,1.43 -0.08,2.94 0.73,4.13 0.33,0.48 1.22,1.56 2.28,2.75 -0.94,0.08 -1.89,0.37 -2.73,0.95 -1.17,0.79 -1.99,1.97 -2.31,3.32 l -5.18,-5.91 -5.67,2.72 -3.36,2.87 c -0.91,-0.41 -1.89,-0.57 -2.85,-0.49 0.84,-1.34 1.54,-2.55 1.78,-3.08 1.18,-2.56 0.04,-5.61 -2.54,-6.95 q 0.13,-0.18 0.25,-0.36 c 1.45,-2.11 3.03,-4.75 3.43,-5.61 1.21,-2.64 -0.04,-5.82 -2.79,-7.08 q -0.29,-0.12 -0.58,-0.21 c 1.37,-2.03 2.77,-4.38 3.14,-5.18 1.21,-2.64 -0.04,-5.81 -2.79,-7.08 q -0.38,-0.16 -0.77,-0.27 c 0.42,-0.7 0.73,-1.28 0.88,-1.6 0.6,-1.31 0.62,-2.83 0.04,-4.19 -0.54,-1.27 -1.54,-2.3 -2.83,-2.89 -0.85,-0.39 -1.75,-0.53 -2.62,-0.49 q 0.09,-0.71 0.1,-1.08 c 0.09,-2.9 -2.3,-5.34 -5.33,-5.43" />
  <path
     id="path238"
     class="s2"
     d="m 157.12996,-520.18008 c 33.07,-11.4 66.33,-50.55 75.83,-98.83 -4.75,-5.32 -24.51,-21.29 -24.51,-21.29 0,0 -13.69,11.59 -33.83,8.36" />
  <path
     id="path239"
     class="s2"
     d="m 173.65996,-597.34008 c 5.89,-0.76 11.41,-9.32 13.5,-14.45 2.09,-5.13 6.27,-13.68 13.11,-13.49 6.84,0.19 18.63,15.77 7.61,38.58 -11.03,22.81 -27.56,44.1 -47.14,46.38" />
  <path
     id="path240"
     class="s2"
     d="m 27.319956,-520.18008 c -33.0700002,-11.4 -66.33996,-50.55 -75.83996,-98.83 4.75,-5.32 24.51996,-21.29 24.51996,-21.29 0,0 13.68,11.59 33.8299998,8.36" />
  <path
     id="path241"
     class="s2"
     d="m 10.779956,-597.34008 c -5.8900002,-0.76 -11.40000016,-9.32 -13.4900002,-14.45 -2.09,-5.13 -6.28,-13.68 -13.1199998,-13.49 -6.84,0.19 -18.61996,15.77 -7.6,38.58 11.02,22.81 27.5599998,44.1 47.14,46.38" />
  <path
     id="path242"
     class="s7"
     d="m 475.65999,-529.98008 v -16.12" />
  <path
     id="path243"
     class="s7"
     d="m 475.65999,-548.49008 v -16.13" />
  <path
     id="path244"
     class="s7"
     d="m 490.30999,-565.57008 h 16.13" />
  <path
     id="path245"
     class="s7"
     d="m 490.30999,-547.35008 h 16.13" />
  <path
     id="path246"
     class="s7"
     d="m 490.30999,-529.12008 h 16.13" />
  <path
     id="path247"
     class="s7"
     d="m 508.04999,-529.98008 v -16.12" />
  <path
     id="path248"
     class="s7"
     d="m 508.04999,-548.49008 v -16.13" />
  <path
     id="path249"
     class="s7"
     d="m 488.69999,-529.98008 v -16.12" />
  <path
     id="path250"
     class="s7"
     d="m 488.69999,-548.49008 v -16.13" />
  <path
     id="path251"
     class="s7"
     d="m 540.62999,-565.57008 h 16.12" />
  <path
     id="path252"
     class="s7"
     d="m 540.62999,-547.35008 h 16.12" />
  <path
     id="path253"
     class="s7"
     d="m 540.62999,-529.12008 h 16.12" />
  <path
     id="path254"
     class="s7"
     d="m 558.93999,-548.49008 v -16.13" />
  <path
     id="path255"
     class="s7"
     d="m 539.00999,-529.98008 v -16.12" />
  <path
     id="path256"
     class="s7"
     d="m 573.01999,-565.57008 h 16.12" />
  <path
     id="path257"
     class="s7"
     d="m 573.01999,-547.35008 h 16.12" />
  <path
     id="path258"
     class="s7"
     d="m 573.01999,-529.12008 h 16.12" />
  <path
     id="path259"
     class="s7"
     d="m 591.31999,-529.98008 v -16.12" />
  <path
     id="path260"
     class="s7"
     d="m 571.39999,-529.98008 v -16.12" />
  <path
     id="path261"
     class="s7"
     d="m 571.39999,-548.49008 v -16.13" />
  <path
     id="path262"
     class="s7"
     d="m 639.70999,-529.98008 v -16.12" />
  <path
     id="path263"
     class="s7"
     d="m 639.70999,-548.49008 v -16.13" />
  <path
     id="path264"
     class="s7"
     d="m 653.78999,-565.57008 h 16.12" />
  <path
     id="path265"
     class="s7"
     d="m 653.78999,-547.35008 h 16.12" />
  <path
     id="path266"
     class="s7"
     d="m 653.78999,-529.12008 h 16.12" />
  <path
     id="path267"
     class="s7"
     d="m 672.09999,-529.98008 v -16.12" />
  <path
     id="path268"
     class="s7"
     d="m 672.09999,-548.49008 v -16.13" />
  <path
     id="path269"
     class="s7"
     d="m 686.17999,-547.35008 h 16.12" />
  <path
     id="path270"
     class="s7"
     d="m 704.47999,-529.98008 v -16.12" />
  <path
     id="path271"
     class="s7"
     d="m 704.47999,-548.49008 v -16.13" />
  <path
     id="path272"
     class="s7"
     d="m 684.55999,-548.49008 v -16.13" />
  <path
     id="path273"
     class="s3"
     d="m 540.21999,-586.93008 h 77.5" />
  <path
     id="path274"
     class="s7"
     d="m 475.65999,-437.41008 v -16.12" />
  <path
     id="path275"
     class="s7"
     d="m 475.65999,-455.92008 v -16.13" />
  <path
     id="path276"
     class="s7"
     d="m 490.30999,-473.00008 h 16.13" />
  <path
     id="path277"
     class="s7"
     d="m 490.30999,-454.77008 h 16.13" />
  <path
     id="path278"
     class="s7"
     d="m 490.30999,-436.55008 h 16.13" />
  <path
     id="path279"
     class="s7"
     d="m 508.04999,-437.41008 v -16.12" />
  <path
     id="path280"
     class="s7"
     d="m 488.69999,-455.92008 v -16.13" />
  <path
     id="path281"
     class="s7"
     d="m 573.01999,-473.00008 h 16.12" />
  <path
     id="path282"
     class="s7"
     d="m 591.31999,-437.41008 v -16.12" />
  <path
     id="path283"
     class="s7"
     d="m 591.31999,-455.92008 v -16.13" />
  <path
     id="path284"
     class="s7"
     d="m 653.78999,-473.00008 h 16.12" />
  <path
     id="path285"
     class="s7"
     d="m 653.78999,-454.77008 h 16.12" />
  <path
     id="path286"
     class="s7"
     d="m 672.09999,-437.41008 v -16.12" />
  <path
     id="path287"
     class="s7"
     d="m 672.09999,-455.92008 v -16.13" />
  <path
     id="path288"
     class="s7"
     d="m 652.16999,-455.92008 v -16.13" />
  <path
     id="path289"
     class="s7"
     d="m 686.17999,-473.00008 h 16.12" />
  <path
     id="path290"
     class="s7"
     d="m 704.47999,-437.41008 v -16.12" />
  <path
     id="path291"
     class="s7"
     d="m 704.47999,-455.92008 v -16.13" />
  <path
     id="path292"
     class="s3"
     d="m 540.21999,-494.36008 h 77.5" />
  <path
     id="path293"
     class="s4"
     d="m -1732.45,-514.36008 c 0,5.28 -4.27,9.55 -9.55,9.55 -5.27,0 -9.55,-4.27 -9.55,-9.55 0,-5.27 4.28,-9.54 9.55,-9.54 5.28,0 9.55,4.27 9.55,9.54 z" />
  <path
     id="path294"
     class="s4"
     d="m -1805.06,-434.29008 c 0,5.28 -4.28,9.55 -9.55,9.55 -5.28,0 -9.55,-4.27 -9.55,-9.55 0,-5.27 4.27,-9.55 9.55,-9.55 5.27,0 9.55,4.28 9.55,9.55 z" />
  <path
     id="path295"
     class="s4"
     d="m -1874.38,-548.55008 c 0,5.27 -4.28,9.55 -9.55,9.55 -5.27,0 -9.55,-4.28 -9.55,-9.55 0,-5.27 4.28,-9.55 9.55,-9.55 5.27,0 9.55,4.28 9.55,9.55 z" />
  <path
     id="path296"
     class="s4"
     d="m -1763.87,-588.61008 c 0,5.27 -4.27,9.55 -9.55,9.55 -5.27,0 -9.55,-4.28 -9.55,-9.55 0,-5.27 4.28,-9.55 9.55,-9.55 5.28,0 9.55,4.28 9.55,9.55 z" />
  <path
     id="path297"
     class="s4"
     d="m -1884.97,-444.02008 c 0,5.27 -4.28,9.55 -9.55,9.55 -5.27,0 -9.55,-4.28 -9.55,-9.55 0,-5.28 4.28,-9.55 9.55,-9.55 5.27,0 9.55,4.27 9.55,9.55 z" />
  <path
     id="path298"
     class="s4"
     d="m -1796.46,-440.97008 c 14.45,-10.39 37.48,-29.81 42.44,-41.55" />
  <path
     id="path299"
     class="s4"
     d="m -1765.3,-482.06008 c 4.51,-1.81 14.45,-7.23 14.45,-7.23 l 3.61,15.8" />
  <path
     id="path300"
     class="s4"
     d="m -1753.94,-526.71008 c -15.06,-9.48 -44.78,-35.73 -107.55,-31.67" />
  <path
     id="path301"
     class="s4"
     d="m -1854.78,-548.61008 c -3.37,-3.51 -12.13,-10.67 -12.13,-10.67 l 13.29,-9.29" />
  <path
     id="path302"
     class="s4"
     d="m -1828.99,-466.88008 -14.23,14.23" />
  <path
     id="path303"
     class="s4"
     d="m -1843.22,-466.88008 14.23,14.23" />
  <path
     id="path304"
     class="s4"
     d="m -1778.04,-522.37008 -14.22,14.22" />
  <path
     id="path305"
     class="s4"
     d="m -1792.26,-522.37008 14.22,14.22" />
  <path
     id="path306"
     class="s4"
     d="m -1798.31,-601.43008 -14.22,14.23" />
  <path
     id="path307"
     class="s4"
     d="m -1812.53,-601.43008 14.22,14.23" />
  <path
     id="path308"
     class="s4"
     d="m -1921.09,-471.23008 -14.23,14.23" />
  <path
     id="path309"
     class="s4"
     d="m -1935.32,-471.23008 14.23,14.23" />
  <path
     id="path310"
     class="s4"
     d="m -1888.29,-531.47008 -14.22,14.22" />
  <path
     id="path311"
     class="s4"
     d="m -1902.51,-531.47008 14.22,14.22" />
  <path
     id="path312"
     class="s4"
     d="m -1969.97,-540.00008 v -26.16" />
  <path
     id="path313"
     class="s4"
     d="m -1901.43,-608.94008 v -26.16" />
  <path
     id="path314"
     class="s4"
     d="m -1924.28,-586.59008 v -46.07" />
  <path
     id="path315"
     class="s4"
     d="m -1947.12,-563.03008 v -46.07" />
  <path
     id="path316"
     class="s4"
     d="m 149.24996,-1195.0501 c 0,0 -103.600004,0 -109.590004,0 -5.99,0 -33.6100002,7.37 -39.60000016,11.06 -5.99000004,3.68 -25.32999984,41.9 -30.84995984,52.95 13.34996,3.68 21.8799598,3.7 29.2499598,-5.05 7.37,-8.75 12.2600002,-19.36 15.4800002,-22.12 3.23,-2.76 11.91,-3.22 18.35,-3.22 -0.92,11.97 -1.84,37.3 -2.3,41.44 -0.46,4.14 5.99,15.66 23.02,17.04 17.04,1.38 45.59,5.52 52.030004,5.98 6.45,0.46 53.92,24.4 60.98,27.79 14.29,6.86 26.05,-13.97 8.55,-23.64 -17.49,-9.67 -44.66,-23.03 -50.65,-25.79 -5.98,-2.76 -49.730004,-12.89 -49.730004,-12.89 l 6.62,-37.76 c 0,0 48.180004,-0.46 55.090004,-1.38 6.9,-0.92 13.35,-11.05 13.35,-24.41 z" />
  <path
     id="path317"
     class="s4"
     d="m 41.959956,-1104.3301 8.29,43.74 c 0,0 -19.29,34.91 -22.62,41.08 -3.42,6.35 -5.64,13.3 3.73,18.03 7.32,3.70003 12.89,-1.1 17.22,-8.56 6.55,-11.27 25.15,-45.95 25.15,-45.95 v -44.66" />
  <path
     id="path318"
     class="s4"
     d="m 92.609956,-1236.0301 c 0,13.74 -11.13,24.87 -24.86,24.87 -13.74,0 -24.87,-11.13 -24.87,-24.87 0,-13.73 11.13,-24.86 24.87,-24.86 13.73,0 24.86,11.13 24.86,24.86 z" />
  <path
     id="path319"
     class="s0"
     d="m 572.82999,-1090.8601 c 0.58,9.09 18.57,22.47 39.62,21.13 21.05,-1.34 37.17,-17.24 36.61,-25.99 -0.55,-8.74 -18.56,-22.47 -39.61,-21.13 -21.06,1.35 -37.2,16.9 -36.62,25.99 z" />
  <path
     id="path320"
     class="s4"
     d="m 588.47999,-1112.2501 c -8.76,-7.49 -16.09,-13.62 -16.09,-13.62 l 17.72,-31.7 c 0,0 2.24,0 5.96,2.97 9.12,7.3 -5.13,36.44 -0.74,37.97" />
  <path
     id="path321"
     class="s4"
     d="m 622.11999,-1118.1201 c 0,0 13.39,-31.75 2.24,-55.83 -3.72,-8.03 -15.92,-15.26 -26.06,-21.59 -23.88,-14.92 -25.48,-12.93 -28.31,-14.36 -6.21,-3.15 -51.39,-11.62 -59.53,-10.95 -8.14,0.67 -49.73,43.84 -61.27003,52.39 11.91003,10.84 20.74003,15.34 32.98003,10.14 12.24,-5.2 30.2,-27.86 34.99,-29.03 4.79,-1.17 20.84,5.04 27.52,8.42 -7.24,11.93 -21.51,37.7 -24.16,41.76 -2.66,4.05 -2.03,19.37 14.91,29.76 16.94,10.39 44.36,29.69 50.8,33.56 6.44,3.86 43.07,53.63 48.6,60.86 11.22,14.62003 34.36,-0.8 21.3,-20.02 -8.23,-12.12 -19.68,-27.78 -28.21,-39.2" />
  <path
     id="path322"
     class="s4"
     d="m 524.69999,-1114.6501 -14.4,49.71 c 0,0 -38.35,26.06 -45.04,30.7 -6.89,4.78 -12.84003,10.82 -5.62,20.66 5.65,7.68 13.95,5.62 22.36,0.17 12.71,-8.24 50.22,-34.41 50.22,-34.41 l 23.48,-46.31" />
  <path
     id="path323"
     class="s4"
     d="m 627.32999,-1227.2001 c -6.21,12.24 -21.17,17.14 -33.42,10.93 -12.25,-6.21 -17.14,-21.17 -10.93,-33.42 6.21,-12.25 21.17,-17.14 33.42,-10.93 12.25,6.2 17.14,21.17 10.93,33.42 z" />
  <g
     id="g350"
     transform="translate(1424.95,-647.81979)">
    <path
       id="path31"
       class="s1"
       d="m 91.16,101.00971 c 0,0 -19.99,-16.169996 -19.57,-31.909996 0.43,-15.73 14.89,-0.85 14.89,-0.85" />
    <path
       id="path32"
       class="s0"
       d="m 131.57,39.749714 c 48.07,0 41.69,5.11 41.69,40.41 0,29.139996 -19.84,54.879996 -41.69,54.879996 -21.85,0 -41.69,-25.74 -41.69,-54.879996 0,-35.3 -6.38,-40.41 41.69,-40.41 z" />
    <path
       id="path33"
       class="s1"
       d="m 171.98,101.00971 c 0,0 19.99,-16.169996 19.57,-31.909996 -0.43,-15.73 -14.89,-0.85 -14.89,-0.85" />
    <path
       id="path34"
       class="s4"
       d="m 86.48,55.489714 c 0,0 -4.68,-26.62 -2.55,-31.3 2.12,-4.68 9.36,-14.5200001 9.36,-14.5200001 l 7.65,9.3500001 2.98,-11.0600001 3.4,10.2100001 6.81,-8.9300001 2.13,9.7100001 7.23,-14.3900001 7.65,11.4900001 5.53,-13.0500001 8.09,10.3500001 7.65,-8.9300001 2.56,13.1900001 6.8,-9.7900001 0.43,12.7600001 9.35,-7.23 -0.85,10.84 11.49,-1.9 2.13,11.26 -1.71,8.33 -5.95,19.57" />
    <path
       id="path35"
       class="s5"
       d="m 95.9,139.35971 9.3,-14.53" />
    <path
       id="path36"
       class="s5"
       d="m 163.82,139.35971 -7.13,-14.53" />
    <path
       id="path184"
       class="s3"
       d="m 129.76,292.09971 c 28.69,0.23 58.3,-1.81 83,-8.75 0,-55.93 0,-22.14 0,-28.13 0,-6 6.99,-20.98 8.99,-25.97 -8,-20.98 -9.99,-47.94 -5,-68.92 -20.97,-10.99 -52.93,-20.97 -52.93,-20.97 0,0 -14.99,14.98 -33.96,14.98 -18.98,0 -33.96,-14.98 -33.96,-14.98 0,0 -31.96,9.98 -52.94,20.97 5,20.98 3,47.94 -4.99,68.92 2,4.99 8.99,19.97 8.99,25.97 0,5.99 0,-27.8 0,28.13 24.7,6.94 54.12,8.98 82.8,8.75 z" />
    <path
       id="path185"
       class="s4"
       d="m 166.65,142.59971 c -6.72,12.56 -19.71,32.56 -37.61,32.56 -18.04,0 -29.25,-20 -35.98,-32.56" />
    <path
       id="path186"
       class="s4"
       d="M 47.28,267.75971 H 212.86" />
    <path
       id="path187"
       class="s4"
       d="m 101.67,202.73971 c 0,5 -8.11,9.06 -18.13,9.06 -10.01,0 -18.13,-4.06 -18.13,-9.06 0,-5.01 8.12,-9.07 18.13,-9.07 10.02,0 18.13,4.06 18.13,9.07 z" />
    <path
       id="path188"
       class="s4"
       d="m 175.16,217.52971 c 0,0 -12.41,-10.39 -10.97,-20.42 6.2,-2.38 19.06,-0.83 22.4,0.6 -1.43,6.68 -4.43,14.99 -11.43,19.82 z" />
    <path
       id="path324"
       class="s1"
       d="m 42.96,160.32971 -13.25,3.29 c -9.42,2.84 -22.87,7.16 -26.71,21.1" />
    <path
       id="path325"
       class="s1"
       d="m 39.51,222.67971 -8.16,0.96 c -4.81,0 -5.77,8.64 -5.77,8.64" />
    <path
       id="path326"
       class="s1"
       d="m 216.75,160.32971 13.26,3.29 c 9.41,2.84 22.86,7.16 26.71,21.1" />
    <path
       id="path327"
       class="s1"
       d="m 220.2,222.67971 8.17,0.96 c 4.8,0 5.77,8.64 5.77,8.64" />
  </g>
  <path
     id="path328"
     class="s1"
     d="m 1492.68,-1277.8001 c 0,0 28.79,78.73 25.26,133.37" />
  <path
     id="path329"
     class="s1"
     d="m 1562.59,-1277.2101 c 0,0 19.98,38.78 16.46,93.42" />
  <path
     id="path330"
     class="s1"
     d="m 1414.53,-1023.3901 22.98,14.77 c 16.78,10.49003 38.89,5.4 49.39,-11.39 10.49,-16.78 5.4,-38.89 -11.39,-49.39 l -58.63,-38.01" />
  <path
     id="path331"
     class="s4"
     d="m 990.44999,-1063.6201 c 11.96001,-5.9 32.54001,-11.88 47.22001,-14.13 14.68,-2.25 31.83,-6.48 40.21,-12.18" />
  <path
     id="path332"
     class="s4"
     d="m 1063.12,-1143.3701 c 0,0 -5.05,4.43 -30.82,24.42 15.41,-12.21 41.79,-5.74 51.93,3.13 -5.36,1.32 -17.34,11.77 -25.24,22.13 27.51,-12.01 32.55,-2.79 43.02,4.64 -16.85,-3.81 -21.74,4.22 -28.3,10.83 5.19,-14.01 4.27,-20.39 16.23,-26.29 -19.38,-15.01 -37.8,-5.91 -45,-0.96 11.35,-12.11 23.39,-25.08 28.53,-25.44 -16.84,-8.36 -46.71,-10.55 -53.92,-1.04" />
  <path
     id="path333"
     class="s3"
     d="m 947.72999,-1177.0201 c -4.04,6.68 -15.21,31.48 -23.74,51.32 -8.53,19.84 7.49,34.08 22.09,38.9 14.6,4.82 40.27,16.69 55.04001,34.2 14.77,17.5 53.45,27.76 82.08,33.21 28.63,5.46 61.72,6.86 77.97,-0.1 16.25,-6.96 4.54,-26.81 -3.42,-34.17 -2.93,-2.72 -8.16,-6.5 -14.18,-10.63" />
  <path
     id="path334"
     class="s3"
     d="m 1057.92,-1140.4901 c 0,0 -17.21,-21.11 -22.38,-27.34" />
  <path
     id="path335"
     class="s4"
     d="m 951.75999,-1179.1501 c -8.27,20.91 -4.62,33.88 16.65,31.6 21.27,-2.29 38.42001,-6.51 52.63001,2.27 14.21,8.78 58.59,58.79 67.68,63.37 9.09,4.58 9.77,8.87 20.45,-0.35" />
  <path
     id="path336"
     class="s4"
     d="m 1116.16,-1012.9501 c -0.56,6.96 -6.61,9.13 -11.54,8.53 -4.92,-0.61 -11.82,-3.69 -10.34,-12.46" />
  <path
     id="path337"
     class="s4"
     d="m 1161.38,-1016.5801 c 1.11,6.89 -4.25,10.45 -9.18,11.03 -4.93,0.59 -12.36,-0.76 -13.02,-9.63" />
  <path
     id="path338"
     class="s4"
     d="m 1073.24,-1020.1201 c -0.56,6.96 -6.62,9.14 -11.54,8.53 -4.92,-0.6 -11.82,-3.68 -10.35,-12.46" />
  <path
     id="path339"
     class="s4"
     d="m 1037.89,-1031.6501 c -0.56,6.96 -6.62,9.14 -11.55,8.53 -4.92,-0.6 -11.82,-3.68 -10.34,-12.46" />
  <path
     id="path340"
     class="s4"
     d="m 965.61999,-1076.1601 c -0.44,5.51 -5.24,7.24 -9.15,6.76 -3.9,-0.48 -9.36,-2.92 -8.19,-9.87" />
  <path
     id="path341"
     class="s4"
     d="m 939.24999,-1086.0901 c -2.58,4.89 -7.68,4.58 -11.07,2.6 -3.4,-1.98 -7.46,-6.38 -3.64,-12.31" />
  <path
     id="path342"
     class="s4"
     d="m 995.12999,-1052.2801 c -3.81,5.93 0.25,10.32 3.64,12.31 3.40001,1.98 8.49001,2.29 11.07001,-2.6" />
  <path
     id="path343"
     class="s4"
     d="m 1007.42,-1049.1501 q 0.24,-0.08 0.48,-0.16" />
  <path
     id="path344"
     class="s11"
     d="m 1019.49,-1053.0101 c 19.92,-6.1 39.91,-10.98 51.88,-12.58 14.09,-1.87 27.37,-2.42 43.57,4.28 15.27,6.31 34.55,20.82 35.56,37.81" />
  <path
     id="path345"
     class="s4"
     d="m 1150.07,-1017.4401 q -0.05,0.24 -0.1,0.48" />
  <path
     id="path347"
     class="s9"
     d="m 936.60999,-1150.1801 c 5.7,8.37 13.11,18.14 29.54,19.33 16.44,1.18 21.66,-6.25 37.74001,5.48 16.08,11.73 45.23,27.07 38.51,28.95 -14.05,3.91 -49.28001,18.73 -65.10001,23.76" />
  <path
     id="path348"
     class="s4"
     d="m 986.24999,-1259.7401 c -0.96,75.78 -34.46,83.63 -34.46,83.63" />
  <path
     id="path349"
     class="s4"
     d="m 1046.59,-1247.1901 c 0,0 -14.91,53.15 -15.1,71.8 -0.17,16.13 -0.62,30.15 15.46,35.16" />
</svg>
