<?xml version="1.0" encoding="UTF-8"?>
<svg xmlns="http://www.w3.org/2000/svg" xmlns:svg="http://www.w3.org/2000/svg" xmlns:sodipodi="http://sodipodi.sourceforge.net/DTD/sodipodi-0.dtd" xmlns:inkscape="http://www.inkscape.org/namespaces/inkscape" version="1.1" viewBox="0 0 231.1 173.4">
  <!-- Generator: Adobe Illustrator 30.2.1, SVG Export Plug-In . SVG Version: 2.1.1 Build 1)  -->
  <defs>
    <style>
      .st0, .st1, .st2, .st3, .st4, .st5, .st6, .st7 {
        stroke-linejoin: round;
      }

      .st0, .st1, .st2, .st3, .st4, .st5, .st6, .st7, .st8, .st9, .st10, .st11, .st12 {
        fill: none;
      }

      .st0, .st1, .st2, .st3, .st4, .st5, .st6, .st7, .st9, .st10, .st11, .st12 {
        stroke: #000;
      }

      .st0, .st1, .st2, .st3, .st4, .st5, .st8, .st11, .st12 {
        stroke-linecap: round;
      }

      .st0, .st2, .st3, .st4, .st5, .st6, .st8, .st10, .st12 {
        stroke-width: 6px;
      }

      .st1, .st13, .st7, .st9, .st11 {
        stroke-width: 12px;
      }

      .st2 {
        stroke-dasharray: 1 12.3;
      }

      .st3 {
        stroke-dasharray: 1 12;
      }

      .st4 {
        stroke-dasharray: 2.9 11.8;
      }

      .st13 {
        fill: #df0017;
        stroke: #df0017;
      }

      .st13, .st8, .st9, .st10, .st11, .st12 {
        stroke-miterlimit: 10;
      }

      .st5 {
        stroke-dasharray: 1 12.2;
      }

      .st8 {
        stroke: #fff;
      }
    </style>
  </defs>
  <g id="svg350" inkscape:version="1.4.3 (0d15f75, 2025-12-25)" sodipodi:docname="posts.svg">
    <sodipodi:namedview id="namedview1" bordercolor="#000000" borderopacity="0.25" inkscape:current-layer="g1" inkscape:cx="62.002825" inkscape:cy="88.786862" inkscape:deskcolor="#d1d1d1" inkscape:pagecheckerboard="0" inkscape:pageopacity="0.0" inkscape:showpageshadow="2" inkscape:window-height="967" inkscape:window-maximized="0" inkscape:window-width="1822" inkscape:window-x="0" inkscape:window-y="30" inkscape:zoom="3.3788783" pagecolor="#ffffff"/>
    <path id="_x3C_Path_x3E_" class="st9" d="M37-1057.6c25.9,25.9,115.6,18.5,175.4-41.4,59.9-59.9,66.3-150.6,41.4-175.4-24.9-24.9-115.6-18.5-175.4,41.4-59.9,59.9-67.3,149.6-41.4,175.4h0Z"/>
    <path id="path1" class="st12" d="M141.6-1161.8l-90,90"/>
    <path id="path2" class="st12" d="M240.2-1260.3l-90,90"/>
    <path id="path3" class="st12" d="M168.4-1213.1l24.6,24.6"/>
    <path id="path4" class="st12" d="M155.9-1200.6l24.6,24.6"/>
    <path id="path5" class="st12" d="M143.3-1188.1l24.6,24.6"/>
    <path id="path6" class="st12" d="M124.2-1168.9l24.6,24.6"/>
    <path id="path7" class="st12" d="M99.2-1143.9l24.6,24.6"/>
    <path id="path8" class="st12" d="M111.7-1156.4l24.6,24.6"/>
    <path id="path9" class="st12" d="M149.8-1162.4c-2.3,2.3-5.9,2.3-8.2,0-2.3-2.3-2.3-5.9,0-8.2,2.2-2.3,5.9-2.3,8.2,0,2.2,2.3,2.2,5.9,0,8.2Z"/>
    <path id="path10" class="st10" d="M1614.2-1141.6v28.3"/>
    <path id="path11" class="st10" d="M1614.2-1159.8v9.5"/>
    <path id="path12" class="st10" d="M1614.2-1104.1v28.3"/>
    <path id="path13" class="st10" d="M1614.2-1067.6v28.3"/>
    <path id="path14" class="st10" d="M1614.2-1189.3v-28.3"/>
    <path id="path15" class="st10" d="M1614.2-1171v-9.5"/>
    <path id="path16" class="st10" d="M1614.2-1227.5v-28.3"/>
    <path id="path17" class="st10" d="M1614.2-1263.3v-28.3"/>
    <path id="path18" class="st12" d="M1620.8-1165.8c0,3.6-2.9,6.5-6.5,6.5s-6.5-2.9-6.5-6.5,2.9-6.5,6.5-6.5,6.5,2.9,6.5,6.5Z"/>
    <path id="path19" class="st9" d="M492.2-1166c0,42,64,88.4,143,88.4s143-55.6,143-88.4-64-86.4-143-86.4-143,44.3-143,86.4h0Z"/>
    <path id="path20" class="st10" d="M492.6-1167c0,18.5,64,38.9,143,38.9s143-24.4,143-38.9"/>
    <path id="path21" class="st12" d="M640.5-1258v13.5"/>
    <path id="path22" class="st12" d="M632.2-1259.7v4.4"/>
    <path id="path23" class="st12" d="M623.3-1258v13.5"/>
    <path id="path24" class="st12" d="M610.5-1257.3v13.5"/>
    <path id="path25" class="st12" d="M597.6-1255.1v13.5"/>
    <path id="path26" class="st12" d="M654.2-1257.1v13.5"/>
    <path id="path27" class="st12" d="M667.9-1255.3v13.5"/>
    <path id="path28" class="st9" d="M1055.5-1231.9c59.3-59.3,137.4-77.3,174.5-40.2,37.1,37.1,19.1,115.2-40.2,174.5-59.3,59.3-137.4,77.3-174.5,40.2-37.1-37.1-19.1-115.2,40.2-174.5Z"/>
    <path id="path29" class="st10" d="M1015.3-1057.4c-19.6-19.6,12.6-83.5,71.9-142.8,59.3-59.3,123.2-91.5,142.8-71.9"/>
    <path id="path30" class="st1" d="M2569.1,50h42.9l-40.3,100.8"/>
    <path id="path37" class="st9" d="M1734-498.5c-21.5,29.7-54.3,42.6-73.4,28.8-7.7-5.6-12-14.7-12.9-25.6-1.4-15.9,4.5-35.5,17.2-53.2,21.5-29.7,54.3-42.6,73.4-28.8,19.1,13.8,17.2,49.1-4.3,78.8h0Z"/>
    <path id="path38" class="st9" d="M1549.1-425.8l115.7-122.7"/>
    <path id="path39" class="st7" d="M1648.5-494.4l-89.5,94.9-81.3-56.2-.5-18.7s115.1-125.5,123-132.9c7.9-7.4,30.3-20.3,46.6-12.9s91.5,43,91.5,43"/>
    <path id="path40" class="st9" d="M1549.1-425.8l-71.9-48.6"/>
    <path id="path41" class="st9" d="M1549.1-425.8l9.9,26.3"/>
    <path id="path42" class="st6" d="M1585.5-562l25.9-27.8,41.5,19.3-26.4,29.2-41-20.8Z"/>
    <path id="path43" class="st10" d="M1603.2-581.3l41.5,19.3"/>
    <path id="path44" class="st9" d="M1660.5-469.8l-22.7-12.1"/>
    <path id="path45" class="st10" d="M1672.3-609.1s7.5-8,13.2-11.3c5.7-3.3,13.1-1.6,17.4.5,6.9,3.3,11.7,7.6,9.4,14.6-1.9,6-8.4,13.1-8.4,13.1"/>
    <path id="path46" class="st0" d="M583-460.8c10.5-8.5,29.5-19,43.5-24.5,14-5.5,30-13.5,37-21"/>
    <path id="path47" class="st0" d="M637.1-555.9s-4,5.5-25,31c12.5-15.5,40-15,52.1-8.5-5,2.5-14.5,15.5-20,27.5,24.5-18,39.5-12,51.5-7-17.5,0-28.5,11-33.5,19,2-15,6-21,16.5-29.5-22.5-10.5-45,2.5-51,9,8.5-14.5,17.5-30,22.5-31.5-18.5-4.5-48.5,0-53.5,11"/>
    <path id="path48" class="st1" d="M632.6-551.9s-16-13-22.5-18c-6.5-5-35.5-16.5-35,12.5.3,16.6-14.5-8.5-33.5-20.5-19-12-23.5,7-26,14.5-2.5,7.5-8,34.5-12,56-4,21.5,15,32,30.5,33.5,15.5,1.5,43.5,7.5,62.1,21.5,18.5,14,59.1,15.5,88.6,14.5,29.5-1,62.6-7,77.1-17.5,14.5-10.5-1.5-27.5-11-33-9.5-5.5-37.5-15-51-21"/>
    <path id="path49" class="st0" d="M519-566.4c-3.5,22.5,3,34.5,23.5,27.5,20.5-7,36.5-15,52.6-9.5,16,5.5,71.1,45,81.1,47.5s15,3,23.5-8.5"/>
    <path id="path50" class="st0" d="M718.7-438.8c1,7-4.5,10.5-9.5,11-5,.5-12.5-1-13-10"/>
    <path id="path51" class="st0" d="M762.6-452.4c2.6,6.6-1.9,11.3-6.6,13s-12.4,2-15-6.6"/>
    <path id="path52" class="st0" d="M674.6-436.3c1,7-4.5,10.5-9.5,11-5,.5-12.5-1-13-10"/>
    <path id="path53" class="st0" d="M637.1-439.8c1,7-4.5,10.5-9.5,11-5,.5-12.5-1-13-10"/>
    <path id="path54" class="st0" d="M555.7-467.6c.8,5.6-3.6,8.3-7.5,8.7-4,.4-9.9-.8-10.3-7.9"/>
    <path id="path55" class="st0" d="M527.4-471.6c-1.5,5.4-6.6,6.2-10.4,5s-8.8-4.6-6.3-11.4"/>
    <path id="path56" class="st0" d="M590.2-450.6c-2.5,6.7,2.5,10.1,6.3,11.4s8.9.4,10.4-5"/>
    <path id="path57" class="st0" d="M603.1-450.3c.1,0,.3-.2.4-.3"/>
    <path id="path58" class="st2" d="M614.1-456.8c18.3-10.5,37-19.8,48.5-24,13.5-5,26.5-8.5,44-5.5,16.5,2.8,38.8,12.9,43.6,29.5"/>
    <path id="path59" class="st0" d="M751.2-450.8v.5"/>
    <path id="path61" class="st3" d="M510.5-534.3c7.5,7,17,15,33.5,12.5,16.5-2.5,20-11,38.5-3,18.5,8,50.8,16.7,44.5,20-13,7-44.5,29.5-59.1,38"/>
    <path id="path62" class="st0" d="M1169.4-529c-10.5-8.5-29.5-19-43.6-24.5-14-5.5-30-13.5-37-21"/>
    <path id="path63" class="st0" d="M1115.3-624.1s4,5.5,25,31c-12.5-15.5-40-15-52.1-8.5,5,2.5,14.5,15.5,20,27.5-24.5-18-39.5-12-51.6-7,17.5,0,28.5,11,33.5,19-2-15-6-21-16.5-29.5,22.5-10.5,45.1,2.5,51.1,9-8.5-14.5-17.5-30-22.5-31.5,18.5-4.5,48.6,0,53.6,11"/>
    <path id="path64" class="st1" d="M1119.9-620.1s16-13,22.5-18c6.5-5,35.5-16.5,35,12.5-.3,16.6,14.5-8.5,33.5-20.5,19-12,23.5,7,26,14.5,2.5,7.5,8,34.5,12,56,4,21.5-15,32-30.5,33.5-15.5,1.5-43.6,7.5-62.1,21.5-18.5,14-59.1,15.5-88.6,14.5-29.5-1-62.6-7-77.1-17.5-14.5-10.5,1.5-27.5,11-33,9.5-5.5,37.5-15,51-21"/>
    <path id="path65" class="st0" d="M1233.5-634.6c3.5,22.5-3,34.5-23.5,27.5-20.5-7-36.5-15-52.6-9.5-16,5.5-71.1,45-81.1,47.5s-15,3-23.5-8.5"/>
    <path id="path66" class="st0" d="M1033.8-507c-1,7,4.5,10.5,9.5,11,5,.5,12.5-1,13-10"/>
    <path id="path67" class="st0" d="M989.9-520.7c-2.6,6.6,1.9,11.3,6.6,13s12.4,2,15-6.6"/>
    <path id="path68" class="st0" d="M1077.8-504.5c-1,7,4.5,10.5,9.5,11,5,.5,12.5-1,13-10"/>
    <path id="path69" class="st0" d="M1115.3-508c-1,7,4.5,10.5,9.5,11,5,.5,12.5-1,13-10"/>
    <path id="path70" class="st0" d="M1196.8-535.8c-.8,5.6,3.6,8.3,7.5,8.7,4,.4,9.9-.8,10.3-7.9"/>
    <path id="path71" class="st0" d="M1225-539.8c1.5,5.4,6.6,6.2,10.4,5s8.8-4.6,6.3-11.4"/>
    <path id="path72" class="st0" d="M1162.2-518.8c2.4,6.7-2.6,10.1-6.3,11.4-3.8,1.2-8.9.4-10.4-5"/>
    <path id="path73" class="st0" d="M1149.4-518.5c-.1,0-.3-.2-.4-.3"/>
    <path id="path74" class="st2" d="M1138.3-525c-18.3-10.5-37-19.8-48.5-24-13.5-5-26.5-8.5-44.1-5.5-16.5,2.8-38.8,12.9-43.6,29.5"/>
    <path id="path75" class="st0" d="M1001.2-519v.5"/>
    <path id="path76" class="st3" d="M1242-602.6c-7.5,7-17,15-33.5,12.5-16.5-2.5-20-11-38.5-3s-50.8,16.7-44.6,20c13,7,44.6,29.5,59.1,38"/>
    <path id="path77" class="st1" d="M984.3-446c0,14.8,4.7,41.5,50.9,41.1,46.2-.4,62-3.2,83.3-1.8s50.8,10.5,74.7,8.7c23.8-1.8,64.1-16.1,63.5-47.2-.7-35.8-36.4-44-66-40.8-29.6,3.2-77.5,29.2-105.7,26-28.1-3.2-50.4-17.6-73.8-16.8-23.4.7-26.1,23-26.8,30.9h0Z"/>
    <path id="path78" class="st0" d="M1021.5-456.8c0,3.6-2.9,6.5-6.5,6.5s-6.5-2.9-6.5-6.5,2.9-6.5,6.5-6.5,6.5,2.9,6.5,6.5Z"/>
    <path id="path79" class="st0" d="M1051.8-449.7c0,3.6-2.9,6.5-6.5,6.5s-6.5-2.9-6.5-6.5,2.9-6.5,6.5-6.5,6.5,2.9,6.5,6.5Z"/>
    <path id="path80" class="st0" d="M1049-426.3c0,3.6-2.9,6.5-6.5,6.5s-6.5-2.9-6.5-6.5,2.9-6.5,6.5-6.5,6.5,2.9,6.5,6.5Z"/>
    <path id="path81" class="st0" d="M1020.2-430.3c0,3.6-2.9,6.5-6.5,6.5s-6.5-2.9-6.5-6.5,2.9-6.5,6.5-6.5,6.5,2.9,6.5,6.5Z"/>
    <path id="path82" class="st0" d="M1160.3-423.2c0,3.6-2.9,6.5-6.5,6.5s-6.5-2.9-6.5-6.5,2.9-6.5,6.5-6.5,6.5,2.9,6.5,6.5Z"/>
    <path id="path83" class="st0" d="M1161-454.2c0,3.6-2.9,6.5-6.5,6.5s-6.5-2.9-6.5-6.5,2.9-6.5,6.5-6.5,6.5,2.9,6.5,6.5Z"/>
    <path id="path84" class="st0" d="M1190.8-463.6c0,3.6-2.9,6.5-6.5,6.5s-6.5-2.9-6.5-6.5,2.9-6.5,6.5-6.5,6.5,2.9,6.5,6.5Z"/>
    <path id="path85" class="st0" d="M1225.6-461.8c0,3.6-2.9,6.5-6.5,6.5s-6.5-2.9-6.5-6.5,2.9-6.5,6.5-6.5,6.5,2.9,6.5,6.5Z"/>
    <path id="path86" class="st0" d="M1225.1-429c0,3.6-2.9,6.5-6.5,6.5s-6.5-2.9-6.5-6.5,2.9-6.5,6.5-6.5,6.5,2.9,6.5,6.5Z"/>
    <path id="path87" class="st0" d="M1194.1-419.2c0,3.6-2.9,6.5-6.5,6.5s-6.5-2.9-6.5-6.5,2.9-6.5,6.5-6.5,6.5,2.9,6.5,6.5Z"/>
    <path id="path88" class="st0" d="M1032.7-475.4s70.5,5.7,118.4-1.5"/>
    <path id="path89" class="st0" d="M1581.2-571.1l-64.4-21.1"/>
    <path id="path90" class="st0" d="M1589.6-586.2l-47.7-52.9"/>
    <path id="path91" class="st0" d="M1607.9-597.8l-20.3-55.3"/>
    <path id="path92" class="st12" d="M1058.7-1141.8l-24.6-24.6"/>
    <path id="path93" class="st12" d="M1069.8-1155.2l-24.6-24.6"/>
    <path id="path94" class="st12" d="M1080.9-1169.4l-24.6-24.6"/>
    <path id="path95" class="st12" d="M1100-1188.5l-24.6-24.6"/>
    <path id="path96" class="st12" d="M1126-1212.6l-24.6-24.6"/>
    <path id="path97" class="st12" d="M1112.5-1201l-24.6-24.6"/>
    <path id="path98" class="st12" d="M1074.5-1195c2.3-2.2,5.9-2.2,8.2,0s2.3,5.9,0,8.2-5.9,2.2-8.2,0c-2.2-2.3-2.2-5.9,0-8.2Z"/>
    <path id="path99" class="st9" d="M3563.5-1192.9c-56,29.1-86.6,81.1-68.4,116.2,18.2,35,78.4,39.8,134.4,10.7,56-29.1,86.6-81.1,68.4-116.2-18.2-35-78.4-39.8-134.4-10.7Z"/>
    <path id="path100" class="st10" d="M3697.9-1182.2c-9.6-18.5-62.8-9.9-118.8,19.3-56,29.1-93.6,67.7-83.9,86.2"/>
    <path id="path101" class="st12" d="M3627.5-1170.2l-12.1-23.2"/>
    <path id="path102" class="st12" d="M3615.4-1165.3l-12.1-23.2"/>
    <path id="path103" class="st12" d="M3602.7-1160.5l-12.1-23.2"/>
    <path id="path104" class="st12" d="M3584.6-1151.1l-12.1-23.2"/>
    <path id="path105" class="st12" d="M3561.4-1137.9l-12.1-23.2"/>
    <path id="path106" class="st12" d="M3572.8-1145l-12.1-23.2"/>
    <path id="path107" class="st12" d="M3585.8-1170.9c-2.1,1.1-3,3.7-1.9,5.9,1.1,2.1,3.7,3,5.9,1.8,2.1-1.1,3-3.7,1.9-5.9-1.1-2.1-3.7-3-5.9-1.8Z"/>
    <path id="path108" class="st9" d="M3201.6-1205.8c-19.9-53.2-63-86.3-96.3-73.8-33.3,12.4-44.2,65.7-24.3,118.9,19.9,53.2,63,86.3,96.3,73.8,33.3-12.4,44.2-65.7,24.3-118.9Z"/>
    <path id="path109" class="st10" d="M3177.3-1086.9c17.6-6.6,15.7-55.1-4.2-108.3s-50.3-91.1-67.9-84.5"/>
    <path id="path110" class="st12" d="M3174.3-1151.1l22.1-8.2"/>
    <path id="path111" class="st12" d="M3171.2-1162.5l22.1-8.2"/>
    <path id="path112" class="st12" d="M3168.4-1174.4l22.1-8.2"/>
    <path id="path113" class="st12" d="M3161.9-1191.5l22.1-8.2"/>
    <path id="path114" class="st12" d="M3152.7-1213.7l22.1-8.2"/>
    <path id="path115" class="st12" d="M3157.7-1202.8l22.1-8.2"/>
    <path id="path116" class="st12" d="M3179.5-1188.4c-.8-2-3-3.1-5-2.3-2,.8-3.1,3-2.3,5,.8,2,3,3.1,5,2.3,2-.8,3.1-3,2.3-5Z"/>
    <path id="path117" class="st9" d="M556.7,116.9c16.7-29.3,45.2-44.5,63.5-34.1s19.6,42.7,2.9,72c-16.7,29.3-45.2,44.5-63.5,34.1s-19.6-42.7-2.9-72Z"/>
    <path id="path118" class="st10" d="M559.6,188.9c-9.7-5.5-4-33.8,12.8-63,16.7-29.3,38.2-48.5,47.8-43"/>
    <path id="path119" class="st12" d="M567.5,151.5l-12.1-6.9"/>
    <path id="path120" class="st12" d="M570.3,145.1l-12.1-6.9"/>
    <path id="path121" class="st12" d="M573.2,138.5l-12.1-6.9"/>
    <path id="path122" class="st12" d="M578.6,129l-12.1-6.9"/>
    <path id="path123" class="st12" d="M586.1,116.9l-12.1-6.9"/>
    <path id="path124" class="st12" d="M582.1,122.8l-12.1-6.9"/>
    <path id="path125" class="st12" d="M583.8-1244.7s-.1,11,7.5,12.6c7.7,1.6,29.9-2.7,39.8,6.1,8.3-7.3,29.3-4.1,37.1-6.5,7.8-2.4,10-4.9,10.7-11.5"/>
    <g id="g1">
      <g id="g2">
        <path id="path126" class="st13" d="M6,113.8v59.6"/>
        <path id="path127" class="st8" d="M6,37.5v76.2"/>
        <path id="path128" class="st13" d="M79,113.8v59.6"/>
        <path id="path129" class="st8" d="M79,3v110.8"/>
        <path id="path130" class="st13" d="M152.1,113.8v59.6"/>
        <path id="path131" class="st8" d="M152.1,3v110.8"/>
        <path id="path132" class="st13" d="M225.1,113.8v59.6"/>
        <path id="path133" class="st8" d="M225.1,37.5v76.2"/>
      </g>
    </g>
    <path id="path136" class="st9" d="M494.7,138.2v82.7"/>
    <path id="path137" class="st12" d="M494.7,32.3v105.9"/>
    <path id="path138" class="st9" d="M589,187.9v33"/>
    <path id="path139" class="st12" d="M589-15.7v99.1"/>
    <path id="path140" class="st9" d="M683.3,138.2v82.7"/>
    <path id="path141" class="st12" d="M683.3-15.7v153.9"/>
    <path id="path142" class="st9" d="M777.6,138.2v82.7"/>
    <path id="path143" class="st12" d="M777.6,32.3v105.9"/>
    <path id="path144" class="st10" d="M494.7,217.7h282.9"/>
    <path id="path145" class="st12" d="M683.3,218.1l34.6,45.3h-162.9l34-45.3"/>
    <path id="path146" class="st10" d="M1130.6,134.6c-4.8,4.8-12.5,4.8-17.2,0s-4.8-12.5,0-17.2,12.5-4.8,17.2,0,4.8,12.5,0,17.2Z"/>
    <path id="path147" class="st10" d="M1123.6-7.7c-2.3,29.4-18,62.3-45.3,89.6-27.6,27.6-61.1,43.3-90.8,45.3"/>
    <path id="path148" class="st10" d="M1256.5,125.1c-29.4,2.3-62.3,18-89.6,45.3-27.6,27.6-43.3,61.1-45.3,90.8"/>
    <path id="path149" class="st10" d="M1024.3,16.5l13.1,13.1-11.8,11.9-13-13.1"/>
    <path id="path150" class="st10" d="M1231.5,223.7l-13.1-13.1-11.8,11.9,13.1,13.1"/>
    <path id="path151" class="st9" d="M1036.8,211.2c51,51,122.6,64.5,171.2,35.8l34.7-34.5c29.1-48.7,15.6-120.6-35.5-171.8-51.2-51.2-123.1-64.6-171.8-35.5l-34.5,34.7c-28.7,48.7-15.2,120.3,35.8,171.3h0Z"/>
    <path id="path152" class="st10" d="M1122,182.5l-56.6-56.6,56.6-56.6,56.6,56.6-56.6,56.6Z"/>
    <path id="path153" class="st10" d="M280.4-656.3c-4.7,58.4-35.8,123.9-90,178.1-54.9,54.9-121.5,86.2-180.5,90.2"/>
    <path id="path154" class="st10" d="M82.9-608.1l26,26-23.6,23.6-26-26"/>
    <path id="path155" class="st9" d="M293.6-650.3c-67.1-18.2-135-12.2-188.6,19.8l-68.5,68.9C5.2-508.3-.8-441.4,16.9-375.1"/>
    <path id="path156" class="st10" d="M181-374.1l-16.3-16.3,112.4-112.4,17.9,17.9"/>
    <path id="path157" class="st10" d="M1618.1,132.8c-4.9,2.7-12.8,2.7-17.7,0s-4.9-7,0-9.6c4.9-2.7,12.8-2.7,17.7,0,4.9,2.7,4.9,7,0,9.6Z"/>
    <path id="path158" class="st10" d="M1610.9,53.3c-2.4,16.4-18.5,34.8-46.5,50-28.4,15.4-62.8,24.2-93.3,25.3"/>
    <path id="path159" class="st10" d="M1747.5,127.5c-30.2,1.3-64,10.1-92,25.3-28.4,15.4-44.5,34.1-46.6,50.7"/>
    <path id="path160" class="st10" d="M1508.8,66.9l13.4,7.3-12.2,6.6-13.4-7.3"/>
    <path id="path161" class="st10" d="M1721.7,182.6l-13.4-7.3-12.2,6.6,13.4,7.3"/>
    <path id="path162" class="st9" d="M1521.7,175.6c52.4,28.5,125.9,36,176,20l35.6-19.2c29.8-27.2,16.1-67.3-36.5-95.9-52.6-28.6-126.5-36-176.5-19.8l-35.4,19.4c-29.4,27.2-15.6,67.2,36.8,95.6h0Z"/>
    <path id="path163" class="st10" d="M1609.2,159.6l-58.1-31.6,58.1-31.6,58.1,31.6-58.1,31.6Z"/>
    <path id="path164" class="st9" d="M2176.4-1143.7c5.5,5.5,24.8,3.9,37.6-8.9s14.2-32.3,8.9-37.6-24.8-4-37.6,8.9-14.4,32.1-8.9,37.6h0Z"/>
    <path id="path165" class="st0" d="M1711.4-1165.5c.5,0,1,0,1.5,0-.5,0-1,0-1.5,0"/>
    <path id="path166" class="st4" d="M1701.1-1170.7c-13.8-14.7-10-57.4-26.3-87.4-12.3-22.7-30.7-28.8-60.8-28.8s-48.5,6.2-60.8,28.8c-17.9,33-11.6,81.4-30.9,90.9"/>
    <path id="path167" class="st0" d="M1516.5-1165.7c-.5,0-1,0-1.5,0,.5,0,1,0,1.5,0"/>
    <path id="path168" class="st4" d="M1526.9-1160.4c13.8,14.7,10,57.4,26.3,87.4,12.3,22.7,30.7,28.8,60.8,28.8s48.5-6.2,60.8-28.8c17.9-33,11.6-81.4,30.9-90.9"/>
    <path id="path170" class="st11" d="M1636.1-1145.8h-45.2"/>
    <path id="path171" class="st11" d="M1636.1-1072.2h-45.2"/>
    <path id="path172" class="st11" d="M1636.1-1109h-45.2"/>
    <path id="path173" class="st11" d="M1636.1-1259.4h-45.2"/>
    <path id="path174" class="st11" d="M1636.1-1185.8h-45.2"/>
    <path id="path175" class="st11" d="M1636.1-1222.6h-45.2"/>
    <path id="path176" class="st1" d="M3074.7,265.9c28.7.2,58.3-1.8,83-8.8V100.3c0-6,7-21,9-26-8-21-10-48-5-68.9-21-11-52.9-21-52.9-21,0,0-15,15-34,15s-34-15-34-15c0,0-32,10-52.9,21,5,21,3,47.9-5,68.9,2,5,9,20,9,26v156.8c24.7,6.9,54.1,9,82.8,8.8h0Z"/>
    <path id="path177" class="st0" d="M3111.6-12.3c-6.7,12.6-19.7,32.6-37.6,32.6s-29.3-20-36-32.6"/>
    <path id="path178" class="st0" d="M2992.2,134.2h165.6"/>
    <path id="path179" class="st0" d="M2992.2,162.3h165.6"/>
    <path id="path180" class="st0" d="M2992.2,172.8h165.6"/>
    <path id="path181" class="st0" d="M2992.2,201h165.6"/>
    <path id="path182" class="st0" d="M3046.6,47.9c0,5-8.1,9.1-18.1,9.1s-18.1-4.1-18.1-9.1,8.1-9.1,18.1-9.1,18.1,4.1,18.1,9.1Z"/>
    <path id="path183" class="st0" d="M3120.1,62.7s-12.4-10.4-11-20.4c6.2-2.4,19.1-.8,22.4.6-1.4,6.7-4.4,15-11.4,19.8Z"/>
    <path id="path189" class="st1" d="M2590.9,265.9c-28.7.2-58.3-1.8-83-8.8V100.3c0-6-7-21-9-26,8-21,10-48,5-68.9,21-11,52.9-21,52.9-21,0,0,15,15,34,15s34-15,34-15c0,0,32,10,52.9,21-5,21-3,47.9,5,68.9-2,5-9,20-9,26v156.8c-24.7,6.9-54.1,9-82.8,8.8h0Z"/>
    <path id="path190" class="st1" d="M3552.6,265.9c28.7.2,58.3-1.8,83-8.8V100.3c0-6,7-21,9-26-8-21-10-48-5-68.9-21-11-52.9-21-52.9-21,0,0-15,15-33.9,15s-34-15-34-15c0,0-32,10-52.9,21,5,21,3,47.9-5,68.9,2,5,9,20,9,26v156.8c24.7,6.9,54.1,9,82.8,8.8h0Z"/>
    <path id="path191" class="st0" d="M3470.1,134.2h165.6"/>
    <path id="path192" class="st0" d="M3470.1,162.3h165.6"/>
    <path id="path193" class="st0" d="M3470.1,172.8h165.6"/>
    <path id="path194" class="st0" d="M3470.1,201h165.6"/>
    <path id="path195" class="st1" d="M3561.4,141.1V40.1l-31.3,77.5h44.6"/>
    <path id="path196" class="st0" d="M2508,42s75.2,132.6,166.6,180.1"/>
    <path id="path197" class="st0" d="M2544.9-5.5s46.1,102.1,128.3,168.8"/>
    <path id="path198" class="st1" d="M2104.2,265.9c28.7.2,58.3-1.8,83-8.8V100.3c0-6,7-21,9-26-8-21-10-48-5-68.9-21-11-52.9-21-52.9-21,0,0-15,15-33.9,15s-34-15-34-15c0,0-32,10-52.9,21,5,21,3,47.9-5,68.9,2,5,9,20,9,26v156.8c24.7,6.9,54.1,9,82.8,8.8h0Z"/>
    <path id="path199" class="st0" d="M2141.1-12.3c-6.7,12.6-19.7,32.6-37.6,32.6s-29.3-20-36-32.6"/>
    <path id="path200" class="st0" d="M2076.1,47.9c0,5-8.1,9.1-18.1,9.1s-18.1-4.1-18.1-9.1,8.1-9.1,18.1-9.1,18.1,4.1,18.1,9.1Z"/>
    <path id="path201" class="st0" d="M2149.6,62.7s-12.4-10.4-11-20.4c6.2-2.4,19.1-.8,22.4.6-1.4,6.7-4.4,15-11.4,19.8Z"/>
    <path id="path202" class="st0" d="M2187.1,42s-75.1,132.6-166.6,180.1"/>
    <path id="path203" class="st0" d="M2150.3-5.5s-46.1,102.1-128.3,168.8"/>
    <path id="path204" class="st7" d="M2716.8-433.6h-263c-6.6,0-12-5.4-12-12v-184.1c0-6.6,5.4-12,12-12h263c6.6,0,12,5.4,12,12v184.1c0,6.6-5.4,12-12,12Z"/>
    <path id="path205" class="st7" d="M2692.7-432.5v9.3c0,5.1-4.2,9.4-9.4,9.4h-196.1c-5.1,0-9.4-4.2-9.4-9.4v-9.7"/>
    <path id="path206" class="st7" d="M2501.7-385.3v-30.8"/>
    <path id="path207" class="st7" d="M2525.7-416.1v30.8"/>
    <path id="path208" class="st7" d="M2642.7-385.3v-30.8"/>
    <path id="path209" class="st7" d="M2666.6-416.1v30.8"/>
    <path id="path210" class="st10" d="M3170.4-519c-12.5,20.8-50.6,36-95.6,36s-83.1-15.1-95.6-36"/>
    <path id="path211" class="st10" d="M2975.1-538c4.1-26.2,47.1-46.8,99.7-46.8s95,20.3,99.6,46.2"/>
    <path id="path212" class="st10" d="M2983.5-538.4c15-18.4,50.7-31.4,92.4-31.4s77.1,12.9,92.2,31.2"/>
    <path id="path213" class="st10" d="M2984.3-512.1c15.4-18,50.7-30.5,91.7-30.5s74.2,11.8,90.3,29"/>
    <path id="path214" class="st9" d="M3209.2-533.9c0,41.5-60.2,75.1-134.5,75.1s-134.4-33.6-134.4-75.1,60.2-75.1,134.4-75.1,134.5,33.6,134.5,75.1Z"/>
    <path id="path215" class="st9" d="M3209.2-533.9v33.6c0,41.5-60.2,75.1-134.5,75.1s-134.4-33.6-134.4-75.1v-33.6"/>
    <path id="path216" class="st9" d="M3209.2-500.3v33.6c0,41.5-60.2,75.1-134.5,75.1s-134.4-33.6-134.4-75.1v-33.6"/>
    <path id="path217" class="st10" d="M3074.8-483.1v91.4"/>
    <path id="path218" class="st10" d="M3160.3-407.9v-67.1l-17.3-22.5"/>
    <path id="path219" class="st10" d="M3177.4-533.9h31.8"/>
    <path id="path220" class="st10" d="M3150.8-566.2l-24.6,30"/>
    <path id="path221" class="st10" d="M3161.5-595.2l-19.6,22.5"/>
    <path id="path222" class="st10" d="M2989.2-407.9v-67.1l17.3-22.5"/>
    <path id="path223" class="st0" d="M2979-399.8v-119.8h-4.9l-.4-18.4h22.1l-12,18.4h-4.9"/>
    <path id="path224" class="st0" d="M3171.4-399.8v-119.8h-4.9l-9.9-18.9h22.1l-2.4,18.9h-4.9"/>
    <path id="path225" class="st0" d="M3130.4-605.1v-15.7h-4.9l-9.9-18.9h22.1l-2.4,18.9h-4.9"/>
    <path id="path226" class="st0" d="M3208.7-544.1v-41.1h-3.2l-2.2-18.9h10.2l-2.4,18.9h-2.4"/>
    <path id="path227" class="st0" d="M3018.2-605.1v-15.7h4.9l9.9-18.9h-22.1l2.4,18.9h4.9"/>
    <path id="path228" class="st0" d="M2941.2-544.1v-41.1h3.2l2.2-18.9h-10.2l2.4,18.9h2.4"/>
    <path id="path229" class="st10" d="M2973.2-533.9h-32.9"/>
    <path id="path230" class="st10" d="M2998-566.7l25.4,31.7"/>
    <path id="path231" class="st10" d="M2988.1-595.2l19.6,22.5"/>
    <path id="path232" class="st10" d="M3074.8-611.4v68.8"/>
    <path id="path233" class="st9" d="M2100-377c-16.4,0-49-3.2-55.9-4,0-5.3.8-9.8.8-9.8,0,0,31.1-17.5,31.1-51.7s-13.4-42.8-26.7-46.8c-5.3-16.9-32.4-139.7-33.7-146.3s0-20,17.7-22.2c17.7-2.2,34-4,67.3-4s45.7,1.8,63.4,4c17.7,2.2,19.1,15.5,17.7,22.2-1.3,6.7-28.4,129.5-33.7,146.3-13.3,4-26.7,24.4-26.7,46.8,0,34.2,31.1,51.7,31.1,51.7,0,0,.8,4.4.8,9.8-6.9.9-36.9,4-53.3,4Z"/>
    <path id="path234" class="st10" d="M2076.1-445h45.3"/>
    <path id="path235" class="st10" d="M2048-493.3h101.5"/>
    <path id="path236" class="st11" d="M2048.4-623.4c25.2-10.3,64.2-9.8,97.1-.5"/>
    <path id="path237" class="st11" d="M2055.7-607c21.4-8.7,54.5-8.3,82.4-.4"/>
    <path id="_x3C_Compound_Path_x3E_" class="st6" d="M2160.1-554.3c-3,0-5.4,2.5-5.3,5.4,0,.2,0,.6,0,1.1-.9,0-1.8,0-2.6.5h0c-1.3.6-2.3,1.6-2.8,2.9-.6,1.4-.6,2.9,0,4.2.1.3.5.9.9,1.6-.3,0-.5.2-.8.3-2.8,1.3-4,4.4-2.8,7.1.4.8,1.8,3.2,3.1,5.2-.2,0-.4.1-.6.2-2.8,1.3-4,4.4-2.8,7.1.4.9,2,3.5,3.4,5.6,0,.1.2.2.2.4-2.6,1.3-3.7,4.4-2.5,7,.2.5.9,1.7,1.8,3.1-1,0-1.9,0-2.8.5l-3.4-2.9-5.7-2.7-5.2,5.9c-.3-1.4-1.1-2.5-2.3-3.3-.9-.6-1.8-.9-2.7-1,1.1-1.2,1.9-2.3,2.3-2.8.8-1.2,1.1-2.7.7-4.1-.3-1.2-1.1-2.3-2.1-3.1.1-.1.2-.2.3-.3,1.8-1.8,3.8-4.2,4.3-5,.8-1.2,1.1-2.7.7-4.1-.3-1.3-1.1-2.5-2.3-3.3-.2-.1-.4-.2-.5-.3,1.7-1.8,3.5-3.9,4-4.6.8-1.2,1.1-2.7.7-4.1-.3-1.3-1.1-2.5-2.3-3.3-.2-.2-.5-.3-.7-.4.5-.6.9-1.2,1.1-1.4,1.6-2.4.9-5.7-1.6-7.5h0c-.9-.6-2-1-3.1-1,0-.6,0-1.2,0-1.5,0-1.4-.7-2.8-1.8-3.8-1.1-.9-2.4-1.4-3.8-1.3-3,0-5.4,2.5-5.3,5.4,0,.2,0,.6.1,1.1-.9,0-1.8,0-2.6.5-1.3.6-2.3,1.6-2.8,2.9-.6,1.3-.6,2.9,0,4.2.1.3.5.9.9,1.6-.3,0-.5.2-.8.3-2.8,1.3-4,4.4-2.8,7.1.4.8,1.8,3.2,3.1,5.2-.2,0-.4.1-.6.2-2.8,1.3-4,4.4-2.8,7.1.4.9,2,3.5,3.4,5.6,0,.1.2.2.2.4-2.6,1.3-3.7,4.4-2.5,7,.2.5.9,1.7,1.8,3.1-1,0-1.9,0-2.9.5-1.3.6-2.3,1.6-2.8,2.9l-8.7-4.2-8.7,4.2c-.5-1.3-1.6-2.3-2.8-2.9-.9-.4-1.9-.6-2.8-.5.8-1.4,1.5-2.6,1.8-3.1,1.2-2.6,0-5.6-2.6-7,0-.1.2-.2.2-.4,1.4-2.1,3-4.8,3.4-5.6,1.2-2.6,0-5.8-2.8-7.1-.2,0-.4-.2-.6-.2,1.4-2,2.8-4.4,3.1-5.2,1.2-2.6,0-5.8-2.8-7.1-.3-.1-.5-.2-.8-.3.4-.7.7-1.3.9-1.6.6-1.3.6-2.8,0-4.2-.5-1.3-1.5-2.3-2.8-2.9-.9-.4-1.7-.5-2.6-.5,0-.5,0-.8,0-1.1,0-2.9-2.3-5.3-5.3-5.4-1.4,0-2.8.4-3.8,1.3-1.1,1-1.8,2.3-1.8,3.8,0,.3,0,.8,0,1.5-1.1,0-2.1.3-3.1,1-2.5,1.7-3.2,5-1.6,7.5.2.3.6.8,1.1,1.4-.2.1-.5.2-.7.4h0c-1.2.8-2,2-2.3,3.3-.3,1.4,0,2.9.7,4.1.5.7,2.3,2.8,4,4.6-.2,0-.4.2-.5.3-1.2.8-2,2-2.3,3.3-.3,1.4,0,2.9.7,4.1.5.8,2.5,3.1,4.3,5,.1.1.2.2.3.3-1,.8-1.8,1.9-2.1,3.1-.4,1.4,0,2.9.7,4.1.3.5,1.2,1.6,2.3,2.8-.9,0-1.9.4-2.7,1-1.2.8-2,2-2.3,3.3l-5.2-5.9-5.7,2.7-3.4,2.9c-.9-.4-1.9-.6-2.8-.5.8-1.3,1.5-2.5,1.8-3.1,1.2-2.6,0-5.6-2.5-6.9,0-.1.2-.2.2-.4,1.4-2.1,3-4.8,3.4-5.6,1.2-2.6,0-5.8-2.8-7.1-.2,0-.4-.1-.6-.2,1.4-2,2.8-4.4,3.1-5.2,1.2-2.6,0-5.8-2.8-7.1-.3-.1-.5-.2-.8-.3.4-.7.7-1.3.9-1.6.6-1.3.6-2.8,0-4.2-.5-1.3-1.5-2.3-2.8-2.9-.8-.4-1.8-.5-2.6-.5,0-.5,0-.8,0-1.1,0-2.9-2.3-5.3-5.3-5.4"/>
    <path id="path238" class="st10" d="M2163.6-541.7c33.1-11.4,66.3-50.5,75.8-98.8-4.8-5.3-24.5-21.3-24.5-21.3,0,0-13.7,11.6-33.8,8.4"/>
    <path id="path239" class="st10" d="M2180.1-618.8c5.9-.8,11.4-9.3,13.5-14.5s6.3-13.7,13.1-13.5,18.6,15.8,7.6,38.6c-11,22.8-27.6,44.1-47.1,46.4"/>
    <path id="path240" class="st10" d="M2033.8-541.7c-33.1-11.4-66.3-50.5-75.8-98.8,4.8-5.3,24.5-21.3,24.5-21.3,0,0,13.7,11.6,33.8,8.4"/>
    <path id="path241" class="st10" d="M2017.2-618.8c-5.9-.8-11.4-9.3-13.5-14.5s-6.3-13.7-13.1-13.5-18.6,15.8-7.6,38.6,27.6,44.1,47.1,46.4"/>
    <path id="path242" class="st6" d="M2482.1-551.5v-16.1"/>
    <path id="path243" class="st6" d="M2482.1-570v-16.1"/>
    <path id="path244" class="st6" d="M2496.7-587.1h16.1"/>
    <path id="path245" class="st6" d="M2496.7-568.9h16.1"/>
    <path id="path246" class="st6" d="M2496.7-550.6h16.1"/>
    <path id="path247" class="st6" d="M2514.5-551.5v-16.1"/>
    <path id="path248" class="st6" d="M2514.5-570v-16.1"/>
    <path id="path249" class="st6" d="M2495.1-551.5v-16.1"/>
    <path id="path250" class="st6" d="M2495.1-570v-16.1"/>
    <path id="path251" class="st6" d="M2547.1-587.1h16.1"/>
    <path id="path252" class="st6" d="M2547.1-568.9h16.1"/>
    <path id="path253" class="st6" d="M2547.1-550.6h16.1"/>
    <path id="path254" class="st6" d="M2565.4-570v-16.1"/>
    <path id="path255" class="st6" d="M2545.4-551.5v-16.1"/>
    <path id="path256" class="st6" d="M2579.5-587.1h16.1"/>
    <path id="path257" class="st6" d="M2579.5-568.9h16.1"/>
    <path id="path258" class="st6" d="M2579.5-550.6h16.1"/>
    <path id="path259" class="st6" d="M2597.8-551.5v-16.1"/>
    <path id="path260" class="st6" d="M2577.8-551.5v-16.1"/>
    <path id="path261" class="st6" d="M2577.8-570v-16.1"/>
    <path id="path262" class="st6" d="M2646.1-551.5v-16.1"/>
    <path id="path263" class="st6" d="M2646.1-570v-16.1"/>
    <path id="path264" class="st6" d="M2660.2-587.1h16.1"/>
    <path id="path265" class="st6" d="M2660.2-568.9h16.1"/>
    <path id="path266" class="st6" d="M2660.2-550.6h16.1"/>
    <path id="path267" class="st6" d="M2678.5-551.5v-16.1"/>
    <path id="path268" class="st6" d="M2678.5-570v-16.1"/>
    <path id="path269" class="st6" d="M2692.6-568.9h16.1"/>
    <path id="path270" class="st6" d="M2710.9-551.5v-16.1"/>
    <path id="path271" class="st6" d="M2710.9-570v-16.1"/>
    <path id="path272" class="st6" d="M2691-570v-16.1"/>
    <path id="path273" class="st1" d="M2546.7-608.4h77.5"/>
    <path id="path274" class="st6" d="M2482.1-458.9v-16.1"/>
    <path id="path275" class="st6" d="M2482.1-477.4v-16.1"/>
    <path id="path276" class="st6" d="M2496.7-494.5h16.1"/>
    <path id="path277" class="st6" d="M2496.7-476.3h16.1"/>
    <path id="path278" class="st6" d="M2496.7-458.1h16.1"/>
    <path id="path279" class="st6" d="M2514.5-458.9v-16.1"/>
    <path id="path280" class="st6" d="M2495.1-477.4v-16.1"/>
    <path id="path281" class="st6" d="M2579.5-494.5h16.1"/>
    <path id="path282" class="st6" d="M2597.8-458.9v-16.1"/>
    <path id="path283" class="st6" d="M2597.8-477.4v-16.1"/>
    <path id="path284" class="st6" d="M2660.2-494.5h16.1"/>
    <path id="path285" class="st6" d="M2660.2-476.3h16.1"/>
    <path id="path286" class="st6" d="M2678.5-458.9v-16.1"/>
    <path id="path287" class="st6" d="M2678.5-477.4v-16.1"/>
    <path id="path288" class="st6" d="M2658.6-477.4v-16.1"/>
    <path id="path289" class="st6" d="M2692.6-494.5h16.1"/>
    <path id="path290" class="st6" d="M2710.9-458.9v-16.1"/>
    <path id="path291" class="st6" d="M2710.9-477.4v-16.1"/>
    <path id="path292" class="st1" d="M2546.7-515.9h77.5"/>
    <path id="path293" class="st0" d="M274-535.9c0,5.3-4.3,9.5-9.5,9.5s-9.6-4.3-9.6-9.5,4.3-9.5,9.6-9.5,9.5,4.3,9.5,9.5Z"/>
    <path id="path294" class="st0" d="M201.4-455.8c0,5.3-4.3,9.5-9.6,9.5s-9.6-4.3-9.6-9.5,4.3-9.5,9.6-9.5,9.6,4.3,9.6,9.5Z"/>
    <path id="path295" class="st0" d="M132.1-570.1c0,5.3-4.3,9.5-9.6,9.5s-9.6-4.3-9.6-9.5,4.3-9.5,9.6-9.5,9.6,4.3,9.6,9.5Z"/>
    <path id="path296" class="st0" d="M242.6-610.1c0,5.3-4.3,9.5-9.6,9.5s-9.6-4.3-9.6-9.5,4.3-9.5,9.6-9.5,9.6,4.3,9.6,9.5Z"/>
    <path id="path297" class="st0" d="M121.5-465.5c0,5.3-4.3,9.5-9.6,9.5s-9.6-4.3-9.6-9.5,4.3-9.5,9.6-9.5,9.6,4.3,9.6,9.5Z"/>
    <path id="path298" class="st0" d="M210-462.5c14.4-10.4,37.5-29.8,42.4-41.5"/>
    <path id="path299" class="st0" d="M241.1-503.6c4.5-1.8,14.4-7.2,14.4-7.2l3.6,15.8"/>
    <path id="path300" class="st0" d="M252.5-548.2c-15.1-9.5-44.8-35.7-107.6-31.7"/>
    <path id="path301" class="st0" d="M151.7-570.1c-3.4-3.5-12.1-10.7-12.1-10.7l13.3-9.3"/>
    <path id="path302" class="st0" d="M177.4-488.4l-14.2,14.2"/>
    <path id="path303" class="st0" d="M163.2-488.4l14.2,14.2"/>
    <path id="path304" class="st0" d="M228.4-543.9l-14.2,14.2"/>
    <path id="path305" class="st0" d="M214.2-543.9l14.2,14.2"/>
    <path id="path306" class="st0" d="M208.1-622.9l-14.2,14.2"/>
    <path id="path307" class="st0" d="M193.9-622.9l14.2,14.2"/>
    <path id="path308" class="st0" d="M85.3-492.7l-14.2,14.2"/>
    <path id="path309" class="st0" d="M71.1-492.7l14.2,14.2"/>
    <path id="path310" class="st0" d="M118.1-553l-14.2,14.2"/>
    <path id="path311" class="st0" d="M103.9-553l14.2,14.2"/>
    <path id="path312" class="st0" d="M36.5-561.5v-26.2"/>
    <path id="path313" class="st0" d="M105-630.4v-26.2"/>
    <path id="path314" class="st0" d="M82.2-608.1v-46.1"/>
    <path id="path315" class="st0" d="M59.3-584.5v-46.1"/>
    <path id="path316" class="st0" d="M2155.7-1216.6h-109.6c-6,0-33.6,7.4-39.6,11.1-6,3.7-25.3,41.9-30.8,52.9,13.3,3.7,21.9,3.7,29.2-5.1s12.3-19.4,15.5-22.1c3.2-2.8,11.9-3.2,18.3-3.2-.9,12-1.8,37.3-2.3,41.4-.5,4.1,6,15.7,23,17,17,1.4,45.6,5.5,52,6,6.4.5,53.9,24.4,61,27.8,14.3,6.9,26.1-14,8.6-23.6-17.5-9.7-44.7-23-50.6-25.8-6-2.8-49.7-12.9-49.7-12.9l6.6-37.8s48.2-.5,55.1-1.4c6.9-.9,13.4-11.1,13.4-24.4h0Z"/>
    <path id="path317" class="st0" d="M2048.4-1125.8l8.3,43.7s-19.3,34.9-22.6,41.1c-3.4,6.3-5.6,13.3,3.7,18,7.3,3.7,12.9-1.1,17.2-8.6,6.6-11.3,25.1-45.9,25.1-45.9v-44.7"/>
    <path id="path318" class="st0" d="M2099-1257.5c0,13.7-11.1,24.9-24.9,24.9s-24.9-11.1-24.9-24.9,11.1-24.9,24.9-24.9,24.9,11.1,24.9,24.9Z"/>
    <path id="path319" class="st9" d="M2579.3-1112.4c.6,9.1,18.6,22.5,39.6,21.1s37.2-17.2,36.6-26c-.6-8.7-18.6-22.5-39.6-21.1-21.1,1.3-37.2,16.9-36.6,26Z"/>
    <path id="path320" class="st0" d="M2594.9-1133.8c-8.8-7.5-16.1-13.6-16.1-13.6l17.7-31.7s2.2,0,6,3c9.1,7.3-5.1,36.4-.7,38"/>
    <path id="path321" class="st0" d="M2628.6-1139.6s13.4-31.8,2.2-55.8c-3.7-8-15.9-15.3-26.1-21.6-23.9-14.9-25.5-12.9-28.3-14.4-6.2-3.2-51.4-11.6-59.5-10.9-8.1.7-49.7,43.8-61.3,52.4,11.9,10.8,20.7,15.3,33,10.1s30.2-27.9,35-29,20.8,5,27.5,8.4c-7.2,11.9-21.5,37.7-24.2,41.8-2.7,4.1-2,19.4,14.9,29.8s44.4,29.7,50.8,33.6c6.4,3.9,43.1,53.6,48.6,60.9,11.2,14.6,34.4-.8,21.3-20-8.2-12.1-19.7-27.8-28.2-39.2"/>
    <path id="path322" class="st0" d="M2531.1-1136.2l-14.4,49.7s-38.4,26.1-45,30.7c-6.9,4.8-12.8,10.8-5.6,20.7,5.6,7.7,13.9,5.6,22.4.2,12.7-8.2,50.2-34.4,50.2-34.4l23.5-46.3"/>
    <path id="path323" class="st0" d="M2633.8-1248.7c-6.2,12.2-21.2,17.1-33.4,10.9s-17.1-21.2-10.9-33.4,21.2-17.1,33.4-10.9c12.2,6.2,17.1,21.2,10.9,33.4Z"/>
    <g id="g350">
      <path id="path31" class="st12" d="M3522.5-568.3s-20-16.2-19.6-31.9c.4-15.7,14.9-.8,14.9-.8"/>
      <path id="path32" class="st9" d="M3563-629.6c48.1,0,41.7,5.1,41.7,40.4s-19.8,54.9-41.7,54.9-41.7-25.7-41.7-54.9-6.4-40.4,41.7-40.4Z"/>
      <path id="path33" class="st12" d="M3603.4-568.3s20-16.2,19.6-31.9c-.4-15.7-14.9-.8-14.9-.8"/>
      <path id="path34" class="st0" d="M3517.9-613.8s-4.7-26.6-2.6-31.3c2.1-4.7,9.4-14.5,9.4-14.5l7.7,9.4,3-11.1,3.4,10.2,6.8-8.9,2.1,9.7,7.2-14.4,7.6,11.5,5.5-13.1,8.1,10.4,7.6-8.9,2.6,13.2,6.8-9.8.4,12.8,9.4-7.2-.9,10.8,11.5-1.9,2.1,11.3-1.7,8.3-5.9,19.6"/>
      <path id="path35" class="st11" d="M3527.3-530l9.3-14.5"/>
      <path id="path36" class="st11" d="M3595.2-530l-7.1-14.5"/>
      <path id="path184" class="st1" d="M3561.1-377.2c28.7.2,58.3-1.8,83-8.8,0-55.9,0-22.1,0-28.1s7-21,9-26c-8-21-10-47.9-5-68.9-21-11-52.9-21-52.9-21,0,0-15,15-34,15s-34-15-34-15c0,0-32,10-52.9,21,5,21,3,47.9-5,68.9,2,5,9,20,9,26s0-27.8,0,28.1c24.7,6.9,54.1,9,82.8,8.8h0Z"/>
      <path id="path185" class="st0" d="M3598-526.7c-6.7,12.6-19.7,32.6-37.6,32.6s-29.2-20-36-32.6"/>
      <path id="path186" class="st0" d="M3478.7-401.6h165.6"/>
      <path id="path187" class="st0" d="M3533.1-466.6c0,5-8.1,9.1-18.1,9.1s-18.1-4.1-18.1-9.1,8.1-9.1,18.1-9.1,18.1,4.1,18.1,9.1Z"/>
      <path id="path188" class="st0" d="M3606.5-451.8s-12.4-10.4-11-20.4c6.2-2.4,19.1-.8,22.4.6-1.4,6.7-4.4,15-11.4,19.8h0Z"/>
      <path id="path324" class="st12" d="M3474.3-509l-13.2,3.3c-9.4,2.8-22.9,7.2-26.7,21.1"/>
      <path id="path325" class="st12" d="M3470.9-446.6l-8.2,1c-4.8,0-5.8,8.6-5.8,8.6"/>
      <path id="path326" class="st12" d="M3648.1-509l13.3,3.3c9.4,2.8,22.9,7.2,26.7,21.1"/>
      <path id="path327" class="st12" d="M3651.6-446.6l8.2,1c4.8,0,5.8,8.6,5.8,8.6"/>
    </g>
    <path id="path328" class="st12" d="M3499.1-1299.3s28.8,78.7,25.3,133.4"/>
    <path id="path329" class="st12" d="M3569-1298.7s20,38.8,16.5,93.4"/>
    <path id="path330" class="st12" d="M3421-1044.9l23,14.8c16.8,10.5,38.9,5.4,49.4-11.4,10.5-16.8,5.4-38.9-11.4-49.4l-58.6-38"/>
    <path id="path331" class="st0" d="M2996.9-1085.1c12-5.9,32.5-11.9,47.2-14.1s31.8-6.5,40.2-12.2"/>
    <path id="path332" class="st0" d="M3069.6-1164.9s-5.1,4.4-30.8,24.4c15.4-12.2,41.8-5.7,51.9,3.1-5.4,1.3-17.3,11.8-25.2,22.1,27.5-12,32.6-2.8,43,4.6-16.9-3.8-21.7,4.2-28.3,10.8,5.2-14,4.3-20.4,16.2-26.3-19.4-15-37.8-5.9-45-1,11.4-12.1,23.4-25.1,28.5-25.4-16.8-8.4-46.7-10.6-53.9-1"/>
    <path id="path333" class="st1" d="M2954.2-1198.5c-4,6.7-15.2,31.5-23.7,51.3s7.5,34.1,22.1,38.9c14.6,4.8,40.3,16.7,55,34.2,14.8,17.5,53.4,27.8,82.1,33.2,28.6,5.5,61.7,6.9,78,0s4.5-26.8-3.4-34.2c-2.9-2.7-8.2-6.5-14.2-10.6"/>
    <path id="path334" class="st1" d="M3064.4-1162s-17.2-21.1-22.4-27.3"/>
    <path id="path335" class="st0" d="M2958.2-1200.7c-8.3,20.9-4.6,33.9,16.6,31.6,21.3-2.3,38.4-6.5,52.6,2.3s58.6,58.8,67.7,63.4c9.1,4.6,9.8,8.9,20.4-.3"/>
    <path id="path336" class="st0" d="M3122.6-1034.5c-.6,7-6.6,9.1-11.5,8.5-4.9-.6-11.8-3.7-10.3-12.5"/>
    <path id="path337" class="st0" d="M3167.8-1038.1c1.1,6.9-4.2,10.4-9.2,11-4.9.6-12.4-.8-13-9.6"/>
    <path id="path338" class="st0" d="M3079.7-1041.6c-.6,7-6.6,9.1-11.5,8.5-4.9-.6-11.8-3.7-10.4-12.5"/>
    <path id="path339" class="st0" d="M3044.3-1053.2c-.6,7-6.6,9.1-11.6,8.5-4.9-.6-11.8-3.7-10.3-12.5"/>
    <path id="path340" class="st0" d="M2972.1-1097.7c-.4,5.5-5.2,7.2-9.1,6.8-3.9-.5-9.4-2.9-8.2-9.9"/>
    <path id="path341" class="st0" d="M2945.7-1107.6c-2.6,4.9-7.7,4.6-11.1,2.6-3.4-2-7.5-6.4-3.6-12.3"/>
    <path id="path342" class="st0" d="M3001.6-1073.8c-3.8,5.9.2,10.3,3.6,12.3,3.4,2,8.5,2.3,11.1-2.6"/>
    <path id="path343" class="st0" d="M3013.9-1070.7c.2,0,.3-.1.5-.2"/>
    <path id="path344" class="st5" d="M3025.9-1074.5c19.9-6.1,39.9-11,51.9-12.6,14.1-1.9,27.4-2.4,43.6,4.3,15.3,6.3,34.6,20.8,35.6,37.8"/>
    <path id="path345" class="st0" d="M3156.5-1038.9c0,.2,0,.3-.1.5"/>
    <path id="path347" class="st3" d="M2943-1171.7c5.7,8.4,13.1,18.1,29.5,19.3,16.4,1.2,21.7-6.2,37.7,5.5s45.2,27.1,38.5,28.9c-14.1,3.9-49.3,18.7-65.1,23.8"/>
    <path id="path348" class="st0" d="M2992.7-1281.2c-1,75.8-34.5,83.6-34.5,83.6"/>
    <path id="path349" class="st0" d="M3053-1268.7s-14.9,53.2-15.1,71.8c-.2,16.1-.6,30.2,15.5,35.2"/>
  </g>
</svg>