<?xml version="1.0" encoding="UTF-8" standalone="no"?>
<svg
   version="1.2"
   viewBox="0 0 297.92002 191.1"
   width="297.92001"
   height="191.10001"
   id="svg350"
   xmlns="http://www.w3.org/2000/svg"
   xmlns:svg="http://www.w3.org/2000/svg">
  <defs
     id="defs350" />
  <style
     id="style1">
		.s0 { fill: none;stroke: currentColor;stroke-miterlimit:10;stroke-width: 12 } 
		.s1 { fill: none;stroke: currentColor;stroke-linecap: round;stroke-miterlimit:10;stroke-width: 6 } 
		.s2 { fill: none;stroke: currentColor;stroke-miterlimit:10;stroke-width: 6 } 
		.s3 { fill: none;stroke: currentColor;stroke-linecap: round;stroke-linejoin: round;stroke-width: 12 } 
		.s4 { fill: none;stroke: currentColor;stroke-linecap: round;stroke-linejoin: round;stroke-width: 6 } 
		.s5 { fill: none;stroke: currentColor;stroke-linecap: round;stroke-miterlimit:10;stroke-width: 12 } 
		.s6 { fill: none;stroke: currentColor;stroke-linejoin: round;stroke-width: 12 } 
		.s7 { fill: none;stroke: currentColor;stroke-linejoin: round;stroke-width: 6 } 
		.s8 { fill: none;stroke: currentColor;stroke-linecap: round;stroke-linejoin: round;stroke-width: 6;stroke-dasharray: 1.02815,12.3379 } 
		.s9 { fill: none;stroke: currentColor;stroke-linecap: round;stroke-linejoin: round;stroke-width: 6;stroke-dasharray: 1,12 } 
		.s10 { fill: none;stroke: currentColor;stroke-linecap: round;stroke-linejoin: round;stroke-width: 6;stroke-dasharray: 2.94418,11.7767 } 
		.s11 { fill: none;stroke: currentColor;stroke-linecap: round;stroke-linejoin: round;stroke-width: 6;stroke-dasharray: 1.0141,12.1692 } 
	</style>
  <g
     id="g678"
     transform="translate(-1762.75,-307.12)">
    <path
       id="&lt;Path&gt;"
       class="s0"
       d="m 1313.56,512.26 c 25.87,25.87 115.56,18.47 175.44,-41.41 59.89,-59.88 66.29,-150.57 41.42,-175.44 -24.87,-24.87 -115.56,-18.47 -175.44,41.41 -59.88,59.89 -67.28,149.58 -41.42,175.44 z" />
    <path
       id="path1"
       class="s1"
       d="M 1418.24,408.03 1328.26,498" />
    <path
       id="path2"
       class="s1"
       d="m 1516.77,309.5 -89.97,89.97" />
    <path
       id="path3"
       class="s1"
       d="m 1444.96,356.74 24.57,24.57" />
    <path
       id="path4"
       class="s1"
       d="m 1432.45,369.25 24.57,24.57" />
    <path
       id="path5"
       class="s1"
       d="m 1419.93,381.77 24.57,24.57" />
    <path
       id="path6"
       class="s1"
       d="m 1400.8,400.9 24.57,24.57" />
    <path
       id="path7"
       class="s1"
       d="m 1375.76,425.94 24.57,24.57" />
    <path
       id="path8"
       class="s1"
       d="m 1388.28,413.42 24.57,24.57" />
    <path
       id="path9"
       class="s1"
       d="m 1426.36,407.39 c -2.26,2.26 -5.92,2.26 -8.17,0 -2.26,-2.26 -2.26,-5.91 0,-8.17 2.25,-2.26 5.91,-2.26 8.17,0 2.25,2.26 2.25,5.91 0,8.17 z" />
  </g>
  <path
     id="path10"
     class="s2"
     d="m 1128.07,121.15 v 28.31" />
  <path
     id="path11"
     class="s2"
     d="m 1128.07,102.88 v 9.46" />
  <path
     id="path12"
     class="s2"
     d="m 1128.07,158.57 v 28.31" />
  <path
     id="path13"
     class="s2"
     d="m 1128.07,195.14 v 28.31" />
  <path
     id="path14"
     class="s2"
     d="M 1128.07,73.390001 V 45.09" />
  <path
     id="path15"
     class="s2"
     d="m 1128.07,91.670001 v -9.47" />
  <path
     id="path16"
     class="s2"
     d="M 1128.07,35.23 V 6.92" />
  <path
     id="path17"
     class="s2"
     d="M 1128.07,-0.6 V -28.91" />
  <path
     id="path18"
     class="s1"
     d="m 1134.61,96.930001 c 0,3.599999 -2.92,6.519999 -6.52,6.519999 -3.6,0 -6.51,-2.92 -6.51,-6.519999 0,-3.6 2.91,-6.52 6.51,-6.52 3.6,0 6.52,2.92 6.52,6.52 z" />
  <path
     id="path28"
     class="s0"
     d="m 569.38002,30.79 c 59.29,-59.29 137.42,-77.29 174.51,-40.19 37.09,37.09 19.1,115.22 -40.19,174.51 -59.29,59.29 -137.42,77.29 -174.52002,40.19 C 492.09,168.21 510.09,90.080001 569.38002,30.79 Z" />
  <path
     id="path29"
     class="s2"
     d="m 529.18,205.3 c -19.58,-19.58 12.60002,-83.53 71.89002,-142.82 59.29,-59.29 123.23,-91.47 142.82,-71.88" />
  <path
     id="path30"
     class="s3"
     d="m 2082.9,1312.69 h 42.94 l -40.31,100.76" />
  <path
     id="path31"
     class="s1"
     d="m 3036.39,694.4 c 0,0 -19.99,-16.17 -19.57,-31.91 0.43,-15.73 14.89,-0.85 14.89,-0.85" />
  <path
     id="path32"
     class="s0"
     d="m 3076.8,633.14 c 48.07,0 41.69,5.11 41.69,40.41 0,29.14 -19.84,54.88 -41.69,54.88 -21.85,0 -41.69,-25.74 -41.69,-54.88 0,-35.3 -6.38,-40.41 41.69,-40.41 z" />
  <path
     id="path33"
     class="s1"
     d="m 3117.21,694.4 c 0,0 19.99,-16.17 19.57,-31.91 -0.43,-15.73 -14.89,-0.85 -14.89,-0.85" />
  <path
     id="path34"
     class="s4"
     d="m 3031.71,648.88 c 0,0 -4.68,-26.62 -2.55,-31.3 2.12,-4.68 9.36,-14.52 9.36,-14.52 l 7.65,9.35 2.98,-11.06 3.4,10.21 6.81,-8.93 2.13,9.71 7.23,-14.39 7.65,11.49 5.53,-13.05 8.09,10.35 7.65,-8.93 2.56,13.19 6.8,-9.79 0.43,12.76 9.35,-7.23 -0.85,10.84 11.49,-1.9 2.13,11.26 -1.71,8.33 -5.95,19.57" />
  <path
     id="path35"
     class="s5"
     d="m 3041.13,732.75 9.3,-14.53" />
  <path
     id="path36"
     class="s5"
     d="m 3109.05,732.75 -7.13,-14.53" />
  <path
     id="path37"
     class="s0"
     d="m 1247.83,764.19 c -21.47,29.69 -54.35,42.57 -73.45,28.77 -7.74,-5.59 -12.02,-14.71 -12.95,-25.56 -1.37,-15.91 4.48,-35.54 17.25,-53.2 21.47,-29.7 54.35,-42.58 73.45,-28.77 19.09,13.8 17.16,49.06 -4.3,78.76 z" />
  <path
     id="path38"
     class="s0"
     d="M 1062.95,836.92 1178.68,714.2" />
  <path
     id="path39"
     class="s6"
     d="m 1162.38,768.3 -89.51,94.91 -81.34998,-56.23 -0.5,-18.68 c 0,0 115.08998,-125.5 123.01998,-132.94 7.94,-7.44 30.26,-20.34 46.63,-12.9 16.37,7.44 91.46,42.97 91.46,42.97" />
  <path
     id="path40"
     class="s0"
     d="M 1062.95,836.92 991.02002,788.3" />
  <path
     id="path41"
     class="s0"
     d="m 1062.95,836.92 9.92,26.29" />
  <path
     id="path42"
     class="s7"
     d="m 1099.35,700.73 25.93,-27.82 41.5,19.33 -26.4,29.24 z" />
  <path
     id="path43"
     class="s2"
     d="m 1117.08,681.4 41.5,19.34" />
  <path
     id="path44"
     class="s0"
     d="M 1174.38,792.96 1151.69,780.9" />
  <path
     id="path45"
     class="s2"
     d="m 1186.12,653.57 c 0,0 7.54,-8.01 13.2,-11.31 5.66,-3.3 13.08,-1.64 17.45,0.47 6.94,3.34 11.7,7.58 9.43,14.62 -1.94,6.04 -8.45,13.08 -8.45,13.08" />
  <path
     id="path46"
     class="s4"
     d="m 96.89,801.94 c 10.51,-8.51 29.53,-19.02 43.55,-24.52 14.01,-5.51 30.03,-13.52 37.03,-21.03" />
  <path
     id="path47"
     class="s4"
     d="m 150.95,706.85 c 0,0 -4.01,5.5 -25.03,31.03 12.52,-15.52 40.04,-15.02 52.06,-8.51 -5.01,2.5 -14.52,15.51 -20.02,27.53 24.52,-18.02 39.53,-12.02 51.55,-7.01 -17.52,0 -28.53,11.01 -33.54,19.02 2.01,-15.02 6.01,-21.02 16.52,-29.53 -22.52,-10.51 -45.05,2.5 -51.05,9.01 8.51,-14.52 17.52,-30.03 22.52,-31.53 -18.52,-4.51 -48.55,0 -53.55,11.01" />
  <path
     id="path48"
     class="s3"
     d="m 146.44,710.85 c 0,0 -16.01,-13.01 -22.52,-18.02 -6.51,-5 -35.53,-16.52 -35.03,12.51 0.28,16.64 -14.52,-8.5 -33.54,-20.52 -19.02,-12.01 -23.52,7.01 -26.02,14.52 -2.51,7.51 -8.01,34.53 -12.02,56.05 -4,21.53 15.02,32.04 30.54,33.54 15.51,1.5 43.54,7.5 62.06,21.52 18.52,14.01 59.06,15.51 88.59,14.51 29.53,-1 62.56,-7 77.07,-17.51 14.52,-10.51 -1.5,-27.53 -11.01,-33.04 -9.51,-5.5 -37.54,-15.01 -51.05,-21.02" />
  <path
     id="path49"
     class="s4"
     d="m 32.83,696.33 c -3.5,22.53 3,34.54 23.52,27.53 20.52,-7 36.54,-15.01 52.56,-9.51 16.01,5.51 71.07,45.05 81.08,47.55 10.01,2.5 15.01,3 23.52,-8.51" />
  <path
     id="path50"
     class="s4"
     d="m 232.53,823.96 c 1,7.01 -4.5,10.51 -9.51,11.01 -5,0.5 -12.51,-1 -13.01,-10.01" />
  <path
     id="path51"
     class="s4"
     d="m 276.43,810.27 c 2.64,6.57 -1.87,11.28 -6.61,12.96 -4.74,1.68 -12.39,2.01 -15.02,-6.62" />
  <path
     id="path52"
     class="s4"
     d="m 188.49,826.46 c 1,7.01 -4.51,10.52 -9.51,11.02 -5.01,0.5 -12.52,-1.01 -13.02,-10.01" />
  <path
     id="path53"
     class="s4"
     d="m 150.95,822.96 c 1,7.01 -4.51,10.51 -9.51,11.01 -5.01,0.5 -12.51,-1 -13.01,-10.01" />
  <path
     id="path54"
     class="s4"
     d="m 69.54,795.08 c 0.8,5.56 -3.57,8.33 -7.53,8.73 -3.97,0.4 -9.92,-0.79 -10.31,-7.93" />
  <path
     id="path55"
     class="s4"
     d="m 41.25,791.15 c -1.47,5.42 -6.57,6.25 -10.37,5.05 -3.8,-1.2 -8.8,-4.64 -6.34,-11.36" />
  <path
     id="path56"
     class="s4"
     d="m 104.06,812.11 c -2.45,6.71 2.55,10.15 6.35,11.35 3.8,1.2 8.9,0.37 10.36,-5.04" />
  <path
     id="path57"
     class="s4"
     d="m 116.91,812.45 q 0.22,-0.13 0.43,-0.26" />
  <path
     id="path58"
     class="s8"
     d="m 127.98,805.95 c 18.34,-10.49 37.01,-19.78 48.49,-24.03 13.52,-5 26.53,-8.51 44.05,-5.51 16.51,2.84 38.82,12.87 43.61,29.46" />
  <path
     id="path59"
     class="s4"
     d="m 265.06,811.95 q 0,0.25 0,0.5" />
  <path
     id="path61"
     class="s9"
     d="m 24.32,728.37 c 7.51,7 17.02,15.01 33.54,12.51 16.51,-2.5 20.02,-11.01 38.53,-3 18.52,8 50.78,16.66 44.55,20.02 -13.01,7 -44.55,29.53 -59.06,38.03" />
  <path
     id="path62"
     class="s4"
     d="m 683.25002,733.73 c -10.51,-8.51 -29.53,-19.02 -43.55,-24.52 -14.01,-5.51 -30.03,-13.52 -37.03,-21.02" />
  <path
     id="path63"
     class="s4"
     d="m 629.19002,638.64 c 0,0 4.01,5.5 25.03,31.03 -12.52,-15.52 -40.04,-15.02 -52.05,-8.51 5,2.5 14.51,15.51 20.02,27.53 -24.53,-18.02 -39.54,-12.02 -51.56,-7.01 17.52,0 28.53,11.01 33.54,19.02 -2,-15.02 -6.01,-21.02 -16.52,-29.53 22.52,-10.51 45.05,2.5 51.05,9.01 -8.51,-14.52 -17.52,-30.03 -22.52,-31.53 18.52,-4.51 48.55,0 53.55,11.01" />
  <path
     id="path64"
     class="s3"
     d="m 633.70002,642.64 c 0,0 16.01,-13.01 22.52,-18.02 6.51,-5 35.53,-16.51 35.03,12.51 -0.28,16.64 14.52,-8.5 33.54,-20.52 19.02,-12.01 23.52,7.01 26.02,14.52 2.51,7.51 8.01,34.53 12.02,56.05 4,21.53 -15.02,32.04 -30.53,33.54 -15.52,1.5 -43.55,7.51 -62.07,21.52 -18.52,14.01 -59.06,15.52 -88.59,14.51 -29.52,-1 -62.56002,-7 -77.07002,-17.51 -14.52,-10.51 1.5,-27.53 11.01,-33.04 9.51,-5.5 37.54002,-15.01 51.05002,-21.02" />
  <path
     id="path65"
     class="s4"
     d="m 747.31002,628.13 c 3.5,22.52 -3,34.53 -23.52,27.52 -20.52,-7 -36.54,-15.01 -52.56,-9.51 -16.01,5.51 -71.07,45.05 -81.08,47.55 -10.01,2.5 -15.01,3 -23.52,-8.51" />
  <path
     id="path66"
     class="s4"
     d="m 547.61002,755.75 c -1,7.01 4.51,10.51 9.51,11.01 5.01,0.5 12.51,-1 13.01,-10.01" />
  <path
     id="path67"
     class="s4"
     d="m 503.71,742.06 c -2.64,6.57 1.87,11.28 6.61,12.96 4.74,1.68 12.39,2.01 15.03,-6.61" />
  <path
     id="path68"
     class="s4"
     d="m 591.65002,758.26 c -1,7 4.51,10.51 9.51,11.01 5.01,0.5 12.52,-1 13.02,-10.01" />
  <path
     id="path69"
     class="s4"
     d="m 629.19002,754.75 c -1,7.01 4.51,10.51 9.51,11.01 5.01,0.5 12.51,-1 13.01,-10.01" />
  <path
     id="path70"
     class="s4"
     d="m 710.60002,726.87 c -0.8,5.56 3.57,8.33 7.53,8.73 3.97,0.4 9.92,-0.79 10.31,-7.93" />
  <path
     id="path71"
     class="s4"
     d="m 738.89002,722.94 c 1.47,5.42 6.57,6.25 10.37,5.05 3.8,-1.2 8.8,-4.64 6.35,-11.36" />
  <path
     id="path72"
     class="s4"
     d="m 676.08002,743.9 c 2.45,6.71 -2.55,10.15 -6.35,11.35 -3.8,1.2 -8.9,0.37 -10.36,-5.04" />
  <path
     id="path73"
     class="s4"
     d="m 663.23002,744.24 q -0.22,-0.13 -0.43,-0.26" />
  <path
     id="path74"
     class="s8"
     d="m 652.16002,737.74 c -18.34,-10.49 -37.01,-19.78 -48.49,-24.03 -13.52,-5 -26.53,-8.51 -44.05,-5.5 -16.51,2.83 -38.82002,12.86 -43.61002,29.45" />
  <path
     id="path75"
     class="s4"
     d="m 515.08,743.74 q 0,0.25 0,0.5" />
  <path
     id="path76"
     class="s9"
     d="m 755.82002,660.16 c -7.51,7 -17.02,15.01 -33.53,12.51 -16.52,-2.5 -20.02,-11.01 -38.54,-3 -18.52,8.01 -50.78,16.66 -44.55,20.02 13.02,7 44.55,29.53 59.06,38.03" />
  <path
     id="path77"
     class="s3"
     d="m 498.17,816.72 c 0,14.79 4.69,41.47 50.86002,41.11 46.16,-0.36 62.03,-3.24 83.31,-1.8 21.28,1.44 50.85,10.46 74.66,8.66 23.8,-1.81 64.1,-16.06 63.47,-47.25 -0.71,-35.75 -36.43,-44 -66,-40.76 -29.57,3.25 -77.54,29.22 -105.67,25.97 -28.13,-3.24 -50.4,-17.56 -73.84002,-16.84 -23.44,0.72 -26.07,22.97 -26.79,30.91 z" />
  <path
     id="path78"
     class="s4"
     d="m 535.32002,805.9 c 0,3.58 -2.91,6.49 -6.49002,6.49 -3.59,0 -6.49,-2.91 -6.49,-6.49 0,-3.59 2.9,-6.49 6.49,-6.49 3.58002,0 6.49002,2.9 6.49002,6.49 z" />
  <path
     id="path79"
     class="s4"
     d="m 565.61002,812.97 c 0,3.58 -2.91,6.49 -6.49,6.49 -3.59,0 -6.49,-2.91 -6.49,-6.49 0,-3.59 2.9,-6.5 6.49,-6.5 3.58,0 6.49,2.91 6.49,6.5 z" />
  <path
     id="path80"
     class="s4"
     d="m 562.83002,836.44 c 0,3.58 -2.9,6.49 -6.49,6.49 -3.58,0 -6.49,-2.91 -6.49,-6.49 0,-3.59 2.91,-6.49 6.49,-6.49 3.59,0 6.49,2.9 6.49,6.49 z" />
  <path
     id="path81"
     class="s4"
     d="m 534.01002,832.45 c 0,3.59 -2.91,6.49 -6.49002,6.49 -3.59,0 -6.49,-2.9 -6.49,-6.49 0,-3.58 2.9,-6.49 6.49,-6.49 3.58002,0 6.49002,2.91 6.49002,6.49 z" />
  <path
     id="path82"
     class="s4"
     d="m 674.10002,839.52 c 0,3.59 -2.91,6.49 -6.5,6.49 -3.58,0 -6.49,-2.9 -6.49,-6.49 0,-3.59 2.91,-6.49 6.49,-6.49 3.59,0 6.5,2.9 6.5,6.49 z" />
  <path
     id="path83"
     class="s4"
     d="m 674.85002,808.47 c 0,3.59 -2.9,6.5 -6.49,6.5 -3.58,0 -6.49,-2.91 -6.49,-6.5 0,-3.58 2.91,-6.49 6.49,-6.49 3.59,0 6.49,2.91 6.49,6.49 z" />
  <path
     id="path84"
     class="s4"
     d="m 704.64002,799.14 c 0,3.58 -2.91,6.49 -6.49,6.49 -3.59,0 -6.5,-2.91 -6.5,-6.49 0,-3.59 2.91,-6.5 6.5,-6.5 3.58,0 6.49,2.91 6.49,6.5 z" />
  <path
     id="path85"
     class="s4"
     d="m 739.48002,800.95 c 0,3.58 -2.9,6.49 -6.49,6.49 -3.58,0 -6.49,-2.91 -6.49,-6.49 0,-3.59 2.91,-6.49 6.49,-6.49 3.59,0 6.49,2.9 6.49,6.49 z" />
  <path
     id="path86"
     class="s4"
     d="m 738.97002,833.72 c 0,3.58 -2.91,6.49 -6.5,6.49 -3.58,0 -6.49,-2.91 -6.49,-6.49 0,-3.59 2.91,-6.5 6.49,-6.5 3.59,0 6.5,2.91 6.5,6.5 z" />
  <path
     id="path87"
     class="s4"
     d="m 707.92002,843.56 c 0,3.58 -2.91,6.49 -6.49,6.49 -3.59,0 -6.49,-2.91 -6.49,-6.49 0,-3.59 2.9,-6.49 6.49,-6.49 3.58,0 6.49,2.9 6.49,6.49 z" />
  <path
     id="path88"
     class="s4"
     d="m 546.59002,787.36 c 0,0 70.54,5.66 118.43,-1.55" />
  <path
     id="path89"
     class="s4"
     d="m 1095.06,691.6 -64.42,-21.08" />
  <path
     id="path90"
     class="s4"
     d="M 1103.41,676.49 1055.69,623.6" />
  <path
     id="path91"
     class="s4"
     d="m 1121.7,664.95 -20.28,-55.27" />
  <path
     id="path92"
     class="s1"
     d="m 572.53002,120.95 -24.57,-24.569999" />
  <path
     id="path93"
     class="s1"
     d="m 583.63002,107.49 -24.57,-24.569999" />
  <path
     id="path94"
     class="s1"
     d="m 594.73002,93.310001 -24.57,-24.56" />
  <path
     id="path95"
     class="s1"
     d="M 613.86002,74.180001 589.30002,49.61" />
  <path
     id="path96"
     class="s1"
     d="m 639.84002,50.09 -24.57,-24.57" />
  <path
     id="path97"
     class="s1"
     d="m 626.38002,61.67 -24.57,-24.57" />
  <path
     id="path98"
     class="s1"
     d="m 588.30002,67.69 c 2.26,-2.25 5.92,-2.25 8.17,0 2.26,2.260001 2.26,5.920001 0,8.180001 -2.25,2.25 -5.91,2.25 -8.17,0 -2.25,-2.26 -2.25,-5.92 0,-8.180001 z" />
  <path
     id="path99"
     class="s0"
     d="M 3077.39,69.840001 C 3021.41,98.970001 2990.8,150.98 3009.03,186 c 18.23,35.03 78.38,39.8 134.36,10.67 55.98,-29.13 86.59,-81.14 68.36,-116.159999 C 3193.53,45.48 3133.37,40.71 3077.39,69.840001 Z" />
  <path
     id="path100"
     class="s2"
     d="m 3211.75,80.510001 c -9.62,-18.500001 -62.8,-9.87 -118.78,19.26 C 3036.98,128.9 2999.4,167.51 3009.03,186" />
  <path
     id="path101"
     class="s1"
     d="m 3141.39,92.520001 -12.07,-23.2" />
  <path
     id="path102"
     class="s1"
     d="m 3129.21,97.440001 -12.07,-23.2" />
  <path
     id="path103"
     class="s1"
     d="M 3116.53,102.2 3104.46,79.000001" />
  <path
     id="path104"
     class="s1"
     d="M 3098.47,111.6 3086.39,88.400001" />
  <path
     id="path105"
     class="s1"
     d="m 3075.29,124.79 -12.07,-23.2" />
  <path
     id="path106"
     class="s1"
     d="M 3086.65,117.75 3074.57,94.550001" />
  <path
     id="path107"
     class="s1"
     d="m 3099.6,91.780001 c -2.13,1.11 -2.96,3.74 -1.85,5.87 1.1,2.13 3.73,2.959999 5.86,1.85 2.13,-1.11 2.96,-3.74 1.85,-5.87 -1.11,-2.13 -3.73,-2.96 -5.86,-1.85 z" />
  <path
     id="path108"
     class="s0"
     d="m 2715.43,56.91 c -19.9,-53.23 -63.03,-86.29 -96.33,-73.84 -33.3,12.45 -44.17,65.7 -24.27,118.93 19.9,53.23 63.03,86.29 96.33,73.84 33.3,-12.45 44.17,-65.7 24.27,-118.93 z" />
  <path
     id="path109"
     class="s2"
     d="m 2691.16,175.84 c 17.59,-6.58 15.71,-55.06 -4.19,-108.29 -19.9,-53.23 -50.29,-91.05 -67.87,-84.48" />
  <path
     id="path110"
     class="s1"
     d="m 2688.14,111.63 22.06,-8.25" />
  <path
     id="path111"
     class="s1"
     d="m 2685.08,100.21 22.06,-8.249999" />
  <path
     id="path112"
     class="s1"
     d="m 2682.22,88.350001 22.05,-8.25" />
  <path
     id="path113"
     class="s1"
     d="M 2675.79,71.170001 2697.85,62.92" />
  <path
     id="path114"
     class="s1"
     d="m 2666.54,49.01 22.06,-8.25" />
  <path
     id="path115"
     class="s1"
     d="m 2671.59,59.93 22.06,-8.24" />
  <path
     id="path116"
     class="s1"
     d="m 2693.38,74.350001 c -0.76,-2.02 -3.01,-3.05 -5.04,-2.29 -2.02,0.75 -3.05,3.01 -2.29,5.04 0.75,2.02 3.01,3.05 5.03,2.29 2.03,-0.76 3.06,-3.01 2.3,-5.04 z" />
  <path
     id="path117"
     class="s0"
     d="m 70.55,1379.58 c 16.73,-29.28 45.16,-44.53 63.48,-34.06 18.32,10.47 19.6,42.7 2.86,71.99 -16.74,29.28 -45.16,44.53 -63.48,34.06 -18.32,-10.47 -19.6,-42.7 -2.86,-71.99 z" />
  <path
     id="path118"
     class="s2"
     d="m 73.41,1451.57 c -9.68,-5.53 -3.95,-33.75 12.79,-63.04 16.74,-29.28 38.15,-48.54 47.83,-43.01" />
  <path
     id="path119"
     class="s1"
     d="M 81.31,1414.24 69.17,1407.3" />
  <path
     id="path120"
     class="s1"
     d="m 84.19,1407.84 -12.13,-6.93" />
  <path
     id="path121"
     class="s1"
     d="m 87,1401.17 -12.13,-6.94" />
  <path
     id="path122"
     class="s1"
     d="m 92.4,1391.72 -12.13,-6.94" />
  <path
     id="path123"
     class="s1"
     d="M 99.94,1379.62 87.8,1372.68" />
  <path
     id="path124"
     class="s1"
     d="M 95.94,1385.54 83.8,1378.6" />
  <g
     id="g679">
    <path
       id="path19"
       class="s0"
       d="M 6,96.740001 C 6,138.74 70.01,185.1 148.96,185.1 227.91,185.1 291.92,129.53 291.92,96.740001 291.92,57.34 227.91,10.31 148.96,10.31 70.01,10.31 6,54.62 6,96.740001 Z" />
    <path
       id="path20"
       class="s2"
       d="M 6.45,95.710001 C 6.45,114.2 70.45,134.59 149.41,134.59 c 78.95,0 142.96,-24.45 142.96,-38.879999" />
    <path
       id="path21"
       class="s1"
       d="M 154.31,4.7 V 18.21" />
    <path
       id="path22"
       class="s1"
       d="M 146.05,3 V 7.45" />
    <path
       id="path23"
       class="s1"
       d="M 137.11,4.7 V 18.21" />
    <path
       id="path24"
       class="s1"
       d="M 124.37,5.45 V 18.96" />
    <path
       id="path25"
       class="s1"
       d="m 111.47,7.64 v 13.5" />
    <path
       id="path26"
       class="s1"
       d="M 168,5.63 V 19.14" />
    <path
       id="path27"
       class="s1"
       d="M 181.7,7.39 V 20.9" />
    <path
       id="path125"
       class="s1"
       d="m 97.63,18.02 c 0,0 -0.12,10.96 7.52,12.55 7.65,1.59 29.94,-2.7 39.81,6.05 8.28,-7.32 29.3,-4.14 37.11,-6.53 7.8,-2.38 10.03,-4.93 10.67,-11.46" />
  </g>
  <path
     id="path126"
     class="s0"
     d="m -479.25,1376.54 v 59.31" />
  <path
     id="path127"
     class="s1"
     d="m -479.25,1300.62 v 75.92" />
  <path
     id="path128"
     class="s0"
     d="m -384.94,1376.54 v 59.31" />
  <path
     id="path129"
     class="s1"
     d="m -384.94,1266.22 v 110.32" />
  <path
     id="path130"
     class="s0"
     d="m -290.64,1376.54 v 59.31" />
  <path
     id="path131"
     class="s1"
     d="m -290.64,1266.22 v 110.32" />
  <path
     id="path132"
     class="s0"
     d="m -196.33,1376.54 v 59.31" />
  <path
     id="path133"
     class="s1"
     d="m -196.33,1300.62 v 75.92" />
  <path
     id="path134"
     class="s2"
     d="m -479.25,1432.73 h 282.92" />
  <path
     id="path135"
     class="s1"
     d="m -290.64,1435.85 34.61,65.45 h -162.93 l 34.02,-65.45" />
  <path
     id="path136"
     class="s0"
     d="m 8.52,1400.91 v 82.74" />
  <path
     id="path137"
     class="s1"
     d="m 8.52,1295.02 v 105.89" />
  <path
     id="path138"
     class="s0"
     d="m 102.83,1450.66 v 32.99" />
  <path
     id="path139"
     class="s1"
     d="m 102.83,1247.03 v 99.12" />
  <path
     id="path140"
     class="s0"
     d="m 197.13,1400.91 v 82.74" />
  <path
     id="path141"
     class="s1"
     d="m 197.13,1247.03 v 153.88" />
  <path
     id="path142"
     class="s0"
     d="m 291.44,1400.91 v 82.74" />
  <path
     id="path143"
     class="s1"
     d="m 291.44,1295.02 v 105.89" />
  <path
     id="path144"
     class="s2"
     d="M 8.52,1480.43 H 291.44" />
  <path
     id="path145"
     class="s1"
     d="m 197.13,1480.81 34.62,45.29 H 68.81 l 34.02,-45.29" />
  <path
     id="path146"
     class="s2"
     d="m 644.43002,1397.33 c -4.76,4.76 -12.48,4.76 -17.24,0 -4.76,-4.76 -4.76,-12.48 0,-17.24 4.76,-4.76 12.48,-4.76 17.24,0 4.76,4.76 4.76,12.48 0,17.24 z" />
  <path
     id="path147"
     class="s2"
     d="m 637.49002,1254.97 c -2.35,29.36 -18.01,62.31 -45.26,89.56 -27.64,27.63 -61.13,43.35 -90.79002,45.35" />
  <path
     id="path148"
     class="s2"
     d="m 770.36002,1387.84 c -29.36,2.35 -62.31,18.01 -89.56,45.26 -27.64,27.64 -43.35,61.13 -45.35,90.79" />
  <path
     id="path149"
     class="s2"
     d="m 538.12002,1279.22 13.05,13.06 -11.85,11.85 -13.05002,-13.06" />
  <path
     id="path150"
     class="s2"
     d="m 745.30002,1486.4 -13.06,-13.05 -11.85,11.85 13.06,13.05" />
  <path
     id="path151"
     class="s0"
     d="m 550.61002,1473.91 c 50.97,50.98 122.57,64.48 171.25,35.83 l 34.68,-34.47 c 29.05,-48.69 15.62,-120.61 -35.53,-171.77 -51.15,-51.15 -123.07,-64.57 -171.76,-35.52 L 514.78,1302.65 c -28.65,48.69 -15.15,120.29 35.83002,171.26 z" />
  <path
     id="path152"
     class="s2"
     d="m 635.81002,1445.26 -56.55,-56.55 56.55,-56.55 56.55,56.55 z" />
  <path
     id="path153"
     class="s2"
     d="m -205.73,606.41 c -4.66,58.36 -35.81,123.87 -89.99,178.06 -54.94,54.94 -121.52,86.19 -180.5,90.16" />
  <path
     id="path154"
     class="s2"
     d="m -403.29,654.62 25.95,25.96 -23.56,23.56 -25.95,-25.96" />
  <path
     id="path155"
     class="s0"
     d="m -192.55,612.45 c -67.13,-18.25 -134.96,-12.18 -188.6,19.82 l -68.54,68.94 c -31.29,53.17 -37.3,120.09 -19.55,186.41" />
  <path
     id="path156"
     class="s2"
     d="m -305.19,888.61 -16.31,-16.31 112.43,-112.43 17.92,17.92" />
  <path
     id="path157"
     class="s2"
     d="m 1131.93,1395.55 c -4.9,2.66 -12.83,2.66 -17.72,0 -4.89,-2.66 -4.89,-6.97 0,-9.63 4.89,-2.65 12.82,-2.65 17.72,0 4.89,2.66 4.89,6.97 0,9.63 z" />
  <path
     id="path158"
     class="s2"
     d="m 1124.79,1316.06 c -2.41,16.39 -18.5,34.79 -46.5,50.01 -28.4,15.43 -62.81,24.21 -93.28998,25.32" />
  <path
     id="path159"
     class="s2"
     d="m 1261.32,1390.25 c -30.17,1.31 -64.02,10.06 -92.03,25.28 -28.39,15.43 -44.54,34.13 -46.59,50.69" />
  <path
     id="path160"
     class="s2"
     d="m 1022.69,1329.6 13.41,7.29 -12.17,6.62 -13.42,-7.29" />
  <path
     id="path161"
     class="s2"
     d="m 1235.57,1445.29 -13.42,-7.29 -12.17,6.61 13.41,7.29" />
  <path
     id="path162"
     class="s0"
     d="m 1035.52,1438.31 c 52.38,28.47 125.95,36.01 175.97,20.01 l 35.63,-19.25 c 29.84,-27.19 16.05,-67.35 -36.5,-95.91 -52.56,-28.56 -126.46,-36.05 -176.49,-19.83 l -35.41998,19.36 c -29.44,27.18 -15.57,67.16 36.80998,95.62 z" />
  <path
     id="path163"
     class="s2"
     d="m 1123.07,1422.31 -58.11,-31.57 58.11,-31.58 58.1,31.58 z" />
  <path
     id="path164"
     class="s0"
     d="m 1690.2,119.04 c 5.54,5.54 24.76,3.95 37.59,-8.88 12.83,-12.829999 14.21,-32.259999 8.88,-37.589999 -5.33,-5.330001 -24.77,-3.96 -37.6,8.87 -12.83,12.83 -14.41,32.049999 -8.87,37.599999 z" />
  <path
     id="path165"
     class="s4"
     d="m 1225.26,97.220001 q 0.73,-0.07 1.49,-0.08 -0.76,-0.02 -1.49,-0.09" />
  <path
     id="path166"
     class="s10"
     d="M 1214.92,91.980001 C 1201.17,77.330001 1204.96,34.59 1188.65,4.6 c -12.32,-22.65 -30.74,-28.82 -60.84,-28.82 -30.09,0 -48.51,6.17 -60.83,28.82 -17.94,32.98 -11.57,81.380001 -30.95,90.890001" />
  <path
     id="path167"
     class="s4"
     d="m 1030.37,97.050001 q -0.73,0.07 -1.5,0.09 0.77,0.01 1.5,0.08" />
  <path
     id="path168"
     class="s10"
     d="m 1040.7,102.29 c 13.76,14.65 9.97,57.39 26.28,87.38 12.32,22.65 30.74,28.82 60.83,28.82 30.1,0 48.52,-6.17 60.84,-28.82 17.94,-32.98 11.56,-81.38 30.95,-90.889999" />
  <path
     id="path170"
     class="s5"
     d="m 1149.97,116.89 h -45.15" />
  <path
     id="path171"
     class="s5"
     d="m 1149.97,190.51 h -45.15" />
  <path
     id="path172"
     class="s5"
     d="m 1149.97,153.7 h -45.15" />
  <path
     id="path173"
     class="s5"
     d="m 1149.97,3.31 h -45.15" />
  <path
     id="path174"
     class="s5"
     d="m 1149.97,76.920001 h -45.15" />
  <path
     id="path175"
     class="s5"
     d="m 1149.97,40.11 h -45.15" />
  <path
     id="path176"
     class="s3"
     d="m 2588.51,1528.62 c 28.68,0.23 58.29,-1.82 82.99,-8.75 0,-55.93 0,-150.81 0,-156.81 0,-5.99 6.99,-20.97 8.99,-25.96 -7.99,-20.98 -9.99,-47.95 -5,-68.92 -20.97,-10.99 -52.93,-20.97 -52.93,-20.97 0,0 -14.98,14.98 -33.96,14.98 -18.98,0 -33.96,-14.98 -33.96,-14.98 0,0 -31.96,9.98 -52.93,20.97 4.99,20.97 2.99,47.94 -5,68.92 2,4.99 8.99,19.97 8.99,25.96 0,6 0,100.88 0,156.81 24.7,6.93 54.12,8.98 82.81,8.75 z" />
  <path
     id="path177"
     class="s4"
     d="m 2625.4,1250.45 c -6.73,12.56 -19.72,32.56 -37.61,32.56 -18.04,0 -29.26,-20 -35.98,-32.56" />
  <path
     id="path178"
     class="s4"
     d="M 2506.02,1396.87 H 2671.6" />
  <path
     id="path179"
     class="s4"
     d="M 2506.02,1425.03 H 2671.6" />
  <path
     id="path180"
     class="s4"
     d="M 2506.02,1435.52 H 2671.6" />
  <path
     id="path181"
     class="s4"
     d="M 2506.02,1463.68 H 2671.6" />
  <path
     id="path182"
     class="s4"
     d="m 2560.42,1310.59 c 0,5 -8.12,9.06 -18.14,9.06 -10.01,0 -18.13,-4.06 -18.13,-9.06 0,-5.01 8.12,-9.07 18.13,-9.07 10.02,0 18.14,4.06 18.14,9.07 z" />
  <path
     id="path183"
     class="s4"
     d="m 2633.9,1325.38 c 0,0 -12.4,-10.4 -10.97,-20.42 6.2,-2.38 19.07,-0.83 22.41,0.6 -1.44,6.68 -4.44,14.99 -11.44,19.82 z" />
  <path
     id="path184"
     class="s3"
     d="m 3074.99,885.49 c 28.69,0.23 58.3,-1.81 83,-8.75 0,-55.93 0,-22.14 0,-28.13 0,-6 6.99,-20.98 8.99,-25.97 -8,-20.98 -9.99,-47.94 -5,-68.92 -20.97,-10.99 -52.93,-20.97 -52.93,-20.97 0,0 -14.99,14.98 -33.96,14.98 -18.98,0 -33.96,-14.98 -33.96,-14.98 0,0 -31.96,9.98 -52.94,20.97 5,20.98 3,47.94 -4.99,68.92 2,4.99 8.99,19.97 8.99,25.97 0,5.99 0,-27.8 0,28.13 24.7,6.94 54.12,8.98 82.8,8.75 z" />
  <path
     id="path185"
     class="s4"
     d="m 3111.88,735.99 c -6.72,12.56 -19.71,32.56 -37.61,32.56 -18.04,0 -29.25,-20 -35.98,-32.56" />
  <path
     id="path186"
     class="s4"
     d="m 2992.51,861.15 h 165.58" />
  <path
     id="path187"
     class="s4"
     d="m 3046.9,796.13 c 0,5 -8.11,9.06 -18.13,9.06 -10.01,0 -18.13,-4.06 -18.13,-9.06 0,-5.01 8.12,-9.07 18.13,-9.07 10.02,0 18.13,4.06 18.13,9.07 z" />
  <path
     id="path188"
     class="s4"
     d="m 3120.39,810.92 c 0,0 -12.41,-10.39 -10.97,-20.42 6.2,-2.38 19.06,-0.83 22.4,0.6 -1.43,6.68 -4.43,14.99 -11.43,19.82 z" />
  <path
     id="path189"
     class="s3"
     d="m 2104.75,1528.62 c -28.69,0.23 -58.3,-1.82 -83,-8.75 0,-55.93 0,-150.81 0,-156.81 0,-5.99 -6.99,-20.97 -8.99,-25.96 8,-20.98 9.99,-47.95 5,-68.92 20.97,-10.99 52.93,-20.97 52.93,-20.97 0,0 14.99,14.98 33.96,14.98 18.98,0 33.96,-14.98 33.96,-14.98 0,0 31.96,9.98 52.94,20.97 -5,20.97 -3,47.94 4.99,68.92 -2,4.99 -8.99,19.97 -8.99,25.96 0,6 0,100.88 0,156.81 -24.7,6.93 -54.12,8.98 -82.8,8.75 z" />
  <path
     id="path190"
     class="s3"
     d="m 3066.43,1528.62 c 28.69,0.23 58.3,-1.82 82.99,-8.75 0,-55.93 0,-150.81 0,-156.81 0,-5.99 7,-20.97 8.99,-25.96 -7.99,-20.98 -9.98,-47.95 -4.99,-68.92 -20.98,-10.99 -52.94,-20.97 -52.94,-20.97 0,0 -14.98,14.98 -33.95,14.98 -18.98,0 -33.96,-14.98 -33.96,-14.98 0,0 -31.96,9.98 -52.94,20.97 5,20.97 3,47.94 -4.99,68.92 2,4.99 8.99,19.97 8.99,25.96 0,6 0,100.88 0,156.81 24.69,6.93 54.12,8.98 82.8,8.75 z" />
  <path
     id="path191"
     class="s4"
     d="m 2983.94,1396.87 h 165.59" />
  <path
     id="path192"
     class="s4"
     d="m 2983.94,1425.03 h 165.59" />
  <path
     id="path193"
     class="s4"
     d="m 2983.94,1435.52 h 165.59" />
  <path
     id="path194"
     class="s4"
     d="m 2983.94,1463.68 h 165.59" />
  <path
     id="path195"
     class="s3"
     d="M 3075.26,1403.83 V 1302.8 l -31.33,77.54 h 44.64" />
  <path
     id="path196"
     class="s4"
     d="m 2021.84,1304.68 c 0,0 75.16,132.59 166.63,180.1" />
  <path
     id="path197"
     class="s4"
     d="m 2058.71,1257.18 c 0,0 46.09,102.1 128.34,168.75" />
  <path
     id="path198"
     class="s3"
     d="m 1618.07,1528.62 c 28.69,0.23 58.3,-1.82 82.99,-8.75 0,-55.93 0,-150.81 0,-156.81 0,-5.99 7,-20.97 8.99,-25.96 -7.99,-20.98 -9.98,-47.95 -4.99,-68.92 -20.98,-10.99 -52.94,-20.97 -52.94,-20.97 0,0 -14.98,14.98 -33.95,14.98 -18.98,0 -33.96,-14.98 -33.96,-14.98 0,0 -31.96,9.98 -52.94,20.97 5,20.97 3,47.94 -4.99,68.92 2,4.99 8.99,19.97 8.99,25.96 0,6 0,100.88 0,156.81 24.69,6.93 54.12,8.98 82.8,8.75 z" />
  <path
     id="path199"
     class="s4"
     d="m 1654.96,1250.45 c -6.72,12.56 -19.71,32.56 -37.61,32.56 -18.04,0 -29.26,-20 -35.98,-32.56" />
  <path
     id="path200"
     class="s4"
     d="m 1589.98,1310.59 c 0,5 -8.12,9.06 -18.13,9.06 -10.02,0 -18.13,-4.06 -18.13,-9.06 0,-5.01 8.11,-9.07 18.13,-9.07 10.01,0 18.13,4.06 18.13,9.07 z" />
  <path
     id="path201"
     class="s4"
     d="m 1663.47,1325.38 c 0,0 -12.41,-10.4 -10.98,-20.42 6.21,-2.38 19.07,-0.83 22.41,0.6 -1.43,6.68 -4.43,14.99 -11.43,19.82 z" />
  <path
     id="path202"
     class="s4"
     d="m 1700.97,1304.68 c 0,0 -75.15,132.59 -166.62,180.1" />
  <path
     id="path203"
     class="s4"
     d="m 1664.1,1257.18 c 0,0 -46.08,102.1 -128.33,168.75" />
  <path
     id="path204"
     class="s6"
     d="m 2230.66,829.15 h -263.02 c -6.6,0 -12,-5.4 -12,-12 V 633.03 c 0,-6.6 5.4,-12 12,-12 h 263.02 c 6.6,0 12,5.4 12,12 v 184.12 c 0,6.6 -5.4,12 -12,12 z" />
  <path
     id="path205"
     class="s6"
     d="m 2206.55,830.17 v 9.31 c 0,5.14 -4.21,9.35 -9.35,9.35 h -196.1 c -5.15,0 -9.35,-4.21 -9.35,-9.35 v -9.72" />
  <path
     id="path206"
     class="s6"
     d="M 2015.52,877.38 V 846.6" />
  <path
     id="path207"
     class="s6"
     d="m 2039.5,846.6 v 30.78" />
  <path
     id="path208"
     class="s6"
     d="M 2156.52,877.38 V 846.6" />
  <path
     id="path209"
     class="s6"
     d="m 2180.49,846.6 v 30.78" />
  <path
     id="path210"
     class="s2"
     d="m 2684.24,743.71 c -12.53,20.82 -50.6,35.95 -95.63,35.95 -45.04,0 -83.14,-15.15 -95.64,-35.98" />
  <path
     id="path211"
     class="s2"
     d="m 2488.94,724.75 c 4.05,-26.19 47.13,-46.81 99.67,-46.81 52.15,0 94.98,20.31 99.58,46.22" />
  <path
     id="path212"
     class="s2"
     d="m 2497.39,724.34 c 15.03,-18.42 50.73,-31.37 92.38,-31.37 41.51,0 77.11,12.86 92.23,31.18" />
  <path
     id="path213"
     class="s2"
     d="m 2498.1,750.65 c 15.43,-17.97 50.67,-30.52 91.67,-30.52 39.83,0 74.23,11.85 90.3,29" />
  <path
     id="path214"
     class="s0"
     d="m 2723.07,728.8 c 0,41.46 -60.2,75.08 -134.46,75.08 -74.25,0 -134.45,-33.62 -134.45,-75.08 0,-41.46 60.2,-75.07 134.45,-75.07 74.26,0 134.46,33.61 134.46,75.07 z" />
  <path
     id="path215"
     class="s0"
     d="m 2723.07,728.8 v 33.59 c 0,41.46 -60.2,75.07 -134.46,75.07 -74.25,0 -134.45,-33.61 -134.45,-75.07 V 728.8" />
  <path
     id="path216"
     class="s0"
     d="m 2723.07,762.39 v 33.58 c 0,41.46 -60.2,75.08 -134.46,75.08 -74.25,0 -134.45,-33.62 -134.45,-75.08 v -33.58" />
  <path
     id="path217"
     class="s2"
     d="m 2588.61,779.66 v 91.39" />
  <path
     id="path218"
     class="s2"
     d="m 2674.16,854.86 v -67.1 l -17.34,-22.55" />
  <path
     id="path219"
     class="s2"
     d="m 2691.27,728.8 h 31.8" />
  <path
     id="path220"
     class="s2"
     d="m 2664.66,696.52 -24.6,29.97" />
  <path
     id="path221"
     class="s2"
     d="m 2675.31,667.54 -19.65,22.54" />
  <path
     id="path222"
     class="s2"
     d="m 2503.07,854.86 v -67.1 l 17.34,-22.55" />
  <path
     id="path223"
     class="s4"
     d="M 2492.83,862.87 V 743.04 h -4.88 l -0.35,-18.42 h 22.13 l -11.98,18.42 h -4.92" />
  <path
     id="path224"
     class="s4"
     d="M 2685.25,862.87 V 743.04 h -4.88 l -9.94,-18.9 h 22.13 l -2.39,18.9 h -4.92" />
  <path
     id="path225"
     class="s4"
     d="m 2644.24,657.58 v -15.69 h -4.87 l -9.94,-18.9 h 22.12 l -2.38,18.9 h -4.93" />
  <path
     id="path226"
     class="s4"
     d="m 2722.54,718.65 v -41.14 h -3.19 l -2.23,-18.89 h 10.2 l -2.39,18.89 h -2.39" />
  <path
     id="path227"
     class="s4"
     d="m 2532.04,657.58 v -15.69 h 4.87 l 9.94,-18.9 h -22.12 l 2.38,18.9 h 4.93" />
  <path
     id="path228"
     class="s4"
     d="m 2455.05,718.65 v -41.14 h 3.19 l 2.23,-18.89 h -10.2 l 2.38,18.89 h 2.4" />
  <path
     id="path229"
     class="s2"
     d="m 2487.03,728.8 h -32.87" />
  <path
     id="path230"
     class="s2"
     d="m 2511.81,696 25.36,31.65" />
  <path
     id="path231"
     class="s2"
     d="m 2501.92,667.54 19.65,22.54" />
  <path
     id="path232"
     class="s2"
     d="m 2588.61,651.35 v 68.84" />
  <path
     id="path233"
     class="s0"
     d="m 1613.85,885.75 c -16.42,0 -48.99,-3.16 -55.9,-4.02 0,-5.33 0.81,-9.77 0.81,-9.77 0,0 31.14,-17.52 31.14,-51.69 0,-22.39 -13.41,-42.79 -26.71,-46.78 -5.32,-16.85 -32.37,-139.67 -33.7,-146.32 -1.33,-6.65 0,-19.95 17.74,-22.17 17.73,-2.21 34,-3.99 67.26,-3.99 33.25,0 45.67,1.78 63.4,3.99 17.74,2.22 19.07,15.52 17.74,22.17 -1.33,6.65 -28.38,129.47 -33.7,146.32 -13.3,3.99 -26.71,24.39 -26.71,46.78 0,34.17 31.14,51.69 31.14,51.69 0,0 0.81,4.44 0.81,9.77 -6.91,0.86 -36.9,4.02 -53.32,4.02 z" />
  <path
     id="path234"
     class="s2"
     d="m 1589.9,817.7 h 45.32" />
  <path
     id="path235"
     class="s2"
     d="m 1561.8,769.4 h 101.52" />
  <path
     id="path236"
     class="s5"
     d="m 1562.24,639.31 c 25.18,-10.28 64.23,-9.76 97.12,-0.52" />
  <path
     id="path237"
     class="s5"
     d="m 1569.58,655.7 c 21.37,-8.73 54.52,-8.29 82.44,-0.44" />
  <path
     id="&lt;Compound Path&gt;"
     class="s7"
     d="m 1673.99,708.37 c -3.03,0.09 -5.42,2.53 -5.33,5.43 q 0.01,0.37 0.09,1.08 c -0.87,-0.04 -1.76,0.1 -2.61,0.49 h -0.01 c -1.28,0.59 -2.29,1.62 -2.83,2.89 -0.57,1.36 -0.56,2.88 0.04,4.19 0.15,0.32 0.47,0.9 0.88,1.6 q -0.39,0.11 -0.77,0.27 c -2.75,1.27 -4,4.44 -2.79,7.08 0.37,0.8 1.78,3.15 3.15,5.18 q -0.3,0.09 -0.58,0.21 c -2.75,1.26 -4.01,4.44 -2.8,7.08 0.4,0.86 1.99,3.5 3.44,5.61 q 0.12,0.18 0.24,0.36 c -2.57,1.34 -3.72,4.39 -2.54,6.95 0.24,0.53 0.94,1.74 1.78,3.08 -0.96,-0.08 -1.94,0.08 -2.84,0.49 l -3.36,-2.87 -5.67,-2.72 -5.18,5.91 c -0.32,-1.35 -1.15,-2.53 -2.31,-3.32 -0.85,-0.58 -1.79,-0.87 -2.74,-0.95 1.06,-1.19 1.95,-2.27 2.28,-2.75 0.81,-1.19 1.08,-2.7 0.74,-4.13 -0.3,-1.25 -1.05,-2.35 -2.1,-3.14 q 0.16,-0.16 0.31,-0.32 c 1.79,-1.85 3.79,-4.19 4.32,-4.97 0.81,-1.19 1.08,-2.69 0.73,-4.12 -0.32,-1.35 -1.14,-2.53 -2.31,-3.32 q -0.26,-0.17 -0.54,-0.3 c 1.69,-1.77 3.47,-3.86 3.97,-4.59 0.81,-1.19 1.07,-2.69 0.73,-4.12 -0.32,-1.35 -1.14,-2.53 -2.31,-3.32 q -0.35,-0.23 -0.71,-0.39 c 0.52,-0.63 0.93,-1.15 1.13,-1.44 1.64,-2.4 0.93,-5.74 -1.57,-7.45 h -0.01 c -0.91,-0.62 -1.97,-0.95 -3.05,-0.97 0.04,-0.64 0.06,-1.17 0.06,-1.47 -0.05,-1.44 -0.72,-2.81 -1.83,-3.77 -1.05,-0.89 -2.38,-1.37 -3.83,-1.32 -3.02,0.09 -5.42,2.53 -5.33,5.43 q 0.02,0.37 0.1,1.08 c -0.87,-0.04 -1.77,0.09 -2.62,0.49 -1.28,0.59 -2.29,1.61 -2.83,2.89 -0.58,1.35 -0.56,2.88 0.04,4.19 0.15,0.32 0.47,0.9 0.88,1.6 q -0.39,0.1 -0.77,0.27 c -2.75,1.26 -4,4.44 -2.79,7.08 0.37,0.8 1.77,3.15 3.14,5.18 q -0.29,0.09 -0.58,0.21 c -2.75,1.26 -4,4.44 -2.79,7.07 0.4,0.86 1.98,3.5 3.43,5.62 q 0.13,0.17 0.25,0.36 c -2.57,1.33 -3.72,4.39 -2.54,6.95 0.24,0.52 0.94,1.73 1.78,3.08 -0.96,-0.08 -1.94,0.07 -2.85,0.49 -1.28,0.59 -2.29,1.62 -2.83,2.89 l -8.69,-4.17 -8.69,4.17 c -0.54,-1.27 -1.55,-2.3 -2.83,-2.89 -0.91,-0.42 -1.88,-0.57 -2.84,-0.49 0.84,-1.35 1.53,-2.56 1.78,-3.08 1.17,-2.56 0.03,-5.62 -2.55,-6.95 q 0.13,-0.19 0.25,-0.36 c 1.45,-2.12 3.04,-4.76 3.43,-5.62 1.21,-2.63 -0.04,-5.81 -2.79,-7.07 q -0.29,-0.12 -0.58,-0.21 c 1.37,-2.03 2.78,-4.38 3.14,-5.18 1.22,-2.64 -0.04,-5.82 -2.79,-7.08 q -0.38,-0.17 -0.77,-0.27 c 0.42,-0.7 0.74,-1.28 0.88,-1.6 0.61,-1.31 0.62,-2.84 0.04,-4.19 -0.54,-1.28 -1.54,-2.3 -2.83,-2.89 -0.85,-0.4 -1.74,-0.53 -2.61,-0.49 q 0.08,-0.71 0.09,-1.08 c 0.09,-2.9 -2.3,-5.34 -5.33,-5.43 -1.44,-0.05 -2.77,0.43 -3.82,1.32 -1.12,0.96 -1.79,2.33 -1.83,3.77 -0.01,0.3 0.01,0.83 0.05,1.47 -1.07,0.02 -2.13,0.35 -3.05,0.97 -2.5,1.71 -3.21,5.05 -1.58,7.45 0.2,0.29 0.61,0.81 1.14,1.44 q -0.37,0.16 -0.71,0.39 h -0.01 c -1.16,0.79 -1.99,1.97 -2.31,3.32 -0.34,1.43 -0.07,2.93 0.74,4.12 0.49,0.73 2.27,2.82 3.96,4.59 q -0.27,0.13 -0.54,0.3 c -1.17,0.79 -1.99,1.97 -2.31,3.32 -0.34,1.43 -0.07,2.93 0.74,4.12 0.53,0.78 2.53,3.12 4.31,4.97 q 0.16,0.16 0.31,0.32 c -1.04,0.79 -1.79,1.89 -2.09,3.14 -0.35,1.43 -0.08,2.94 0.73,4.13 0.33,0.48 1.22,1.56 2.28,2.75 -0.94,0.08 -1.89,0.37 -2.73,0.95 -1.17,0.79 -1.99,1.97 -2.31,3.32 l -5.18,-5.91 -5.67,2.72 -3.36,2.87 c -0.91,-0.41 -1.89,-0.57 -2.85,-0.49 0.84,-1.34 1.54,-2.55 1.78,-3.08 1.18,-2.56 0.04,-5.61 -2.54,-6.95 q 0.13,-0.18 0.25,-0.36 c 1.45,-2.11 3.03,-4.75 3.43,-5.61 1.21,-2.64 -0.04,-5.82 -2.79,-7.08 q -0.29,-0.12 -0.58,-0.21 c 1.37,-2.03 2.77,-4.38 3.14,-5.18 1.21,-2.64 -0.04,-5.81 -2.79,-7.08 q -0.38,-0.16 -0.77,-0.27 c 0.42,-0.7 0.73,-1.28 0.88,-1.6 0.6,-1.31 0.62,-2.83 0.04,-4.19 -0.54,-1.27 -1.54,-2.3 -2.83,-2.89 -0.85,-0.39 -1.75,-0.53 -2.62,-0.49 q 0.09,-0.71 0.1,-1.08 c 0.09,-2.9 -2.3,-5.34 -5.33,-5.43" />
  <path
     id="path238"
     class="s2"
     d="m 1677.41,721.03 c 33.07,-11.4 66.33,-50.55 75.83,-98.83 -4.75,-5.32 -24.51,-21.29 -24.51,-21.29 0,0 -13.69,11.59 -33.83,8.36" />
  <path
     id="path239"
     class="s2"
     d="m 1693.94,643.87 c 5.89,-0.76 11.41,-9.32 13.5,-14.45 2.09,-5.13 6.27,-13.68 13.11,-13.49 6.84,0.19 18.63,15.77 7.61,38.58 -11.03,22.81 -27.56,44.1 -47.14,46.38" />
  <path
     id="path240"
     class="s2"
     d="m 1547.6,721.03 c -33.07,-11.4 -66.34,-50.55 -75.84,-98.83 4.75,-5.32 24.52,-21.29 24.52,-21.29 0,0 13.68,11.59 33.83,8.36" />
  <path
     id="path241"
     class="s2"
     d="m 1531.06,643.87 c -5.89,-0.76 -11.4,-9.32 -13.49,-14.45 -2.09,-5.13 -6.28,-13.68 -13.12,-13.49 -6.84,0.19 -18.62,15.77 -7.6,38.58 11.02,22.81 27.56,44.1 47.14,46.38" />
  <path
     id="path242"
     class="s7"
     d="M 1995.94,711.23 V 695.11" />
  <path
     id="path243"
     class="s7"
     d="M 1995.94,692.72 V 676.59" />
  <path
     id="path244"
     class="s7"
     d="m 2010.59,675.64 h 16.13" />
  <path
     id="path245"
     class="s7"
     d="m 2010.59,693.86 h 16.13" />
  <path
     id="path246"
     class="s7"
     d="m 2010.59,712.09 h 16.13" />
  <path
     id="path247"
     class="s7"
     d="M 2028.33,711.23 V 695.11" />
  <path
     id="path248"
     class="s7"
     d="M 2028.33,692.72 V 676.59" />
  <path
     id="path249"
     class="s7"
     d="M 2008.98,711.23 V 695.11" />
  <path
     id="path250"
     class="s7"
     d="M 2008.98,692.72 V 676.59" />
  <path
     id="path251"
     class="s7"
     d="m 2060.91,675.64 h 16.12" />
  <path
     id="path252"
     class="s7"
     d="m 2060.91,693.86 h 16.12" />
  <path
     id="path253"
     class="s7"
     d="m 2060.91,712.09 h 16.12" />
  <path
     id="path254"
     class="s7"
     d="M 2079.22,692.72 V 676.59" />
  <path
     id="path255"
     class="s7"
     d="M 2059.29,711.23 V 695.11" />
  <path
     id="path256"
     class="s7"
     d="m 2093.3,675.64 h 16.12" />
  <path
     id="path257"
     class="s7"
     d="m 2093.3,693.86 h 16.12" />
  <path
     id="path258"
     class="s7"
     d="m 2093.3,712.09 h 16.12" />
  <path
     id="path259"
     class="s7"
     d="M 2111.6,711.23 V 695.11" />
  <path
     id="path260"
     class="s7"
     d="M 2091.68,711.23 V 695.11" />
  <path
     id="path261"
     class="s7"
     d="M 2091.68,692.72 V 676.59" />
  <path
     id="path262"
     class="s7"
     d="M 2159.99,711.23 V 695.11" />
  <path
     id="path263"
     class="s7"
     d="M 2159.99,692.72 V 676.59" />
  <path
     id="path264"
     class="s7"
     d="m 2174.07,675.64 h 16.12" />
  <path
     id="path265"
     class="s7"
     d="m 2174.07,693.86 h 16.12" />
  <path
     id="path266"
     class="s7"
     d="m 2174.07,712.09 h 16.12" />
  <path
     id="path267"
     class="s7"
     d="M 2192.38,711.23 V 695.11" />
  <path
     id="path268"
     class="s7"
     d="M 2192.38,692.72 V 676.59" />
  <path
     id="path269"
     class="s7"
     d="m 2206.46,693.86 h 16.12" />
  <path
     id="path270"
     class="s7"
     d="M 2224.76,711.23 V 695.11" />
  <path
     id="path271"
     class="s7"
     d="M 2224.76,692.72 V 676.59" />
  <path
     id="path272"
     class="s7"
     d="M 2204.84,692.72 V 676.59" />
  <path
     id="path273"
     class="s3"
     d="M 2060.5,654.28 H 2138" />
  <path
     id="path274"
     class="s7"
     d="M 1995.94,803.8 V 787.68" />
  <path
     id="path275"
     class="s7"
     d="M 1995.94,785.29 V 769.16" />
  <path
     id="path276"
     class="s7"
     d="m 2010.59,768.21 h 16.13" />
  <path
     id="path277"
     class="s7"
     d="m 2010.59,786.44 h 16.13" />
  <path
     id="path278"
     class="s7"
     d="m 2010.59,804.66 h 16.13" />
  <path
     id="path279"
     class="s7"
     d="M 2028.33,803.8 V 787.68" />
  <path
     id="path280"
     class="s7"
     d="M 2008.98,785.29 V 769.16" />
  <path
     id="path281"
     class="s7"
     d="m 2093.3,768.21 h 16.12" />
  <path
     id="path282"
     class="s7"
     d="M 2111.6,803.8 V 787.68" />
  <path
     id="path283"
     class="s7"
     d="M 2111.6,785.29 V 769.16" />
  <path
     id="path284"
     class="s7"
     d="m 2174.07,768.21 h 16.12" />
  <path
     id="path285"
     class="s7"
     d="m 2174.07,786.44 h 16.12" />
  <path
     id="path286"
     class="s7"
     d="M 2192.38,803.8 V 787.68" />
  <path
     id="path287"
     class="s7"
     d="M 2192.38,785.29 V 769.16" />
  <path
     id="path288"
     class="s7"
     d="M 2172.45,785.29 V 769.16" />
  <path
     id="path289"
     class="s7"
     d="m 2206.46,768.21 h 16.12" />
  <path
     id="path290"
     class="s7"
     d="M 2224.76,803.8 V 787.68" />
  <path
     id="path291"
     class="s7"
     d="M 2224.76,785.29 V 769.16" />
  <path
     id="path292"
     class="s3"
     d="M 2060.5,746.85 H 2138" />
  <path
     id="path293"
     class="s4"
     d="m -212.17,726.85 c 0,5.28 -4.27,9.55 -9.55,9.55 -5.27,0 -9.55,-4.27 -9.55,-9.55 0,-5.27 4.28,-9.54 9.55,-9.54 5.28,0 9.55,4.27 9.55,9.54 z" />
  <path
     id="path294"
     class="s4"
     d="m -284.78,806.92 c 0,5.28 -4.28,9.55 -9.55,9.55 -5.28,0 -9.55,-4.27 -9.55,-9.55 0,-5.27 4.27,-9.55 9.55,-9.55 5.27,0 9.55,4.28 9.55,9.55 z" />
  <path
     id="path295"
     class="s4"
     d="m -354.1,692.66 c 0,5.27 -4.28,9.55 -9.55,9.55 -5.27,0 -9.55,-4.28 -9.55,-9.55 0,-5.27 4.28,-9.55 9.55,-9.55 5.27,0 9.55,4.28 9.55,9.55 z" />
  <path
     id="path296"
     class="s4"
     d="m -243.59,652.6 c 0,5.27 -4.27,9.55 -9.55,9.55 -5.27,0 -9.55,-4.28 -9.55,-9.55 0,-5.27 4.28,-9.55 9.55,-9.55 5.28,0 9.55,4.28 9.55,9.55 z" />
  <path
     id="path297"
     class="s4"
     d="m -364.69,797.19 c 0,5.27 -4.28,9.55 -9.55,9.55 -5.27,0 -9.55,-4.28 -9.55,-9.55 0,-5.28 4.28,-9.55 9.55,-9.55 5.27,0 9.55,4.27 9.55,9.55 z" />
  <path
     id="path298"
     class="s4"
     d="m -276.18,800.24 c 14.45,-10.39 37.48,-29.81 42.44,-41.55" />
  <path
     id="path299"
     class="s4"
     d="m -245.02,759.15 c 4.51,-1.81 14.45,-7.23 14.45,-7.23 l 3.61,15.8" />
  <path
     id="path300"
     class="s4"
     d="m -233.66,714.5 c -15.06,-9.48 -44.78,-35.73 -107.55,-31.67" />
  <path
     id="path301"
     class="s4"
     d="m -334.5,692.6 c -3.37,-3.51 -12.13,-10.67 -12.13,-10.67 l 13.29,-9.29" />
  <path
     id="path302"
     class="s4"
     d="m -308.71,774.33 -14.23,14.23" />
  <path
     id="path303"
     class="s4"
     d="m -322.94,774.33 14.23,14.23" />
  <path
     id="path304"
     class="s4"
     d="m -257.76,718.84 -14.22,14.22" />
  <path
     id="path305"
     class="s4"
     d="m -271.98,718.84 14.22,14.22" />
  <path
     id="path306"
     class="s4"
     d="m -278.03,639.78 -14.22,14.23" />
  <path
     id="path307"
     class="s4"
     d="m -292.25,639.78 14.22,14.23" />
  <path
     id="path308"
     class="s4"
     d="m -400.81,769.98 -14.23,14.23" />
  <path
     id="path309"
     class="s4"
     d="m -415.04,769.98 14.23,14.23" />
  <path
     id="path310"
     class="s4"
     d="m -368.01,709.74 -14.22,14.22" />
  <path
     id="path311"
     class="s4"
     d="m -382.23,709.74 14.22,14.22" />
  <path
     id="path312"
     class="s4"
     d="M -449.69,701.21 V 675.05" />
  <path
     id="path313"
     class="s4"
     d="M -381.15,632.27 V 606.11" />
  <path
     id="path314"
     class="s4"
     d="M -404,654.62 V 608.55" />
  <path
     id="path315"
     class="s4"
     d="M -426.84,678.18 V 632.11" />
  <path
     id="path316"
     class="s4"
     d="m 1669.53,46.16 c 0,0 -103.6,0 -109.59,0 -5.99,0 -33.61,7.37 -39.6,11.06 -5.99,3.68 -25.33,41.900001 -30.85,52.95 13.35,3.68 21.88,3.7 29.25,-5.05 7.37,-8.749999 12.26,-19.359999 15.48,-22.119999 3.23,-2.76 11.91,-3.22 18.35,-3.22 -0.92,11.97 -1.84,37.299999 -2.3,41.439999 -0.46,4.14 5.99,15.66 23.02,17.04 17.04,1.38 45.59,5.52 52.03,5.98 6.45,0.46 53.92,24.4 60.98,27.79 14.29,6.86 26.05,-13.97 8.55,-23.64 -17.49,-9.67 -44.66,-23.03 -50.65,-25.79 -5.98,-2.76 -49.73,-12.89 -49.73,-12.89 l 6.62,-37.759999 c 0,0 48.18,-0.46 55.09,-1.38 6.9,-0.92 13.35,-11.050001 13.35,-24.410001 z" />
  <path
     id="path317"
     class="s4"
     d="m 1562.24,136.88 8.29,43.74 c 0,0 -19.29,34.91 -22.62,41.08 -3.42,6.35 -5.64,13.3 3.73,18.03 7.32,3.7 12.89,-1.1 17.22,-8.56 6.55,-11.27 25.15,-45.95 25.15,-45.95 v -44.66" />
  <path
     id="path318"
     class="s4"
     d="m 1612.89,5.18 c 0,13.74 -11.13,24.87 -24.86,24.87 -13.74,0 -24.87,-11.13 -24.87,-24.87 0,-13.73 11.13,-24.86 24.87,-24.86 13.73,0 24.86,11.13 24.86,24.86 z" />
  <path
     id="path319"
     class="s0"
     d="m 2093.11,150.35 c 0.58,9.09 18.57,22.47 39.62,21.13 21.05,-1.34 37.17,-17.24 36.61,-25.99 -0.55,-8.74 -18.56,-22.47 -39.61,-21.13 -21.06,1.35 -37.2,16.9 -36.62,25.99 z" />
  <path
     id="path320"
     class="s4"
     d="m 2108.76,128.96 c -8.76,-7.49 -16.09,-13.62 -16.09,-13.62 l 17.72,-31.699999 c 0,0 2.24,0 5.96,2.97 9.12,7.3 -5.13,36.439999 -0.74,37.969999" />
  <path
     id="path321"
     class="s4"
     d="m 2142.4,123.09 c 0,0 13.39,-31.749999 2.24,-55.83 -3.72,-8.03 -15.92,-15.26 -26.06,-21.59 -23.88,-14.92 -25.48,-12.93 -28.31,-14.36 -6.21,-3.15 -51.39,-11.62 -59.53,-10.95 -8.14,0.67 -49.73,43.84 -61.27,52.390001 11.91,10.84 20.74,15.34 32.98,10.14 12.24,-5.2 30.2,-27.860001 34.99,-29.030001 4.79,-1.17 20.84,5.04 27.52,8.42 -7.24,11.930001 -21.51,37.700001 -24.16,41.76 -2.66,4.05 -2.03,19.37 14.91,29.76 16.94,10.39 44.36,29.69 50.8,33.56 6.44,3.86 43.07,53.63 48.6,60.86 11.22,14.62 34.36,-0.8 21.3,-20.02 -8.23,-12.12 -19.68,-27.78 -28.21,-39.2" />
  <path
     id="path322"
     class="s4"
     d="m 2044.98,126.56 -14.4,49.71 c 0,0 -38.35,26.06 -45.04,30.7 -6.89,4.78 -12.84,10.82 -5.62,20.66 5.65,7.68 13.95,5.62 22.36,0.17 12.71,-8.24 50.22,-34.41 50.22,-34.41 l 23.48,-46.31" />
  <path
     id="path323"
     class="s4"
     d="m 2147.61,14.01 c -6.21,12.24 -21.17,17.14 -33.42,10.93 -12.25,-6.21 -17.14,-21.17 -10.93,-33.42 6.21,-12.25 21.17,-17.14 33.42,-10.93 12.25,6.2 17.14,21.17 10.93,33.42 z" />
  <path
     id="path324"
     class="s1"
     d="m 2988.19,753.72 -13.25,3.29 c -9.42,2.84 -22.87,7.16 -26.71,21.1" />
  <path
     id="path325"
     class="s1"
     d="m 2984.74,816.07 -8.16,0.96 c -4.81,0 -5.77,8.64 -5.77,8.64" />
  <path
     id="path326"
     class="s1"
     d="m 3161.98,753.72 13.26,3.29 c 9.41,2.84 22.86,7.16 26.71,21.1" />
  <path
     id="path327"
     class="s1"
     d="m 3165.43,816.07 8.17,0.96 c 4.8,0 5.77,8.64 5.77,8.64" />
  <path
     id="path328"
     class="s1"
     d="m 3012.96,-36.59 c 0,0 28.79,78.73 25.26,133.370001" />
  <path
     id="path329"
     class="s1"
     d="m 3082.87,-36 c 0,0 19.98,38.78 16.46,93.42" />
  <path
     id="path330"
     class="s1"
     d="m 2934.81,217.82 22.98,14.77 c 16.78,10.49 38.89,5.4 49.39,-11.39 10.49,-16.78 5.4,-38.89 -11.39,-49.39 l -58.63,-38.01" />
  <path
     id="path331"
     class="s4"
     d="m 2510.73,177.59 c 11.96,-5.9 32.54,-11.88 47.22,-14.13 14.68,-2.25 31.83,-6.48 40.21,-12.18" />
  <path
     id="path332"
     class="s4"
     d="m 2583.4,97.840001 c 0,0 -5.05,4.429999 -30.82,24.419999 15.41,-12.21 41.79,-5.74 51.93,3.13 -5.36,1.32 -17.34,11.77 -25.24,22.13 27.51,-12.01 32.55,-2.79 43.02,4.64 -16.85,-3.81 -21.74,4.22 -28.3,10.83 5.19,-14.01 4.27,-20.39 16.23,-26.29 -19.38,-15.01 -37.8,-5.91 -45,-0.96 11.35,-12.11 23.39,-25.08 28.53,-25.44 -16.84,-8.36 -46.71,-10.549999 -53.92,-1.04" />
  <path
     id="path333"
     class="s3"
     d="m 2468.01,64.19 c -4.04,6.680001 -15.21,31.480001 -23.74,51.32 -8.53,19.84 7.49,34.08 22.09,38.9 14.6,4.82 40.27,16.69 55.04,34.2 14.77,17.5 53.45,27.76 82.08,33.21 28.63,5.46 61.72,6.86 77.97,-0.1 16.25,-6.96 4.54,-26.81 -3.42,-34.17 -2.93,-2.72 -8.16,-6.5 -14.18,-10.63" />
  <path
     id="path334"
     class="s3"
     d="m 2578.2,100.72 c 0,0 -17.21,-21.109999 -22.38,-27.339999" />
  <path
     id="path335"
     class="s4"
     d="m 2472.04,62.06 c -8.27,20.910001 -4.62,33.880001 16.65,31.600001 21.27,-2.29 38.42,-6.51 52.63,2.27 C 2555.53,104.71 2599.91,154.72 2609,159.3 c 9.09,4.58 9.77,8.87 20.45,-0.35" />
  <path
     id="path336"
     class="s4"
     d="m 2636.44,228.26 c -0.56,6.96 -6.61,9.13 -11.54,8.53 -4.92,-0.61 -11.82,-3.69 -10.34,-12.46" />
  <path
     id="path337"
     class="s4"
     d="m 2681.66,224.63 c 1.11,6.89 -4.25,10.45 -9.18,11.03 -4.93,0.59 -12.36,-0.76 -13.02,-9.63" />
  <path
     id="path338"
     class="s4"
     d="m 2593.52,221.09 c -0.56,6.96 -6.62,9.14 -11.54,8.53 -4.92,-0.6 -11.82,-3.68 -10.35,-12.46" />
  <path
     id="path339"
     class="s4"
     d="m 2558.17,209.56 c -0.56,6.96 -6.62,9.14 -11.55,8.53 -4.92,-0.6 -11.82,-3.68 -10.34,-12.46" />
  <path
     id="path340"
     class="s4"
     d="m 2485.9,165.05 c -0.44,5.51 -5.24,7.24 -9.15,6.76 -3.9,-0.48 -9.36,-2.92 -8.19,-9.87" />
  <path
     id="path341"
     class="s4"
     d="m 2459.53,155.12 c -2.58,4.89 -7.68,4.58 -11.07,2.6 -3.4,-1.98 -7.46,-6.38 -3.64,-12.31" />
  <path
     id="path342"
     class="s4"
     d="m 2515.41,188.93 c -3.81,5.93 0.25,10.32 3.64,12.31 3.4,1.98 8.49,2.29 11.07,-2.6" />
  <path
     id="path343"
     class="s4"
     d="m 2527.7,192.06 q 0.24,-0.08 0.48,-0.16" />
  <path
     id="path344"
     class="s11"
     d="m 2539.77,188.2 c 19.92,-6.1 39.91,-10.98 51.88,-12.58 14.09,-1.87 27.37,-2.42 43.57,4.28 15.27,6.31 34.55,20.82 35.56,37.81" />
  <path
     id="path345"
     class="s4"
     d="m 2670.35,223.77 q -0.05,0.24 -0.1,0.48" />
  <path
     id="path347"
     class="s9"
     d="m 2456.89,91.030001 c 5.7,8.37 13.11,18.139999 29.54,19.329999 16.44,1.18 21.66,-6.25 37.74,5.48 16.08,11.73 45.23,27.07 38.51,28.95 -14.05,3.91 -49.28,18.73 -65.1,23.76" />
  <path
     id="path348"
     class="s4"
     d="m 2506.53,-18.53 c -0.96,75.78 -34.46,83.63 -34.46,83.63" />
  <path
     id="path349"
     class="s4"
     d="m 2566.87,-5.98 c 0,0 -14.91,53.15 -15.1,71.8 -0.17,16.130001 -0.62,30.150001 15.46,35.16" />
</svg>
